<svg width="20" height="20" viewBox="0 0 20 20" fill="none" xmlns="http://www.w3.org/2000/svg">
<path fill-rule="evenodd" clip-rule="evenodd" d="M14.6857 0H5.31429C2.04762 0 0 2.31208 0 5.58516V14.4148C0 17.6879 2.0381 20 5.31429 20H14.6857C17.9619 20 20 17.6879 20 14.4148V5.58516C20 2.31208 17.9619 0 14.6857 0Z" fill="#E78669"/>
<path fill-rule="evenodd" clip-rule="evenodd" d="M10.7497 6.32715C10.7497 5.91293 10.4139 5.57715 9.99967 5.57715C9.58546 5.57715 9.24967 5.91293 9.24967 6.32715V9.24039H6.33301C5.91879 9.24039 5.58301 9.57617 5.58301 9.99039C5.58301 10.4046 5.91879 10.7404 6.33301 10.7404H9.24967V13.6535C9.24967 14.0677 9.58546 14.4035 9.99967 14.4035C10.4139 14.4035 10.7497 14.0677 10.7497 13.6535V10.7404H13.6663C14.0806 10.7404 14.4163 10.4046 14.4163 9.99039C14.4163 9.57617 14.0806 9.24039 13.6663 9.24039H10.7497V6.32715Z" fill="white"/>
</svg>
