<svg width="130" height="132" viewBox="0 0 130 132" fill="none" xmlns="http://www.w3.org/2000/svg">
<path d="M9.92995 88.2812C19.8704 118.971 52.78 135.764 83.3735 125.92C114.063 115.979 130.856 83.0697 121.012 52.4763C111.072 21.7863 78.162 4.99372 47.5686 14.8377C16.8786 24.6816 0.0860023 57.5913 9.92995 88.2812Z" fill="#5C51A9"/>
<path d="M67.0633 0.265137C66.4842 0.265137 65.9052 0.265137 65.3261 0.265137C56.5438 0.651174 47.9544 4.12551 41.6813 9.72304C40.2337 9.72304 38.8826 10.0126 37.7244 10.4951C36.3733 10.9777 35.1187 11.7497 34.0571 12.8113C33.092 13.6799 32.3199 14.838 31.6444 16.2857C31.0653 17.5403 30.4862 18.8914 30.0037 20.5321C29.3281 22.7518 28.8456 25.068 28.4595 27.2877L28.0735 28.9284C27.4945 31.6307 26.9154 34.3329 25.8538 36.8421C25.2748 38.0968 24.6957 39.1584 24.0201 40.027C23.8271 40.22 23.7306 40.413 23.5376 40.606C23.3446 40.799 23.1515 40.9921 23.055 41.2816C22.5725 41.8606 22.1864 42.4397 21.7039 43.1152C20.9318 44.1769 20.2563 45.4315 19.6772 46.6861C18.5191 49.0023 17.8435 51.4151 17.4575 53.9243C17.0715 56.2405 17.0715 58.7498 17.4575 61.1625C17.747 63.5752 18.4226 65.9879 19.2912 68.4007C20.1598 70.6204 21.2214 72.8401 22.669 75.1563C24.0201 77.376 25.5643 79.5957 27.3015 81.719C28.8456 83.5526 30.5828 85.1933 32.8025 86.834C35.0222 88.4746 37.4349 89.8257 39.2686 90.8873C39.3651 90.8873 39.4616 90.9838 39.5581 90.9838C43.8045 92.335 48.3405 93.3966 53.1659 94.0721C57.4123 94.6512 61.7552 95.0372 66.0016 95.0372C66.6772 95.0372 67.3528 95.0372 68.1249 95.0372C73.3364 94.9407 78.2583 94.2652 82.8908 93.2036C87.7162 92.0455 92.1557 90.4048 96.1126 88.1851C98.0427 87.1235 99.7799 85.8689 101.517 84.3247C103.158 82.8771 104.702 81.2364 106.15 79.4027C109.045 75.7354 111.265 71.5855 112.809 67.0496C113.581 64.8298 114.063 62.6101 114.449 60.2939C114.739 57.9777 114.835 55.758 114.739 53.5383C114.546 51.222 114.16 48.9058 113.388 46.7826C113.002 45.721 112.519 44.6594 112.037 43.6943C111.554 42.8257 110.975 41.9571 110.203 40.9921C109.334 39.9304 108.369 38.8688 107.018 37.8072C106.439 37.3247 105.86 36.8421 105.184 36.3596C104.895 36.1666 104.509 35.8771 104.219 35.684C103.833 35.3945 103.447 35.2015 103.158 34.912C102.482 34.4294 102 33.8504 101.421 33.1748C100.938 32.4992 100.455 31.7272 100.069 30.8586C99.2974 28.9284 98.9113 26.9017 98.6218 24.9715L98.5253 24.489C98.3323 23.2343 98.0427 22.1727 97.8497 21.1111C97.5602 20.0495 97.2707 18.9879 96.7881 17.8298C96.0161 15.8031 95.051 13.8729 93.8929 12.1358C92.8313 10.4951 91.4801 9.04748 90.0325 7.69635C87.2337 5.28362 83.7594 3.35343 79.513 2.09881C77.5828 1.51976 75.4596 1.03721 73.0468 0.747683C70.8271 0.361646 68.9934 0.265137 67.0633 0.265137Z" fill="#1D2B3C"/>
<path d="M71.696 13.0042C67.4496 13.5832 63.3962 14.6448 59.5358 16.2855C59.5358 16.2855 59.5358 16.2855 59.6323 16.2855C56.6406 17.5401 53.7453 19.0843 51.236 21.111C50.464 21.69 49.7884 22.3656 49.1128 23.0411C48.4373 23.7167 47.8582 24.3923 47.2791 25.0678C46.7001 25.8399 46.1211 26.612 45.6385 27.4806C45.156 28.3491 44.7699 29.1212 44.3839 29.9898C44.3839 29.9898 44.3839 29.9898 44.3839 29.8933C43.6118 31.727 43.0327 33.6572 42.5502 35.4908C41.9711 37.7106 41.4886 39.9303 41.006 42.0535C40.813 42.6325 40.7165 43.2116 40.5235 43.7906C40.3305 44.3697 40.234 44.9487 40.0409 45.4313C39.6549 46.5894 39.1724 47.651 38.5933 48.7126C38.0143 49.7742 37.3387 50.8358 36.6631 51.8974C35.9876 52.959 35.312 53.9241 34.6364 54.8892C33.9609 55.8543 33.2853 56.9159 32.6098 57.9775C32.0307 59.0391 31.4516 60.1007 30.9691 61.2588V61.1623C30.7761 61.7414 30.4865 62.3204 30.2935 62.803C30.1005 63.382 30.004 63.9611 29.811 64.5401C29.6179 65.6017 29.4249 66.5668 29.2319 67.6284C29.0389 68.9796 28.9424 70.2342 28.9424 71.5853C28.9424 72.8399 29.0389 74.1911 29.2319 75.4457C29.4249 76.7968 29.7145 78.0514 30.004 79.306C30.39 80.5607 30.7761 81.7188 31.2586 82.9734V82.8769C31.8377 84.228 32.5132 85.4826 33.1888 86.7373V86.8338C35.312 88.2814 37.4352 89.536 39.1724 90.5011C39.2689 90.5011 39.3654 90.5976 39.4619 90.5976C43.7083 91.9488 48.2442 93.0104 53.0697 93.6859C57.3161 94.265 61.659 94.651 65.9055 94.651C66.581 94.651 67.2566 94.651 68.0286 94.651C73.2401 94.5545 78.1621 93.8789 82.7946 92.8173C87.62 91.6592 91.963 90.0186 95.8233 87.8954C96.1129 87.5093 96.4024 87.2198 96.6919 86.8338C99.2977 83.4559 101.614 79.7886 103.255 75.8317C103.834 74.4806 104.316 73.226 104.702 71.8748C105.088 70.5237 105.378 69.2691 105.571 67.9179C105.667 66.8563 105.764 65.7947 105.764 64.7331C105.764 63.6715 105.667 62.6099 105.571 61.5483C105.571 61.5483 105.571 61.5483 105.571 61.6448C105.474 60.6798 105.281 59.8112 104.992 58.8461C104.702 57.9775 104.413 57.1089 104.123 56.2403C104.123 56.2403 104.123 56.2403 104.123 56.1438C103.93 55.7578 103.737 55.3717 103.544 55.0822C103.351 54.7927 103.158 54.4067 102.868 54.1171C102.193 53.2485 101.324 52.38 100.552 51.6079C99.7802 50.8358 98.9116 50.0637 98.2361 49.2917C97.85 48.9056 97.464 48.4231 97.1744 47.9405C96.8849 47.458 96.5954 46.9754 96.3059 46.3964C96.0163 45.8173 95.8233 45.2383 95.6303 44.6592C95.4373 43.9837 95.2443 43.4046 95.1478 42.729C94.8582 41.3779 94.7617 40.0268 94.7617 38.6756C94.6652 37.421 94.6652 36.0699 94.6652 34.8153C94.5687 32.499 94.4722 30.1828 94.1827 27.8666C93.9896 26.7085 93.7966 25.4539 93.5071 24.2958C93.2176 23.1376 92.8315 22.076 92.349 20.9179V21.0144C91.8664 19.9528 91.3839 18.8912 90.7083 17.8296C90.0328 16.768 89.3572 15.8029 88.5851 14.7413C88.3921 14.4518 88.1026 14.1623 87.9096 13.8728C87.041 13.5832 86.0759 13.2937 85.1108 13.1007C84.1457 12.9077 83.1806 12.7146 82.2155 12.6181C80.5749 12.4251 79.0307 12.3286 77.39 12.3286C75.5564 12.6181 73.6262 12.8112 71.696 13.0042Z" fill="#16212E"/>
<path d="M36.5665 38.1934C36.1804 38.1934 35.6979 38.2899 35.3119 38.3864C34.5398 38.5794 33.7677 39.1585 33.1886 39.9305C32.6096 40.7026 32.2236 41.6677 32.1271 42.7293C32.0306 43.6944 32.0305 44.6595 32.3201 45.8176C32.5131 46.7827 32.8991 47.7478 33.4782 48.8094C33.9607 49.678 34.7328 50.5465 35.4084 51.2221C35.7944 51.5116 36.1804 51.8012 36.5665 52.0907C36.9525 52.2837 37.4351 52.5732 37.9176 52.6697C38.4967 52.8628 39.0757 52.9593 39.6548 52.9593C39.8478 52.9593 40.0408 52.9593 40.2338 52.9593C40.5234 52.9593 40.8129 52.8628 41.1024 52.6697C41.3919 52.5732 41.6815 52.3802 41.971 52.1872C42.4535 51.8012 42.7431 51.3186 43.1291 50.6431C43.4186 50.064 43.6117 49.2919 43.7082 48.5199C43.8047 47.8443 43.8047 47.0722 43.7082 46.3001C43.6117 44.6595 43.1291 43.2118 42.4535 41.9572C42.2605 41.6677 42.0675 41.3782 41.778 40.9921C41.6815 40.8956 41.585 40.8956 41.4884 40.8956C41.3919 40.8956 41.392 40.8956 41.2954 40.8956C40.4269 39.641 39.2687 38.7724 37.8211 38.3864C37.4351 38.1934 37.049 38.1934 36.5665 38.1934Z" fill="#E19695"/>
<path d="M35.2158 40.6059C35.2158 40.7024 35.2158 40.8955 35.4089 40.8955C35.6984 40.992 35.8914 40.992 36.1809 41.185C36.1809 41.185 36.1809 41.185 36.2774 41.185C36.6635 41.378 37.0495 41.571 37.4356 41.8606C37.4356 41.8606 37.4355 41.8606 37.339 41.764C37.8216 42.1501 38.2076 42.5361 38.5936 43.0187C39.1727 43.7907 39.6552 44.6593 40.0413 45.5279C40.1378 45.6244 40.2343 45.8174 40.4273 45.8174C40.6203 45.8174 40.7168 45.8174 40.9099 45.7209C41.0064 45.6244 41.1029 45.5279 41.1994 45.3349C41.1994 45.2384 41.1994 45.2384 41.1994 45.1419C41.1994 45.0454 41.1994 44.9488 41.1029 44.8523C40.6203 43.6942 39.8483 42.7291 38.8832 41.9571C37.9181 41.185 36.76 40.6059 35.6019 40.3164C35.6019 40.3164 35.6019 40.3164 35.5054 40.3164C35.4089 40.4129 35.3123 40.4129 35.2158 40.6059Z" fill="#C58382"/>
<path d="M95.9201 35.877C96.3062 35.877 96.7887 35.9735 97.1748 36.07C97.9468 36.263 98.7189 36.842 99.2979 37.6141C99.877 38.3862 100.263 39.3513 100.36 40.4129C100.456 41.378 100.456 42.3431 100.167 43.5012C99.9735 44.4663 99.5875 45.4314 99.0084 46.493C98.5259 47.3616 97.7538 48.2301 97.0782 48.9057C96.6922 49.1952 96.3062 49.4848 95.9201 49.7743C95.5341 49.9673 95.148 50.2568 94.569 50.3533C93.9899 50.5464 93.4109 50.6429 92.8318 50.6429C92.6388 50.6429 92.4458 50.6429 92.2528 50.6429C91.9632 50.6429 91.6737 50.5464 91.3842 50.3533C91.0947 50.2568 90.8051 50.0638 90.5156 49.8708C90.0331 49.4848 89.7435 49.0022 89.3575 48.3266C89.068 47.7476 88.8749 46.9755 88.7784 46.2034C88.6819 45.5279 88.6819 44.7558 88.7784 43.9837C88.8749 42.3431 89.3575 40.8954 90.0331 39.6408C90.2261 39.3513 90.4191 39.0618 90.7086 38.6757C90.8051 38.5792 90.9017 38.5792 90.9982 38.5792C91.0947 38.5792 91.0947 38.5792 91.1912 38.5792C92.0598 37.3246 93.2179 36.456 94.6655 36.07C95.0515 35.877 95.4376 35.877 95.9201 35.877Z" fill="#E19695"/>
<path d="M97.2707 38.2895C97.2707 38.386 97.2707 38.5791 97.0777 38.5791C96.7881 38.6756 96.5951 38.6756 96.3056 38.8686C96.3056 38.8686 96.3056 38.8686 96.2091 38.8686C95.8231 39.0616 95.437 39.2546 95.051 39.5441C95.051 39.5441 95.051 39.5441 95.1475 39.4476C94.6649 39.8337 94.2789 40.2197 93.8929 40.7023C93.3138 41.4743 92.8313 42.3429 92.4452 43.2115C92.3487 43.308 92.2522 43.501 92.0592 43.501C91.8662 43.501 91.7696 43.501 91.5766 43.4045C91.4801 43.308 91.3836 43.2115 91.2871 43.0185C91.2871 42.922 91.2871 42.922 91.2871 42.8255C91.2871 42.729 91.2871 42.6324 91.3836 42.5359C91.8662 41.3778 92.6382 40.4127 93.6033 39.6407C94.5684 38.8686 95.7265 38.2895 96.8846 38C96.8846 38 96.8846 38 96.9812 38C97.1742 38.0965 97.2707 38.193 97.2707 38.2895Z" fill="#C58382"/>
<path d="M72.9505 10.5913C71.9854 10.5913 70.9238 10.6878 69.9587 10.7843C67.353 11.0739 64.6507 11.7494 61.9485 12.9075C59.4392 13.8726 57.0265 15.2238 54.6138 16.7679C53.1661 17.733 51.815 18.7946 50.0778 20.2422C49.6918 20.6283 49.3057 20.9178 48.8232 21.3038C47.7616 22.1724 46.7 23.1375 45.6384 24.0061C44.4803 24.8747 43.4187 25.5502 42.3571 26.2258C42.0675 26.3223 41.971 26.7084 41.971 26.9979C41.971 27.0944 41.971 27.1909 41.971 27.1909C41.8745 28.542 41.778 29.9897 41.585 31.8233V31.9199C41.392 33.3675 41.199 34.8151 40.9094 36.2628C40.3304 39.8336 39.7513 43.501 39.6548 47.1683C39.5583 49.9671 39.8478 52.3798 40.5234 54.503C40.8129 55.6611 41.2955 56.8192 41.971 57.8809C42.4536 58.8459 43.2257 59.811 43.9977 60.7761C45.1558 62.2238 46.7 63.4784 48.5337 64.6365C50.0778 65.6016 51.9115 66.5667 53.9382 67.2422C55.9649 67.9178 58.0881 68.4004 60.3078 68.6899C60.4043 68.7864 60.5008 68.7864 60.6938 68.7864C61.0799 68.7864 61.3694 68.7864 61.7554 68.8829C61.8519 68.9794 61.9484 68.9794 62.1415 68.9794H62.238H62.3345H62.5275H62.624C63.3961 68.9794 64.1682 69.0759 64.9403 69.0759C65.3263 69.0759 65.7123 69.0759 66.0018 69.0759C66.7739 69.0759 67.6425 69.0759 68.6076 68.9794C69.2832 68.9794 69.9587 68.8829 70.6343 68.7864H70.9238C71.0203 68.7864 71.0203 68.7864 71.1168 68.7864C73.9156 68.5934 76.6179 68.1108 79.0306 67.2422C81.0573 66.5667 82.891 65.6981 84.4351 64.6365C86.2688 63.4784 87.7164 62.2238 88.9711 60.7761C89.8396 59.811 90.5152 58.8459 90.9978 57.8809C91.5768 56.8192 92.0594 55.6611 92.4454 54.503C93.121 52.2833 93.4105 49.8706 93.314 47.1683C93.2175 44.273 92.8314 41.3778 92.4454 38.8685C92.3489 37.9999 92.2524 37.1314 92.1559 36.2628L92.0593 35.7802C91.8663 34.3326 91.7698 32.7884 91.5768 31.3408C91.3838 29.1211 91.1908 26.9014 90.8047 24.6817C90.4187 22.848 89.9361 21.1108 89.2606 19.4702C88.4885 17.733 87.4269 16.0923 86.0758 14.7412C85.9793 14.6447 85.7863 14.5482 85.5932 14.5482H85.4967C83.277 13.1005 80.8643 12.0389 78.162 11.4599C76.4248 10.7843 74.6877 10.5913 72.9505 10.5913Z" fill="#ED9E9D"/>
<path d="M69.9586 10.6883C67.3528 10.9778 64.6506 11.6534 61.9483 12.8115C59.4391 13.7766 57.0264 15.1277 54.6136 16.6719C53.2625 17.637 51.8149 18.6986 50.0777 20.1462C49.6916 20.5322 49.3056 20.8218 48.8231 21.2078C47.858 22.0764 46.6999 23.0415 45.6383 23.9101C44.4802 24.7786 43.4185 25.4542 42.3569 26.1298C42.0674 26.2263 41.9709 26.6123 41.9709 26.9018C41.9709 26.9984 41.9709 27.0949 41.9709 27.0949C41.9709 28.5425 41.7779 29.9901 41.5849 31.7273V31.8238C41.3919 33.2715 41.1988 34.7191 40.9093 36.1667V36.2632C40.7163 37.2283 40.6198 38.1934 40.4268 39.1585C40.6198 39.255 40.8128 39.4481 41.0058 39.5446C41.1988 39.6411 41.3919 39.6411 41.5849 39.7376C41.7779 39.7376 41.8744 39.7376 42.0674 39.7376C42.2604 39.7376 42.55 39.6411 42.743 39.5446C43.0325 39.4481 43.3221 39.255 43.6116 39.062C43.7081 38.9655 43.8046 38.869 43.9011 38.7725C43.9976 38.676 44.0941 38.5795 44.1906 38.3865C44.3837 38.1934 44.4802 38.0004 44.5767 37.8074C44.6732 37.6144 44.7697 37.5179 44.8662 37.3248C45.2522 36.3598 45.5417 35.3947 45.7348 34.4296C45.8313 33.947 45.9278 33.368 46.0243 32.8854C46.0243 32.7889 46.0243 32.7889 46.1208 32.6924L46.2173 32.5959C46.3138 32.4994 46.4103 32.4029 46.5069 32.4994C46.8929 32.5959 47.2789 32.6924 47.7615 32.7889C48.5335 32.8854 49.4021 32.9819 50.1742 33.0784C50.9463 33.175 51.6219 33.1749 52.3939 33.1749C53.8416 33.1749 55.3857 33.175 56.8333 33.0784C56.8333 33.0784 56.8334 33.0784 56.7368 33.0784C58.8601 32.8854 60.9833 32.5959 63.0099 32.1133C65.0366 31.6308 66.9668 31.0517 68.897 30.3762C68.897 30.3762 68.897 30.3762 68.8005 30.3762C70.6342 29.7006 72.4678 28.9285 74.205 27.9634C75.7491 27.0949 77.2933 26.2263 78.7409 25.1647C78.7409 25.1647 78.7409 25.1647 78.6444 25.1647C80.8641 23.6205 82.8908 21.8834 84.5315 19.8567C84.5315 19.8567 84.5315 19.8567 84.5315 19.9532C85.014 19.3741 85.4966 18.6986 85.9791 18.023C86.3652 17.4439 86.7512 16.7684 87.0408 16.0928C87.1373 15.8998 87.2338 15.8033 87.2338 15.6103C86.8477 15.1277 86.4617 14.6452 86.0757 14.1626C85.9791 14.0661 85.7861 13.9696 85.5931 13.9696H85.4966C83.2769 12.522 80.8641 11.4604 78.1619 10.8813C76.5212 10.4953 74.6876 10.3022 72.9504 10.3022C71.9853 10.5918 70.9237 10.5918 69.9586 10.6883Z" fill="#E19695"/>
<path d="M51.4297 44.4667C51.4297 46.3969 52.0087 47.8445 52.8773 47.8445C53.6494 47.8445 54.325 46.3004 54.325 44.4667C54.325 42.633 53.7459 41.0889 52.8773 41.0889C52.0087 41.0889 51.4297 42.5365 51.4297 44.4667Z" fill="#273A51"/>
<path d="M78.9346 43.2112C78.9346 45.1414 79.5136 46.589 80.3822 46.589C81.1543 46.589 81.8298 45.0449 81.8298 43.2112C81.8298 41.281 81.1543 39.8334 80.3822 39.8334C79.5136 39.7369 78.9346 41.281 78.9346 43.2112Z" fill="#273A51"/>
<path d="M81.3469 26.8052C78.6446 26.1296 76.3284 26.3226 76.1354 27.1912C75.9423 28.0598 77.8725 29.3144 80.5748 29.99C83.2771 30.6655 85.5933 30.4725 85.7863 29.6039C85.9793 28.7353 83.9526 27.4807 81.3469 26.8052Z" fill="#273A51"/>
<path d="M67.064 40.3164C66.9675 40.3164 66.7745 40.4129 66.7745 40.6059C66.678 41.8606 66.678 43.0187 66.7745 44.1768C66.871 44.7558 66.9675 45.2384 67.064 45.8174C67.1606 46.3965 67.4501 46.9755 67.6431 47.5546C67.7396 47.6511 67.8361 47.7476 68.0291 47.8441C68.1256 47.8441 68.1257 47.8441 68.2222 47.8441C68.3187 47.8441 68.4152 47.8441 68.5117 47.7476C68.8012 47.5546 68.8977 47.2651 68.7047 46.9755C68.5117 46.493 68.2222 46.107 68.0291 45.6244C67.8361 45.2384 67.7396 44.8523 67.6431 44.4663C67.5466 44.0803 67.4501 43.5977 67.3536 43.0187C67.3536 42.6326 67.2571 42.2466 67.2571 41.8606C67.2571 41.4745 67.2571 41.0885 67.2571 40.7024C67.2571 40.6059 67.2571 40.6059 67.1606 40.5094C67.2571 40.4129 67.1606 40.3164 67.064 40.3164Z" fill="#A66E6D"/>
<path d="M28.3638 43.8872C27.7847 44.0802 27.3022 44.3697 26.8196 44.8523C26.4336 45.2383 26.1441 45.6244 25.8545 46.1069C25.565 46.5894 25.4685 47.072 25.372 47.651C25.2755 48.1336 25.372 48.6161 25.372 49.1952C25.4685 49.7743 25.6615 50.2568 25.758 50.8359C26.4336 52.8625 27.8812 54.5032 29.4254 55.8543C31.1625 57.3985 33.0927 58.6531 35.1194 59.7147C37.2426 60.7763 39.4623 61.6449 41.6821 62.2239C43.8053 62.803 46.1215 63.0925 48.3412 62.996C48.4377 62.996 48.6307 62.996 48.7272 62.8995C48.8237 62.803 48.9203 62.7065 48.9203 62.61C48.9203 62.3205 48.7272 62.1274 48.4377 62.1274C46.797 62.1274 45.0599 62.0309 43.4192 61.6449H43.5157C40.91 61.1623 38.4972 60.2938 36.0845 59.1357C36.0845 59.1357 36.181 59.1357 36.181 59.2322C34.0578 58.1706 32.1276 56.9159 30.2939 55.3718C29.3289 54.5032 28.3638 53.4416 27.5917 52.38C27.2057 51.7044 26.8196 51.0289 26.6266 50.3533C26.4336 49.7742 26.3371 49.2917 26.2406 48.7127C26.2406 48.7127 26.2406 48.7127 26.2406 48.6161C26.2406 48.6161 26.2406 48.6161 26.2406 48.5196C26.2406 48.5196 26.2406 48.5196 26.2406 48.6161C26.2406 48.2301 26.2406 47.8441 26.3371 47.458C26.4336 47.1685 26.5301 46.9755 26.6266 46.686C26.7231 46.3964 26.9161 46.1069 27.1091 45.9139C27.3022 45.7209 27.5917 45.4313 27.8812 45.2383C28.1707 45.0453 28.3638 44.9488 28.6533 44.8523C28.9428 44.7558 29.2324 44.6593 29.6184 44.6593C30.1009 44.6593 30.5835 44.6593 30.9695 44.7558C32.1276 45.0453 33.2857 45.5278 34.4439 46.0104L34.3473 45.9139C35.5055 46.4929 36.5671 47.072 37.6287 47.7476C38.7868 48.4231 39.8484 49.1952 40.91 49.8708C41.9716 50.6428 43.1297 51.3184 44.1913 51.994C45.2529 52.6695 46.411 53.2486 47.5691 53.8276C47.6656 53.9242 47.8587 53.8276 47.9552 53.8276C48.0517 53.7311 48.1482 53.6346 48.2447 53.5381C48.3412 53.4416 48.2447 53.2486 48.2447 53.1521C48.1482 53.0556 48.0517 52.9591 47.9552 52.8626C47.8587 52.766 47.6656 52.766 47.5691 52.6695C47.5691 52.6695 47.5691 52.6695 47.6656 52.6695C45.1564 51.4149 42.7436 49.7743 40.4274 48.2301C38.2077 46.7825 35.8915 45.3348 33.4788 44.3697C32.4172 43.8872 31.2591 43.5977 30.1009 43.5977C29.3289 43.6942 28.8463 43.7907 28.3638 43.8872ZM26.7231 46.4929C26.6266 46.5894 26.6266 46.5894 26.7231 46.4929C26.6266 46.5894 26.6266 46.5894 26.7231 46.4929Z" fill="#FEFEFE"/>
<path d="M24.0203 47.1681C23.8273 47.1681 23.8273 47.1681 23.7308 47.1681C23.6343 47.1681 23.5378 47.2646 23.4412 47.3611C23.2482 47.4576 23.1517 47.7472 23.1517 47.8437C23.1517 47.9402 23.0552 48.1332 23.0552 48.2297C23.0552 48.4227 23.0552 48.6158 23.0552 48.8088C23.0552 49.7739 23.1517 50.8355 23.4412 51.8971C23.7308 52.9587 24.1168 54.0203 24.7924 55.2749C25.3714 56.433 26.24 57.6876 27.2051 59.0388C27.9772 60.1004 28.8458 61.0655 29.7143 62.0306L29.6178 62.1271C29.5213 62.2236 29.5213 62.4166 29.4248 62.5131C28.3632 64.7328 27.1086 66.856 25.854 68.8827C24.5028 70.9094 23.0552 72.9361 21.6075 74.6733C21.511 74.6733 21.5111 74.6733 21.4145 74.6733C21.318 74.7698 21.2215 74.8663 21.125 74.9628C21.125 75.0593 21.125 75.2523 21.125 75.3488C21.7041 76.6035 22.4762 77.7616 23.4412 78.9197C24.5028 80.1743 25.6609 81.2359 26.9156 82.1045C27.4946 82.4905 28.1702 82.8765 28.9423 83.1661C29.6178 83.4556 30.2934 83.6486 31.0655 83.7451C31.4515 83.8416 31.8375 83.8416 32.2236 83.8416C32.6096 83.8416 32.8991 83.8416 33.2852 83.7451C33.9607 83.6486 34.7328 83.4556 35.5049 83.0696C35.5049 83.0696 35.6014 83.0696 35.6014 82.9731C35.7944 82.9731 35.8909 82.8766 35.9875 82.78L36.0839 82.587C37.049 80.7534 38.0141 78.8232 38.8827 76.7965C39.3653 75.6384 39.7513 74.5767 40.0408 73.5151C40.3304 72.4535 40.6199 71.2954 40.7164 70.1373C40.8129 69.0757 40.8129 68.0141 40.6199 66.9525C40.4269 65.8909 40.1373 64.8293 39.5583 63.8642C39.3653 63.4782 39.1722 63.1887 38.9792 62.8991L38.6897 62.5131C38.4002 62.0306 38.1106 61.6445 37.8211 61.162C37.3386 60.3899 36.9525 59.6178 36.663 58.9422C35.9874 57.3981 35.6979 55.6609 35.5049 54.3098C35.4084 53.4412 35.2154 52.6691 34.9258 51.9936C34.8293 51.8006 34.6363 51.6075 34.4433 51.4145C34.2503 51.318 34.0573 51.2215 33.8642 51.2215C33.3817 51.2215 32.9956 51.6075 32.7061 51.8971C32.3201 52.3796 32.0306 52.9587 31.8375 53.4412L31.741 53.5377C31.741 52.9587 31.6445 52.3796 31.6445 51.8006C31.548 51.0285 31.4515 50.1599 31.2585 49.3878C31.162 49.0983 31.0655 48.8088 30.969 48.5193C30.8724 48.3262 30.6794 48.0367 30.4864 47.9402C30.2934 47.7472 30.0039 47.6507 29.6178 47.6507C29.4248 47.6507 29.3283 47.6507 29.2318 47.6507C29.1353 47.6507 29.0388 47.7472 28.8457 47.8437C28.3632 48.2297 28.0737 48.8088 27.9772 49.2913C27.8807 49.5808 27.7842 49.9669 27.7842 50.2564C27.6877 50.6425 27.6876 51.0285 27.6876 51.4145C27.6876 51.8971 27.6876 52.3796 27.6876 52.7657C27.6876 52.6691 27.5911 52.5726 27.4946 52.3796L27.3981 52.1866C27.1086 51.6075 26.8191 51.0285 26.5295 50.5459C26.24 49.9669 25.854 49.2913 25.4679 48.6158C25.2749 48.3262 25.1784 48.1332 24.9854 47.8437C24.7924 47.6507 24.6958 47.4576 24.5028 47.2646C24.3098 47.0716 24.1168 46.9751 23.9238 46.9751C24.1168 47.1681 24.1168 47.1681 24.0203 47.1681Z" fill="#ED9E9D"/>
<path d="M32.1276 54.021C32.0311 54.021 31.9346 54.1175 31.9346 54.3105C31.9346 54.6966 32.0311 55.0826 32.0311 55.4686C32.1276 55.7582 32.2241 56.1442 32.3206 56.4337C32.5136 57.1093 32.8997 57.6884 33.2857 58.2674C33.3822 58.3639 33.4787 58.3639 33.6717 58.3639C33.7682 58.2674 33.7682 58.1709 33.7682 58.0744C33.5752 57.7849 33.3822 57.5918 33.2857 57.3023C33.1892 57.1093 33.0927 56.8198 32.9962 56.6267C32.8997 56.3372 32.8031 56.0477 32.7066 55.7582C32.7066 55.5651 32.6101 55.3721 32.6101 55.1791C32.6101 54.8896 32.5136 54.6966 32.5136 54.407C32.3206 54.1175 32.2241 54.021 32.1276 54.021Z" fill="#C58382"/>
<path d="M68.7046 61.7412C68.222 61.7412 67.7395 61.7412 67.1604 61.8377C65.7128 62.0307 64.2651 62.4168 62.8175 63.0923C61.8524 63.5749 60.8873 64.0574 60.0187 64.733C59.5362 65.119 59.0536 65.5051 58.7641 65.9876C58.7641 65.8911 58.7641 65.7946 58.6676 65.6981C58.5711 65.6016 58.4746 65.5051 58.2816 65.5051C58.0885 65.5051 57.992 65.6016 57.8955 65.6981C57.799 65.7946 57.799 65.8911 57.799 65.9876C57.799 68.2073 57.7025 69.9445 57.413 71.5852V71.4887C57.1235 72.8398 56.7374 74.0944 56.1584 75.2525C55.6758 76.1211 55.0968 76.9897 54.5177 77.7618L54.6142 77.6652C53.9387 78.4373 53.1666 79.1129 52.298 79.6919L52.2015 79.7884C51.8155 79.9815 51.4294 80.271 51.0434 80.464C50.8503 80.5605 50.7539 80.85 50.8504 81.1396C50.9469 81.2361 51.0434 81.3326 51.1399 81.3326C51.2364 82.2012 51.4294 83.0698 51.7189 83.9383C52.0085 84.8069 52.491 85.6755 53.0701 86.5441C54.1317 88.0882 55.5793 89.6324 57.5095 90.9835C59.2467 92.2381 61.0803 93.2032 63.2035 93.8788C64.1686 94.1683 65.1337 94.4579 66.0988 94.5544C66.7744 94.6509 67.3534 94.6509 68.029 94.6509C68.3185 94.6509 68.6081 94.6509 68.8976 94.6509C70.4417 94.5544 71.9859 94.0718 73.53 93.2997C74.8812 92.6242 76.2323 91.6591 77.4869 90.308C78.645 89.1498 79.6101 87.7987 80.4787 86.2546C81.2508 84.7104 81.8298 83.1663 82.2159 81.5256C82.2159 81.4291 82.2159 81.3326 82.2159 81.2361C82.3124 80.9466 82.2159 80.657 81.9263 80.5605C81.4438 80.3675 80.9612 80.1745 80.5752 79.9815C79.7066 79.5954 78.9346 79.0164 78.259 78.4373C77.5834 77.8583 77.1009 77.2792 76.6183 76.6036C76.0393 75.8316 75.5567 74.8665 75.2672 73.9014C74.7847 72.5503 74.4951 71.1026 74.3986 69.3654V69.462C74.3986 68.9794 74.3986 68.5934 74.3986 68.1108C74.5916 67.3388 74.5917 66.6632 74.5917 65.9876C74.4951 65.3121 74.3986 64.733 74.0126 64.1539C73.9161 63.9609 73.7231 63.6714 73.53 63.4784C73.337 63.1889 73.0475 62.9958 72.8545 62.8993C72.4684 62.6098 71.8894 62.3203 71.3103 62.1272C70.7313 61.9342 70.1522 61.8377 69.3801 61.8377C68.9941 61.7412 68.8011 61.7412 68.7046 61.7412Z" fill="#ED9E9D"/>
<path d="M67.0635 61.8375C65.6159 62.0305 64.1683 62.4166 62.7206 63.0921C61.7555 63.5747 60.7904 64.0572 59.9218 64.7328C59.4393 65.1188 58.9568 65.5049 58.6672 65.9874C58.6672 65.8909 58.6672 65.7944 58.5707 65.6979C58.4742 65.6014 58.3777 65.5049 58.1847 65.5049C57.9917 65.5049 57.8951 65.6014 57.7986 65.6979L57.7021 65.7944C57.8952 66.1804 58.0882 66.5665 58.3777 66.9525V66.856C58.6672 67.242 58.9567 67.7246 59.2463 68.0141C59.5358 68.4002 59.9218 68.7862 60.3079 69.0757C61.08 69.7513 62.0451 70.3303 62.9136 70.8129C63.8787 71.2954 64.9403 71.6815 66.0019 71.8745C66.0019 71.8745 66.0019 71.8745 65.9054 71.8745C66.967 72.0675 68.0286 72.164 69.1867 72.164C70.1518 72.0675 71.1169 71.971 72.082 71.6815C72.5646 71.4885 73.0471 71.3919 73.4331 71.1024C73.7227 70.9094 74.0122 70.8129 74.3017 70.6199C74.2052 70.1373 74.2052 69.7513 74.1087 69.2687V69.3652V68.9792C74.1087 68.6897 74.1087 68.4002 74.1087 68.1106C74.3017 67.3386 74.3017 66.5665 74.3017 65.9874C74.2052 65.3119 74.1087 64.7328 73.7227 64.1537C73.6262 63.9607 73.4331 63.6712 73.2401 63.4782C73.0471 63.1887 72.7576 62.9956 72.5646 62.8991C72.1785 62.6096 71.5995 62.3201 70.9239 62.127C70.3448 61.934 69.7658 61.8375 68.9937 61.8375C68.8007 61.8375 68.7042 61.8375 68.5112 61.8375C68.2216 61.741 67.6426 61.741 67.0635 61.8375Z" fill="#E19695"/>
<path d="M51.8151 79.1129C51.7186 79.1129 51.6221 79.1129 51.6221 79.2095C49.5954 80.3676 47.4722 81.6222 45.4455 82.7803L41.5851 85.0965C41.3921 85.193 41.2956 85.4826 41.2956 85.6756V85.7721C41.5851 88.2813 41.5851 90.7906 41.4886 93.4928V93.5893C41.1991 98.0288 40.5235 102.468 39.848 106.811C39.5584 108.355 39.3654 109.899 39.1724 111.54C38.8828 113.277 38.7863 114.725 38.5933 116.076C38.4968 116.848 38.4003 117.524 38.4003 118.296C38.4003 118.778 38.3038 119.164 38.4003 119.55C38.4003 120.226 38.4968 120.998 38.6898 121.77C38.8828 122.446 39.0759 123.025 39.4619 123.7C40.0409 124.858 41.0061 125.92 42.1642 126.885C43.2258 127.754 44.5769 128.526 46.1211 129.105C47.4722 129.684 49.1128 130.166 50.9465 130.649C52.4907 131.035 54.2278 131.324 56.0615 131.517C58.8603 131.904 61.8521 132 65.2299 132H65.7124C67.8356 132 69.6693 131.904 71.503 131.807C74.3983 131.614 77.3901 131.131 80.7679 130.456C82.119 130.166 83.6632 129.877 85.2073 129.394L85.8829 129.201C86.7514 129.008 87.7165 128.719 88.5851 128.429C89.7432 128.043 90.7083 127.561 91.3839 126.982C91.7699 126.692 92.156 126.306 92.4455 125.823C92.8315 125.341 93.1211 124.858 93.4106 124.183C93.8931 123.121 94.1827 121.867 94.3757 120.515C94.5687 119.357 94.5687 118.103 94.5687 116.559C94.4722 113.856 93.9896 111.251 93.6036 108.645V108.452C92.8315 104.012 91.9629 99.5729 91.0944 95.809L90.7083 94.2649L90.3223 92.7208C90.1293 91.6591 89.8397 90.694 89.6467 89.6324C89.5502 89.0534 89.4537 88.5708 89.3572 87.9918C89.0677 86.4476 88.7781 84.9035 88.3921 83.3593C88.3921 83.2628 88.2956 83.1663 88.1026 83.0698C88.0061 83.0698 88.0061 83.0698 87.9096 83.0698C87.9096 82.9733 87.7165 82.8768 87.62 82.7803C86.0759 82.2012 84.6282 81.5257 83.1806 80.7536C82.312 80.271 81.4434 79.7885 80.5748 79.2095C80.4783 79.1129 80.3818 79.1129 80.2853 79.1129C80.1888 79.1129 80.1888 79.1129 80.0923 79.1129C79.8993 79.1129 79.7063 79.2094 79.7063 79.4025C79.5133 79.885 79.2237 80.2711 78.9342 80.6571C78.4517 81.2361 77.8726 81.8152 77.3901 82.2977C76.9075 82.6838 76.5215 83.0698 76.0389 83.4559C74.9773 84.3244 73.7227 85 72.3716 85.5791H72.275C70.8274 86.1581 69.2833 86.6407 67.6426 86.8337C66.8705 86.9302 66.0985 86.9302 65.3264 86.9302C64.5543 86.9302 63.7823 86.8337 63.0102 86.7372C61.5625 86.5441 60.2114 86.1581 59.0533 85.6756C57.9917 85.193 56.9301 84.614 56.0615 83.9384C55.1929 83.2628 54.4208 82.4908 53.7453 81.6222C53.1662 80.8501 52.6837 80.078 52.2976 79.2095C52.2011 79.0164 52.1046 78.9199 51.9116 78.9199C51.9116 79.1129 51.8151 79.1129 51.8151 79.1129Z" fill="#AFC8E2"/>
<path d="M45.3489 82.7807L41.4885 85.0969C41.2955 85.1934 41.199 85.483 41.199 85.676V85.7725C41.4885 88.2817 41.4885 90.791 41.392 93.4932V93.5897C41.1025 98.0292 40.4269 102.469 39.7513 106.812C39.4618 108.356 39.2688 109.9 39.0758 111.54C38.7862 113.278 38.6897 114.725 38.4967 116.076C38.4002 116.848 38.3037 117.524 38.3037 118.296C38.3037 118.779 38.3037 119.165 38.3037 119.551C38.3037 120.323 38.4002 121.095 38.5932 121.77C38.7862 122.446 38.9793 123.025 39.3653 123.701C39.9444 124.859 40.9095 125.92 42.0676 126.885C43.1292 127.754 44.4803 128.526 46.0245 129.105C47.3756 129.684 49.0162 130.167 50.8499 130.649C52.3941 131.035 54.1312 131.325 55.9649 131.518C56.737 131.614 57.4126 131.711 58.1846 131.711C58.0881 131.614 57.8951 131.518 57.7986 131.325C56.737 130.36 55.8684 129.298 55.0963 128.044C53.4557 125.631 52.3941 122.832 51.622 120.033C50.7534 116.945 50.3674 113.857 49.9813 110.672C49.5953 107.391 49.4023 104.013 49.2092 100.635C49.0162 97.3536 48.7267 94.0723 48.3407 90.791C48.3407 90.791 48.3407 90.791 48.3407 90.8875C47.9546 87.8957 47.3756 84.8074 46.314 81.9121C46.0244 82.3947 45.7349 82.5877 45.3489 82.7807Z" fill="#A5BDD6"/>
<path d="M51.7192 78.534C51.5262 78.6305 51.4296 78.92 51.5261 79.2096C52.6843 81.1398 54.1319 82.9734 55.8691 84.3246C56.7376 85.0001 57.6062 85.4827 58.4748 85.9652C59.4399 86.4478 60.405 86.7373 61.3701 86.9303C63.4933 87.4129 65.713 87.5094 67.8362 87.2198C68.9943 87.1233 70.1524 86.8338 71.3105 86.5443C72.4687 86.2547 73.5303 85.8687 74.5919 85.3862C75.943 84.8071 77.1976 83.9385 78.2592 82.9734C79.4173 82.0083 80.2859 80.7537 80.9615 79.4026C81.058 79.3061 81.058 79.2096 81.058 79.0165C81.058 78.92 80.9615 78.8235 80.865 78.727C80.672 78.6305 80.2859 78.6305 80.1894 78.92C79.8999 79.5956 79.5138 80.1747 79.1278 80.7537C78.5487 81.5258 77.8732 82.2014 77.1011 82.7804C76.0395 83.5525 74.9779 84.2281 73.7233 84.7106H73.6268C71.7931 85.4827 69.9594 85.8687 68.0292 86.1582H68.1257C66.3886 86.3513 64.7479 86.4478 63.0108 86.1582H63.1073C61.8526 85.9652 60.598 85.6757 59.3434 85.1931C58.2818 84.7106 57.3167 84.1315 56.3516 83.456C55.3865 82.6839 54.5179 81.8153 53.7459 80.8502C53.1668 80.1747 52.6843 79.4026 52.2982 78.6305C52.2017 78.4375 52.0087 78.4375 51.9122 78.4375C51.8157 78.534 51.7192 78.534 51.7192 78.534ZM53.8424 80.9467C53.8424 81.0432 53.8424 81.0432 53.8424 80.9467V80.9467ZM73.6268 84.9036C73.6268 84.8071 73.6268 84.8071 73.6268 84.9036C73.6268 84.8071 73.6268 84.9036 73.6268 84.9036Z" fill="#A5BDD6"/>
<path d="M44.5771 82.5874C44.3841 82.5874 44.2875 82.5874 44.2875 82.6839L43.0329 83.263C38.9796 85.1931 34.8297 87.2198 31.5483 90.4046C30.7763 91.1767 30.1007 92.0453 29.3286 93.1069C28.7496 93.879 28.267 94.7476 27.688 95.7127C26.5299 97.6428 25.5648 99.573 24.7927 101.6C23.9241 103.723 23.3451 105.846 22.959 107.969C22.573 110.189 22.4765 112.312 22.766 114.339C23.0555 116.462 23.7311 118.489 24.8892 120.226C26.1438 122.253 27.9775 123.99 30.0042 125.051C31.5483 125.92 33.2855 126.403 35.5052 126.789C37.4354 127.078 39.3656 127.175 41.0062 127.175H41.1993L41.2958 127.271C41.3923 127.271 41.4888 127.368 41.5853 127.368C41.7783 127.368 41.9713 127.271 41.9713 127.078C43.0329 124.858 43.9015 122.542 44.5771 120.033C45.1562 117.717 45.6387 115.208 46.0247 112.409C46.6038 107.776 46.7003 102.661 46.3143 96.4847C46.0247 91.9488 45.6387 87.4129 45.1562 83.0699C45.1562 82.9734 45.1561 82.7804 44.9631 82.6839C44.8666 82.6839 44.7701 82.5874 44.5771 82.5874Z" fill="#9F3B56"/>
<path d="M83.7598 80.7534C83.9528 80.7534 84.0493 80.7534 84.0493 80.8499L85.3039 81.429C89.3573 83.4557 93.5073 85.5789 96.7886 89.0532C97.5606 89.8253 98.2362 90.7904 99.0083 91.9485C99.5873 92.8171 100.07 93.6857 100.649 94.7473C101.807 96.774 102.772 98.8972 103.544 101.02C104.413 103.24 104.992 105.556 105.378 107.776C105.764 110.092 105.86 112.408 105.571 114.532C105.281 116.751 104.606 118.971 103.448 120.805C102.193 123.024 100.359 124.762 98.3327 125.92C96.7885 126.788 95.0514 127.367 92.8317 127.753C90.9015 128.043 88.9713 128.139 87.3306 128.139H87.1376L87.0411 128.236C86.9446 128.236 86.8481 128.332 86.7516 128.332C86.5586 128.332 86.3655 128.236 86.3655 128.043C85.3039 125.727 84.4354 123.217 83.7598 120.515C83.1808 118.103 82.6982 115.4 82.3122 112.408C81.7331 107.486 81.6366 102.082 82.0226 95.5193C82.3122 90.6939 82.6982 85.8684 83.1808 81.236C83.1808 81.0429 83.1807 80.9464 83.3738 80.8499C83.5668 80.8499 83.6633 80.7534 83.7598 80.7534Z" fill="#9F3B56"/>
<path d="M28.2671 53.4414C28.1706 53.4414 28.1706 53.4414 28.0741 53.5379C28.0741 53.5379 27.9775 53.6344 27.9775 53.7309C28.074 54.117 28.1706 54.503 28.2671 54.889C28.3636 55.2751 28.5566 55.6611 28.7496 56.0472C29.1357 56.8192 29.5217 57.4948 30.0042 58.1704C30.1007 58.2669 30.1972 58.2669 30.2938 58.2669C30.3903 58.1704 30.3903 58.0738 30.3903 57.9773C30.1007 57.5913 29.8112 57.1088 29.5217 56.6262C29.3287 56.2402 29.1357 55.7576 28.9426 55.2751C28.7496 54.7925 28.6531 54.31 28.4601 53.924C28.4601 53.924 28.4601 53.924 28.4601 54.0205C28.4601 53.924 28.3636 53.8274 28.3636 53.7309C28.3636 53.6344 28.3636 53.6344 28.2671 53.5379C28.3636 53.4414 28.3636 53.4414 28.2671 53.4414Z" fill="#C58382"/>
<path d="M25.2753 69.9448C25.0823 69.9448 24.7928 69.9448 24.5998 69.9448C24.3102 69.9448 23.9242 70.0413 23.5381 70.1378C23.2486 70.2343 22.9591 70.3309 22.5731 70.5239C21.994 70.8134 21.415 71.3925 21.0289 72.068C20.6429 72.7436 20.3533 73.5157 20.2568 74.5773C20.2568 74.8668 20.4498 75.0598 20.6429 75.1563C20.9324 75.1563 21.1254 74.9633 21.2219 74.7703L21.3184 74.9633L21.415 75.1563C21.7045 75.5424 21.994 75.9284 22.2835 76.2179C22.9591 76.99 23.6347 77.7621 24.4068 78.5341C26.1439 80.3678 27.8811 81.8155 29.5217 82.8771C30.4868 83.4561 31.3554 83.9387 32.224 84.3247C33.1891 84.7107 34.0577 84.9038 34.9263 84.9038C35.4088 84.9038 35.8913 84.9038 36.2774 84.8072C36.7599 84.7107 37.146 84.5177 37.532 84.2282C37.8215 84.0352 38.1111 83.7457 38.3041 83.4561C38.4971 83.1666 38.6901 82.7806 38.7866 82.298C38.9796 81.5259 38.9797 80.7539 38.8831 79.7888C38.6901 78.9202 38.4006 78.0516 38.0145 77.2795C37.8215 76.8935 37.6285 76.604 37.4355 76.3144C37.2425 76.1214 37.0495 75.8319 36.8564 75.6389C36.4704 75.1563 35.9879 74.7703 35.4088 74.2877C34.2507 73.3226 32.8996 72.5506 31.4519 71.7785C29.9078 71.0064 28.3636 70.4274 26.916 70.2344C26.4334 70.0413 25.8544 69.9448 25.2753 69.9448Z" fill="#7F2F44"/>
<path d="M21.801 73.033C21.801 73.033 21.8975 73.033 21.801 73.033C21.608 73.033 21.3185 73.033 21.0289 73.1295C20.1604 73.5156 19.3883 73.9016 18.5197 74.5772C18.1337 74.7702 17.8441 74.9632 17.4581 75.1562C15.8174 76.1213 14.1768 77.3759 12.4396 79.0166C10.992 80.4642 9.54433 82.1049 8.1932 84.1316C7.03508 85.7722 5.87699 87.6059 4.62237 89.7291C4.13982 90.5977 3.65728 91.5628 3.17473 92.5279C2.78869 93.2035 2.49917 93.9755 2.20964 94.7476C1.05153 97.8359 0.47246 101.31 0.568969 104.785C0.568969 106.425 0.858503 108.162 1.14803 109.803C1.53407 111.444 2.0166 112.891 2.78867 114.242C3.56075 115.69 4.42935 116.848 5.49095 117.91C6.55255 118.971 7.80716 119.84 9.15829 120.419C9.83385 120.709 10.6059 120.902 11.4745 121.095C12.2466 121.288 13.0187 121.384 13.9838 121.384C14.0803 121.384 14.2733 121.384 14.3698 121.384C15.1419 121.384 15.9139 121.288 16.7825 121.191C17.8441 120.998 18.8092 120.805 19.6778 120.516C21.3185 120.033 22.8626 119.164 24.4068 118.006C25.7579 116.945 27.109 115.594 28.3636 113.953C29.5217 112.505 30.5834 110.865 31.645 108.838C32.6101 107.101 33.3821 105.267 34.2507 103.144C35.6018 99.5731 36.7599 95.8092 37.532 91.8523C37.725 90.9837 37.8216 90.2117 37.9181 89.3431C38.1111 88.378 38.1111 87.3164 38.1111 86.2548C38.1111 85.4827 38.1111 84.7106 38.0146 83.9386C37.918 83.5525 37.8215 83.07 37.6285 82.684C37.146 81.6223 36.5669 80.5608 35.8914 79.5957C35.8914 79.5957 35.8914 79.5957 35.8914 79.6922C35.5053 79.1131 35.0228 78.5341 34.5402 77.955C34.0577 77.4725 33.6717 76.9899 33.0926 76.5074C32.7066 76.1213 32.224 75.7353 31.7415 75.4458C31.2589 75.1562 30.7764 74.8667 30.2938 74.5772C29.7148 74.2877 29.1357 74.0946 28.5567 73.8051C27.8811 73.6121 27.302 73.4191 26.6265 73.3226C25.8544 73.226 25.1788 73.1295 24.4068 73.033C23.9242 73.033 23.3452 72.9365 22.8626 72.9365C22.4766 72.9365 22.187 72.9365 21.801 73.033Z" fill="#AD405E"/>
<path d="M21.8013 73.033C21.8013 73.033 21.8978 73.033 21.8013 73.033C21.5117 73.033 21.2222 73.1295 20.9327 73.1295C20.6432 73.226 20.3536 73.3226 20.0641 73.5156C18.0374 74.3842 16.1072 75.6388 14.7561 77.2794C14.5631 77.4725 14.5631 77.762 14.7561 77.955C14.9491 78.148 15.2386 78.148 15.4316 77.955C15.8177 77.569 16.2037 77.1829 16.5898 76.7969C17.5549 75.9283 18.6164 75.2527 19.7746 74.6737C20.8362 74.1911 21.8978 73.8051 23.0559 73.5156C23.9244 73.3226 24.6965 73.3226 25.5651 73.3226C25.5651 73.3226 25.5651 73.3226 25.6616 73.3226C25.6616 73.3226 25.6616 73.3226 25.7581 73.3226C26.0477 73.3226 26.2407 73.3226 26.4337 73.4191C26.5302 73.4191 26.7232 73.4191 26.8197 73.3226H26.7232C25.9512 73.226 25.2756 73.1295 24.5035 73.033C24.021 73.033 23.5384 72.9365 22.9594 72.9365C22.5733 72.9365 22.1873 72.9365 21.8013 73.033Z" fill="#AD405E"/>
<path d="M21.8972 73.1294C20.2566 73.6119 18.8089 74.384 17.3613 75.3491C15.9137 76.3142 14.659 77.4723 13.4044 78.7269C13.2114 78.92 13.3079 79.2095 13.4044 79.4025C13.5009 79.499 13.5975 79.499 13.7905 79.499C13.887 79.499 13.9835 79.4025 14.08 79.306C14.5625 78.8234 15.0451 78.4374 15.5276 77.9549C15.5276 77.9549 15.6241 77.9549 15.6241 77.8583C16.9753 76.7002 18.5194 75.5421 20.1601 74.77C20.8356 74.4805 21.5112 74.191 22.1868 73.998C22.4763 73.9015 22.5728 73.6119 22.4763 73.4189C22.3798 73.2259 22.1868 73.1294 21.9938 73.1294C21.9938 73.1294 21.9938 73.1294 21.8972 73.1294Z" fill="#AD405E"/>
<path d="M19.0984 74.2876C17.9403 74.7701 16.9752 75.3492 16.0101 76.1213C15.045 76.8933 14.0799 77.7619 13.3078 78.727C13.1148 78.92 13.1148 79.2096 13.3078 79.4026C13.5009 79.5956 13.7904 79.5956 13.9834 79.3061C14.5625 78.6305 15.1415 78.0515 15.8171 77.4724C16.6857 76.7003 17.6507 76.0248 18.7123 75.5422C18.9054 75.4457 19.1949 75.3492 19.3879 75.2527C19.6775 75.1562 19.7739 74.8666 19.6774 74.6736C19.5809 74.4806 19.3879 74.3841 19.1949 74.3841C19.1949 74.2876 19.0984 74.2876 19.0984 74.2876Z" fill="#AD405E"/>
<path d="M18.3263 74.5771C17.3612 75.0596 16.3961 75.6387 15.5276 76.3142C14.659 76.9898 13.7904 77.8584 13.0183 78.727C12.8253 78.92 12.8253 79.2095 13.1148 79.4025C13.3078 79.5956 13.5974 79.5956 13.7904 79.4025C14.2729 78.727 14.852 78.1479 15.431 77.6654C16.4926 76.7968 17.6508 76.0247 18.8089 75.4457C18.9054 75.3491 19.0019 75.2526 19.0019 75.1561C19.0019 75.0596 19.0019 74.8666 18.9054 74.7701C18.8089 74.6736 18.7124 74.5771 18.6159 74.5771H18.5193C18.5193 74.4806 18.4228 74.5771 18.3263 74.5771ZM15.5276 77.5689C15.5276 77.5689 15.431 77.6654 15.5276 77.5689C15.431 77.6654 15.5276 77.5689 15.5276 77.5689Z" fill="#AD405E"/>
<path d="M17.844 74.7703C16.2033 75.8319 14.5626 76.9901 13.4045 78.5342C13.2115 78.7272 13.2115 79.0168 13.4045 79.2098C13.5975 79.4028 13.8871 79.4028 14.0801 79.1133C14.5627 78.5342 15.1417 77.9552 15.6243 77.4726L15.5277 77.5691C16.3963 76.797 17.3614 76.1215 18.3265 75.5424C18.5195 75.4459 18.616 75.0599 18.423 74.8669C18.3265 74.7703 18.1335 74.6738 18.037 74.6738C18.037 74.6738 17.9405 74.7703 17.844 74.7703Z" fill="#AD405E"/>
<path d="M18.0375 74.77C17.6515 74.963 17.1689 75.156 16.7829 75.3491C16.3003 75.6386 15.9143 75.9281 15.5282 76.2176C14.7562 76.7967 14.0806 77.5688 13.405 78.3408C13.212 78.5339 13.212 78.8234 13.5015 79.0164C13.6946 79.2094 13.9841 79.2094 14.1771 78.9199C14.6597 78.3408 15.1422 77.7618 15.7213 77.2792C16.3968 76.7002 17.1689 76.2176 17.941 75.7351C18.0375 75.6386 18.2305 75.6386 18.327 75.5421C18.4235 75.4456 18.52 75.4456 18.6166 75.2525C18.7131 75.156 18.7131 74.963 18.6166 74.8665C18.52 74.6735 18.327 74.4805 18.134 74.4805C18.134 74.77 18.0375 74.77 18.0375 74.77ZM17.941 75.8316C17.8445 75.9281 17.8445 75.9281 17.941 75.8316C17.8445 75.9281 17.8445 75.9281 17.941 75.8316ZM15.7213 77.2792C15.7213 77.2792 15.7213 77.3758 15.7213 77.2792C15.7213 77.3758 15.7213 77.2792 15.7213 77.2792Z" fill="#AD405E"/>
<path d="M17.7478 74.7703C16.9757 75.2529 16.2036 75.7354 15.5281 76.3145C14.8525 76.8936 14.1769 77.5691 13.5979 78.2447C13.4049 78.4377 13.4049 78.7272 13.5979 78.9202C13.7909 79.1133 14.0804 79.1133 14.2735 78.8237C14.6595 78.3412 15.142 77.8586 15.6246 77.3761C16.3967 76.7005 17.2652 76.1215 18.2303 75.5424C18.4233 75.4459 18.5199 75.0599 18.3268 74.8669C18.2303 74.7703 18.0373 74.6738 17.9408 74.6738C17.9408 74.6738 17.8443 74.6738 17.7478 74.7703Z" fill="#AD405E"/>
<path d="M18.0374 74.6736C17.0724 75.1562 16.2038 75.7353 15.3352 76.4108C14.5631 77.0864 13.791 77.8585 13.1155 78.6305C12.9224 78.8236 12.9224 79.1131 13.1155 79.3061C13.3085 79.4991 13.598 79.4991 13.791 79.3061C14.3701 78.6305 15.0457 77.955 15.7212 77.3759C16.5898 76.6038 17.5549 75.9283 18.52 75.4457C18.6165 75.3492 18.713 75.2527 18.713 75.1562C18.713 75.0597 18.713 74.8667 18.6165 74.7702C18.52 74.6737 18.4235 74.5771 18.327 74.5771H18.2304C18.2304 74.5771 18.134 74.5771 18.0374 74.6736Z" fill="#AD405E"/>
<path d="M17.7472 74.8665C15.817 75.9281 13.9834 77.2793 12.7287 79.0164C12.5357 79.2094 12.5357 79.499 12.7287 79.692C12.9218 79.885 13.2113 79.885 13.4043 79.692C13.8868 79.0164 14.4659 78.3409 15.1415 77.7618C16.1066 76.8932 17.1682 76.2177 18.2298 75.6386C18.3263 75.5421 18.4228 75.4456 18.4228 75.3491C18.4228 75.2526 18.4228 75.0595 18.3263 74.963C18.2298 74.8665 18.1333 74.77 18.0368 74.77H17.9402C17.8437 74.77 17.8437 74.8665 17.7472 74.8665Z" fill="#AD405E"/>
<path d="M16.4933 75.7352C14.9491 76.7003 13.6945 77.9549 12.5364 79.306C12.3433 79.499 12.3433 79.7886 12.5364 79.9816C12.7294 80.1746 13.0189 80.1746 13.2119 79.8851C13.8875 79.113 14.5631 78.4375 15.2386 77.7619L15.1421 77.8584C15.7212 77.3758 16.3002 76.8933 16.9758 76.5073C17.1688 76.4108 17.2653 76.0247 17.0723 75.8317C16.9758 75.7352 16.7828 75.6387 16.6863 75.6387C16.6863 75.6387 16.5898 75.7352 16.4933 75.7352Z" fill="#AD405E"/>
<path d="M13.8872 77.6653C13.4047 78.0514 12.9221 78.5339 12.4396 78.92C10.992 80.3676 9.54433 82.0083 8.1932 84.0349C7.03508 85.6756 5.87699 87.5093 4.62237 89.6325C4.13982 90.5011 3.65728 91.4662 3.17473 92.4312C2.78869 93.2033 2.49917 93.8789 2.20964 94.651C1.05153 97.7393 0.47246 101.214 0.568969 104.688C0.568969 106.329 0.858503 108.066 1.14803 109.706C1.53407 111.347 2.0166 112.795 2.78867 114.146C3.56075 115.593 4.42935 116.752 5.49095 117.813C6.55255 118.875 7.80716 119.743 9.15829 120.322C9.83385 120.612 10.6059 120.805 11.4745 120.998C12.2466 121.191 13.0187 121.288 13.9838 121.288C14.0803 121.288 14.2733 121.288 14.3698 121.288C15.1419 121.288 15.9139 121.191 16.7825 121.094C17.8441 120.901 18.8092 120.708 19.6778 120.419C20.3534 120.226 21.1254 119.936 21.801 119.55C20.9324 119.55 20.0638 119.357 19.2918 119.261C18.3267 119.068 17.3616 118.778 16.493 118.392C15.6244 118.006 14.7558 117.524 13.8872 116.945C13.4047 116.655 13.0187 116.366 12.6326 115.98C12.2466 115.69 11.8605 115.304 11.571 114.918C10.8955 114.146 10.2199 113.277 9.64083 112.409C9.06178 111.444 8.57923 110.478 8.1932 109.417C7.80716 108.355 7.51763 107.294 7.2281 106.232C6.74556 104.012 6.55253 101.696 6.64904 99.3799C6.74555 96.9672 7.13159 94.5544 7.71065 92.1417C8.28971 89.729 9.06177 87.4128 10.0269 85.1931C10.992 82.9733 12.0536 80.8501 13.4047 78.8234C13.6942 78.3409 14.0803 77.7618 14.3698 77.2793C14.0803 77.3758 13.9837 77.5688 13.8872 77.6653Z" fill="#9F3B56"/>
<path d="M101.422 43.6938C102.001 43.8868 102.483 44.1764 102.966 44.6589C103.352 45.045 103.641 45.431 103.931 45.9135C104.22 46.3961 104.317 46.8786 104.413 47.4577C104.51 47.9402 104.413 48.4228 104.413 49.0018C104.317 49.5809 104.124 50.0634 103.931 50.6425C103.255 52.6692 101.808 54.3098 100.263 55.661C98.5262 57.2051 96.5961 58.4597 94.5694 59.5213C92.4462 60.5829 90.2265 61.4515 88.0068 62.0306C85.8835 62.6096 83.5673 62.8992 81.3476 62.8027C81.2511 62.8027 81.0581 62.8027 80.9616 62.7062C80.865 62.6096 80.7686 62.5131 80.7686 62.4166C80.7686 62.1271 80.9616 61.9341 81.2511 61.9341C82.8918 61.9341 84.6289 61.8376 86.2696 61.4515H86.1731C88.7788 60.969 91.1915 60.1004 93.6043 58.9423C93.6043 58.9423 93.5078 58.9423 93.5078 59.0388C95.631 57.9772 97.5612 56.7226 99.3948 55.1784C100.36 54.3098 101.325 53.2482 102.097 52.1866C102.483 51.5111 102.869 50.8355 103.062 50.1599C103.255 49.5809 103.352 49.0983 103.448 48.5193C103.448 48.5193 103.448 48.5193 103.448 48.4228C103.448 48.4228 103.448 48.4228 103.448 48.3263C103.448 48.3263 103.448 48.3263 103.448 48.4228C103.448 48.0367 103.448 47.6507 103.352 47.2647C103.255 46.9751 103.159 46.7821 103.062 46.4926C102.869 46.2031 102.773 45.9135 102.58 45.7205C102.387 45.5275 102.097 45.238 101.808 45.045C101.518 44.8519 101.325 44.7554 101.036 44.6589C100.746 44.5624 100.456 44.4659 100.07 44.4659C99.5879 44.4659 99.1053 44.4659 98.7193 44.5624C97.5612 44.8519 96.4031 45.3345 95.2449 45.817L95.3415 45.7205C94.1834 46.2996 93.1217 46.8786 92.0601 47.5542C90.902 48.2298 89.8404 49.0018 88.7788 49.6774C87.7172 50.4495 86.5591 51.125 85.4975 51.8006C84.4359 52.4762 83.2778 53.0552 82.1197 53.6343C82.0232 53.7308 81.8302 53.6343 81.7336 53.6343C81.6371 53.5378 81.5406 53.4413 81.4441 53.3448C81.3476 53.2482 81.4441 53.0552 81.4441 52.9587C81.5406 52.8622 81.6371 52.7657 81.7336 52.6692C81.8302 52.5727 82.0232 52.5727 82.1197 52.4762C82.1197 52.4762 82.1197 52.4762 82.0232 52.4762C84.5324 51.2215 86.9451 49.5809 89.2614 48.0367C91.4811 46.5891 93.7973 45.1415 96.21 44.1764C97.2716 43.6938 98.4298 43.4043 99.5879 43.4043C100.456 43.5008 100.939 43.5973 101.422 43.6938ZM103.062 46.2996C103.062 46.3961 103.062 46.3961 103.062 46.2996C103.062 46.3961 103.062 46.3961 103.062 46.2996Z" fill="#FEFEFE"/>
<path d="M105.764 46.8786C105.957 46.8786 105.957 46.8786 106.054 46.8786C106.15 46.8786 106.247 46.9751 106.343 47.0716C106.536 47.1681 106.633 47.4576 106.633 47.5541C106.633 47.6506 106.729 47.8437 106.729 47.9402C106.729 48.1332 106.729 48.3262 106.729 48.5192C106.729 49.4843 106.633 50.5459 106.343 51.6075C106.054 52.6691 105.668 53.7307 104.992 54.9853C104.413 56.1435 103.545 57.3981 102.58 58.7492C101.808 59.8108 100.939 60.7759 100.07 61.741L100.167 61.8375C100.263 61.934 100.263 62.127 100.36 62.2235C101.421 64.4433 102.676 66.5665 103.931 68.5932C105.282 70.7164 106.729 72.6465 108.177 74.3837C108.274 74.3837 108.274 74.3837 108.37 74.3837C108.467 74.4802 108.563 74.5767 108.66 74.6732C108.66 74.7697 108.66 74.9628 108.66 75.0593C108.081 76.3139 107.309 77.472 106.343 78.6301C105.282 79.8847 104.124 80.9463 102.869 81.8149C102.29 82.201 101.614 82.587 100.842 82.8765C100.167 83.166 99.4913 83.3591 98.7192 83.4556C98.3332 83.5521 97.9471 83.5521 97.5611 83.5521C97.1751 83.5521 96.8855 83.5521 96.4995 83.4556C95.8239 83.3591 95.0519 83.1661 94.2798 82.78C94.2798 82.78 94.1833 82.78 94.1833 82.6835C93.9902 82.6835 93.8937 82.587 93.7972 82.4905L93.7007 82.2975C92.7356 80.4638 91.7705 78.5336 90.902 76.5069C90.4194 75.3488 90.0334 74.2872 89.7438 73.2256C89.4543 72.164 89.1648 71.0059 89.0683 69.8478C88.9718 68.7862 88.9718 67.7246 89.1648 66.663C89.3578 65.6014 89.6473 64.5398 90.2264 63.5747C90.4194 63.1886 90.6124 62.8991 90.8054 62.6096L91.095 62.2235C91.3845 61.741 91.674 61.355 91.9636 60.8724C92.4461 60.1003 92.8321 59.3283 93.1217 58.6527C93.7972 57.1086 94.0868 55.3714 94.2798 54.0202C94.3763 53.1517 94.5693 52.3796 94.8588 51.704C94.9553 51.511 95.1484 51.318 95.3414 51.125C95.5344 51.0285 95.7274 50.932 95.9204 50.932C96.403 50.932 96.789 51.318 97.0785 51.6075C97.4646 52.0901 97.7541 52.6691 97.9471 53.1517L98.0436 53.2482C98.0436 52.6691 98.1401 52.0901 98.1401 51.511C98.2367 50.7389 98.3332 49.8704 98.5262 49.0983C98.6227 48.8088 98.7192 48.5192 98.8157 48.2297C98.9122 48.0367 99.1052 47.7471 99.2982 47.6506C99.4913 47.4576 99.7808 47.3611 100.167 47.3611C100.36 47.3611 100.456 47.3611 100.553 47.3611C100.649 47.3611 100.746 47.4576 100.939 47.5541C101.421 47.9402 101.711 48.5192 101.807 49.0018C101.904 49.2913 102.001 49.6773 102.001 49.9669C102.097 50.3529 102.097 50.7389 102.097 51.125C102.097 51.6075 102.097 52.0901 102.097 52.4761C102.097 52.3796 102.194 52.2831 102.29 52.0901L102.387 51.897C102.676 51.318 102.966 50.7389 103.255 50.2564C103.545 49.6773 103.931 49.0018 104.317 48.3262C104.51 48.0367 104.606 47.8437 104.799 47.5541C104.992 47.3611 105.089 47.1681 105.282 46.9751C105.475 46.7821 105.668 46.6855 105.861 46.6855C105.571 46.9751 105.668 46.8786 105.764 46.8786Z" fill="#ED9E9D"/>
<path d="M97.6573 53.8276C97.7538 53.8276 97.8503 53.9241 97.8503 54.1172C97.8503 54.5032 97.7538 54.8892 97.7538 55.2753C97.6573 55.5648 97.5607 55.9508 97.4642 56.2404C97.2712 56.9159 96.8852 57.495 96.4991 58.074C96.4026 58.1705 96.3061 58.1706 96.1131 58.1706C96.0166 58.074 96.0166 57.9775 96.0166 57.881C96.2096 57.5915 96.4026 57.3985 96.4991 57.1089C96.5957 56.9159 96.6922 56.6264 96.7887 56.4334C96.8852 56.1439 96.9817 55.8543 97.0782 55.5648C97.0782 55.3718 97.1747 55.1788 97.1747 54.9857C97.1747 54.6962 97.2712 54.4067 97.2712 54.2137C97.3677 53.9241 97.5608 53.8276 97.6573 53.8276Z" fill="#C58382"/>
<path d="M101.518 53.1523C101.614 53.1523 101.614 53.1523 101.711 53.2489C101.711 53.2489 101.807 53.3454 101.807 53.4419C101.711 53.8279 101.614 54.2139 101.518 54.6C101.421 54.986 101.228 55.3721 101.035 55.7581C100.649 56.5302 100.263 57.2057 99.7806 57.8813C99.6841 57.9778 99.5876 57.9778 99.491 57.9778C99.3945 57.8813 99.3945 57.7848 99.3945 57.6883C99.6841 57.3022 99.9736 56.8197 100.263 56.3372C100.456 55.9511 100.746 55.4686 100.842 54.986C101.035 54.5035 101.132 54.0209 101.325 53.6349C101.325 53.6349 101.325 53.6349 101.325 53.7314C101.325 53.6349 101.421 53.5384 101.421 53.4419C101.421 53.3454 101.421 53.3454 101.518 53.2489C101.325 53.2489 101.421 53.1523 101.518 53.1523Z" fill="#C58382"/>
<path d="M104.413 69.7515C104.606 69.7515 104.896 69.7515 105.089 69.7515C105.378 69.7515 105.765 69.848 106.151 69.9445C106.44 70.041 106.73 70.1375 107.116 70.3305C107.695 70.62 108.274 71.1991 108.66 71.8747C109.046 72.5502 109.335 73.3223 109.432 74.3839C109.432 74.6734 109.239 74.8665 109.046 74.963C108.756 74.963 108.563 74.7699 108.467 74.5769L108.37 74.7699L108.274 74.963C107.984 75.349 107.695 75.735 107.405 76.0246C106.73 76.7966 106.054 77.5687 105.282 78.3408C103.545 80.1745 101.808 81.6221 100.167 82.6837C99.2019 83.2628 98.3333 83.7453 97.4647 84.1313C96.4996 84.5174 95.631 84.7104 94.7625 84.7104C94.2799 84.7104 93.7974 84.6139 93.4113 84.6139C92.9288 84.5174 92.5427 84.3244 92.1567 84.0348C91.8672 83.8418 91.5777 83.5523 91.3846 83.2628C91.1916 82.9732 90.9986 82.5872 90.9021 82.1047C90.7091 81.3326 90.7091 80.5605 90.8056 79.5954C90.9986 78.7268 91.2881 77.8582 91.6742 77.0862C91.8672 76.7001 92.0602 76.4106 92.2532 76.1211C92.4462 75.928 92.6393 75.6385 92.8323 75.4455C93.2183 74.963 93.7009 74.5769 94.2799 74.0944C95.438 73.1293 96.7892 72.3572 98.2368 71.5851C99.781 70.8131 101.325 70.234 102.773 70.041C103.255 69.848 103.834 69.7515 104.413 69.7515Z" fill="#7F2F44"/>
<path d="M107.984 72.8397C107.887 72.8397 107.887 72.8397 107.984 72.8397C108.177 72.8397 108.466 72.8397 108.756 72.9362C109.625 73.3222 110.397 73.7083 111.265 74.3838C111.651 74.5769 111.941 74.7699 112.327 74.9629C113.967 75.928 115.608 77.1826 117.345 78.8233C118.793 80.2709 120.241 81.9116 121.592 83.9382C122.75 85.5789 123.908 87.4126 125.163 89.5358C125.645 90.4044 126.128 91.3695 126.61 92.3345C126.996 93.0101 127.286 93.7822 127.575 94.5543C128.733 97.6426 129.312 101.117 129.216 104.591C129.216 106.232 128.926 107.969 128.637 109.61C128.251 111.25 127.768 112.698 126.996 114.049C126.224 115.497 125.356 116.655 124.294 117.716C123.232 118.778 121.978 119.647 120.627 120.226C119.951 120.515 119.179 120.708 118.31 120.901C117.538 121.094 116.766 121.191 115.801 121.191C115.705 121.191 115.512 121.191 115.415 121.191C114.643 121.191 113.871 121.094 113.002 120.998C111.941 120.805 110.976 120.612 110.107 120.322C108.466 119.84 106.922 118.971 105.378 117.813C104.027 116.751 102.676 115.4 101.421 113.76C100.263 112.312 99.2016 110.671 98.14 108.645C97.1749 106.907 96.4028 105.074 95.5342 102.951C94.1831 99.3797 93.025 95.6159 92.2529 91.659C92.0599 90.7904 91.9634 90.0183 91.8669 89.1497C91.6738 88.1846 91.6738 87.123 91.6738 86.0614C91.6738 85.2894 91.6738 84.5173 91.7703 83.7452C91.8669 83.3592 91.9634 82.8766 92.1564 82.4906C92.6389 81.429 93.218 80.3674 93.8936 79.4023C93.8936 79.4023 93.8936 79.4023 93.8936 79.4988C94.2796 78.9198 94.7621 78.3407 95.2447 77.7617C95.7272 77.2791 96.1133 76.7966 96.6923 76.314C97.0784 75.928 97.5609 75.5419 98.0434 75.2524C98.526 74.9629 99.0085 74.6734 99.4911 74.3838C100.07 74.0943 100.649 73.9013 101.228 73.6118C101.904 73.4187 102.483 73.2257 103.158 73.1292C103.931 73.0327 104.606 72.9362 105.378 72.8397C105.861 72.8397 106.44 72.7432 106.922 72.7432C107.212 72.7432 107.598 72.7432 107.984 72.8397Z" fill="#AD405E"/>
<path d="M107.983 72.8397C107.887 72.8397 107.887 72.8397 107.983 72.8397C108.273 72.8397 108.562 72.9362 108.852 72.9362C109.141 73.0327 109.431 73.1292 109.72 73.3222C111.747 74.1908 113.677 75.4454 115.029 77.0861C115.222 77.2791 115.222 77.5686 115.029 77.7617C114.835 77.9547 114.546 77.9547 114.353 77.7617C113.967 77.3756 113.581 76.9896 113.195 76.6035C112.23 75.735 111.168 75.0594 110.01 74.4803C108.948 73.9978 107.887 73.6118 106.729 73.3222C105.86 73.1292 105.088 73.1292 104.219 73.1292C104.219 73.1292 104.219 73.1292 104.123 73.1292C104.123 73.1292 104.123 73.1292 104.026 73.1292C103.737 73.1292 103.544 73.1292 103.351 73.2257C103.254 73.2257 103.061 73.2257 102.965 73.1292H103.061C103.833 73.0327 104.509 72.9362 105.281 72.8397C105.764 72.8397 106.246 72.7432 106.825 72.7432C107.211 72.7432 107.597 72.7432 107.983 72.8397Z" fill="#AD405E"/>
<path d="M107.888 72.9365C109.528 73.4191 110.976 74.1911 112.424 75.1562C113.871 76.1213 115.126 77.2794 116.381 78.534C116.574 78.7271 116.477 79.0166 116.381 79.2096C116.284 79.3061 116.188 79.3061 115.994 79.3061C115.898 79.3061 115.801 79.2096 115.705 79.1131C115.222 78.6306 114.74 78.2445 114.257 77.762C114.257 77.762 114.161 77.762 114.161 77.6655C112.81 76.5074 111.266 75.3493 109.625 74.5772C108.949 74.2877 108.274 73.9981 107.598 73.8051C107.309 73.7086 107.212 73.4191 107.309 73.226C107.405 73.033 107.598 72.9365 107.791 72.9365C107.695 72.9365 107.791 72.9365 107.888 72.9365ZM114.161 77.762C114.064 77.762 114.064 77.762 114.161 77.762C114.064 77.762 114.064 77.762 114.161 77.762Z" fill="#AD405E"/>
<path d="M110.687 74.0942C111.845 74.5768 112.81 75.1558 113.775 75.9279C114.74 76.7 115.705 77.5686 116.477 78.5337C116.67 78.7267 116.67 79.0162 116.477 79.2092C116.284 79.4023 115.995 79.4023 115.802 79.2092C115.222 78.5337 114.643 77.9546 113.968 77.3755C113.099 76.6035 112.134 75.9279 111.073 75.4454C110.88 75.3489 110.59 75.2523 110.397 75.1558C110.107 75.0593 110.011 74.7698 110.107 74.5768C110.204 74.3838 110.397 74.2873 110.59 74.2873C110.59 74.0942 110.59 74.0942 110.687 74.0942Z" fill="#AD405E"/>
<path d="M111.458 74.3842C112.423 74.8667 113.388 75.4458 114.257 76.1214C115.125 76.7969 115.994 77.6655 116.766 78.5341C116.959 78.7271 116.959 79.0166 116.669 79.2097C116.476 79.4027 116.187 79.4027 115.994 79.2097C115.511 78.5341 114.932 77.955 114.353 77.4725C113.291 76.6039 112.133 75.8318 110.975 75.2528C110.879 75.1563 110.782 75.0598 110.782 74.9632C110.782 74.8667 110.782 74.6737 110.879 74.5772C110.975 74.4807 111.072 74.3842 111.168 74.3842H111.265C111.265 74.2877 111.361 74.3842 111.458 74.3842Z" fill="#AD405E"/>
<path d="M111.94 74.5771C113.581 75.6387 115.221 76.7968 116.38 78.3409C116.573 78.5339 116.573 78.8235 116.38 79.0165C116.187 79.2095 115.897 79.2095 115.704 79.0165C115.221 78.4374 114.642 77.8584 114.16 77.3758L114.256 77.4724C113.388 76.7003 112.423 76.0247 111.458 75.4457C111.265 75.3491 111.168 74.9631 111.361 74.7701C111.458 74.6736 111.651 74.5771 111.747 74.5771C111.747 74.4806 111.844 74.5771 111.94 74.5771Z" fill="#AD405E"/>
<path d="M111.747 74.5771C112.133 74.7701 112.616 74.9632 113.002 75.1562C113.484 75.4457 113.87 75.7352 114.256 76.0248C115.028 76.6038 115.704 77.3759 116.38 78.148C116.573 78.341 116.573 78.6305 116.283 78.8235C116.09 79.0165 115.801 79.0166 115.608 78.727C115.125 78.148 114.642 77.5689 114.063 77.0864C113.388 76.5073 112.616 76.0248 111.844 75.5422C111.747 75.4457 111.554 75.4457 111.458 75.3492C111.361 75.2527 111.265 75.2527 111.168 75.0597C111.072 74.9632 111.072 74.7701 111.168 74.6736C111.265 74.4806 111.458 74.2876 111.651 74.2876C111.651 74.5771 111.747 74.5771 111.747 74.5771ZM111.844 75.6387C111.844 75.6387 111.844 75.7352 111.844 75.6387C111.844 75.7352 111.844 75.6387 111.844 75.6387ZM113.967 77.0864C114.063 77.0864 114.063 77.1829 113.967 77.0864C114.063 77.1829 114.063 77.0864 113.967 77.0864Z" fill="#AD405E"/>
<path d="M111.94 74.577C112.712 75.0595 113.484 75.5421 114.16 76.1211C114.835 76.7002 115.511 77.3757 116.09 78.0513C116.283 78.2443 116.283 78.5339 116.09 78.7269C115.897 78.9199 115.607 78.9199 115.414 78.6304C115.028 78.1478 114.546 77.6653 114.063 77.1827C113.291 76.5072 112.423 75.9281 111.458 75.3491C111.265 75.2526 111.168 74.8665 111.361 74.6735C111.458 74.577 111.651 74.4805 111.747 74.4805C111.747 74.4805 111.844 74.4805 111.94 74.577Z" fill="#AD405E"/>
<path d="M111.651 74.4808C112.616 74.9633 113.485 75.5424 114.353 76.2179C115.125 76.8935 115.897 77.6656 116.573 78.4377C116.766 78.6307 116.766 78.9202 116.573 79.1132C116.38 79.3062 116.09 79.3062 115.897 79.1132C115.318 78.4377 114.643 77.7621 113.967 77.183C113.099 76.411 112.134 75.7354 111.072 75.2529C110.975 75.1563 110.879 75.0598 110.879 74.9633C110.879 74.8668 110.879 74.6738 110.975 74.5773C111.072 74.4808 111.168 74.3843 111.265 74.3843H111.361C111.458 74.3843 111.554 74.3843 111.651 74.4808Z" fill="#AD405E"/>
<path d="M112.037 74.6736C113.967 75.7353 115.801 77.0864 117.055 78.8236C117.248 79.0166 117.248 79.3061 117.055 79.4991C116.862 79.6921 116.573 79.6921 116.38 79.4991C115.897 78.8235 115.318 78.148 114.643 77.5689C113.678 76.7003 112.616 76.0248 111.554 75.4457C111.458 75.3492 111.361 75.2527 111.361 75.1562C111.361 75.0597 111.361 74.8667 111.458 74.7702C111.554 74.6737 111.651 74.5771 111.747 74.5771H111.844C111.844 74.5771 111.94 74.6736 112.037 74.6736Z" fill="#AD405E"/>
<path d="M113.195 75.5423C114.739 76.5074 115.994 77.762 117.152 79.1132C117.345 79.3062 117.345 79.5957 117.152 79.7887C116.959 79.9817 116.669 79.9817 116.476 79.6922C115.801 78.9201 115.125 78.2446 114.45 77.569L114.546 77.6655C113.967 77.183 113.388 76.7004 112.712 76.3144C112.519 76.2179 112.423 75.8318 112.616 75.6388C112.712 75.5423 112.905 75.4458 113.002 75.4458C113.098 75.4458 113.195 75.5423 113.195 75.5423Z" fill="#AD405E"/>
<path d="M115.897 77.4725C116.38 77.8585 116.862 78.3411 117.345 78.7271C118.792 80.1747 120.24 81.8154 121.591 83.8421C122.749 85.4827 123.907 87.3164 125.162 89.4396C125.645 90.3082 126.127 91.2733 126.61 92.2384C126.996 93.0105 127.285 93.686 127.575 94.4581C128.733 97.5464 129.312 101.021 129.215 104.495C129.215 106.136 128.926 107.873 128.636 109.514C128.25 111.154 127.768 112.602 126.996 113.953C126.224 115.401 125.355 116.559 124.293 117.62C123.232 118.682 121.977 119.551 120.626 120.13C119.951 120.419 119.178 120.612 118.31 120.805C117.538 120.998 116.766 121.095 115.801 121.095C115.704 121.095 115.511 121.095 115.415 121.095C114.643 121.095 113.87 120.998 113.002 120.902C111.94 120.709 110.975 120.516 110.107 120.226C109.431 120.033 108.659 119.744 107.983 119.357C108.852 119.357 109.721 119.164 110.493 119.068C111.458 118.875 112.423 118.585 113.291 118.199C114.16 117.813 115.029 117.331 115.897 116.752C116.38 116.462 116.766 116.173 117.152 115.787C117.538 115.497 117.924 115.111 118.213 114.725C118.889 113.953 119.565 113.084 120.144 112.216C120.723 111.251 121.205 110.286 121.591 109.224C121.977 108.162 122.267 107.101 122.556 106.039C123.039 103.819 123.232 101.503 123.135 99.1871C123.039 96.7743 122.653 94.3616 122.074 91.9489C121.495 89.5361 120.723 87.2199 119.758 85.0002C118.792 82.7805 117.731 80.6573 116.38 78.6306C116.09 78.148 115.704 77.569 115.415 77.0864C115.704 77.1829 115.801 77.376 115.897 77.4725Z" fill="#9F3B56"/>
<path d="M65.6161 45.2382C64.9405 45.2382 64.2649 45.3347 63.5894 45.4312C62.2382 45.7207 60.8871 46.1068 59.6325 46.5893C58.3779 47.0719 57.1233 47.6509 55.9651 48.23C55.9651 48.23 55.9652 48.23 56.0617 48.23C54.421 49.0021 52.8769 49.7741 51.2362 50.4497C50.3676 50.7392 49.5955 51.1253 48.727 51.3183C47.8584 51.6078 47.0863 51.7043 46.2177 51.8973C46.1212 52.5729 45.9282 53.152 45.8317 53.8275C45.7352 54.6961 45.6387 55.5647 45.6387 56.3368C45.6387 57.1088 45.6386 57.9774 45.7352 58.7495C45.8317 59.4251 45.9282 60.0041 46.1212 60.6797C46.3142 61.2587 46.5072 61.8378 46.7003 62.3203C46.8933 62.8029 47.0863 63.1889 47.3758 63.6715C47.4723 63.8645 47.5688 64.0575 47.6653 64.2505C47.9549 64.4435 48.1479 64.54 48.4374 64.7331C49.9816 65.7947 51.8153 66.6633 53.842 67.3388C55.8687 68.0144 57.9918 68.4969 60.2115 68.7865C60.3081 68.883 60.4046 68.883 60.5976 68.883C60.9836 68.883 61.2732 68.883 61.6592 68.9795C61.7557 68.9795 61.8522 69.076 62.0452 69.076H62.1417H62.2382H62.4313H62.5278C63.2999 69.076 64.0719 69.1725 64.844 69.1725C65.23 69.1725 65.6161 69.1725 65.9056 69.1725C66.6777 69.1725 67.4497 69.1725 68.5114 69.076C69.2834 69.076 69.959 68.9795 70.5381 68.883H70.8276C70.9241 68.883 70.9241 68.883 71.0206 68.883C73.8194 68.6899 76.5216 68.2074 78.9344 67.3388C80.9611 66.6633 82.7947 65.7947 84.3389 64.7331C85.304 64.154 86.076 63.4784 86.8481 62.8994C87.0411 62.4168 87.2342 61.8378 87.4272 61.2587C87.5237 60.7762 87.6202 60.1971 87.7167 59.6181C87.8132 58.7495 87.9097 57.9774 87.8132 57.1088C87.8132 56.2402 87.7167 55.3717 87.6202 54.5031C87.6202 54.5031 87.6202 54.5031 87.6202 54.5996C87.3307 52.8624 86.9446 51.1253 86.3656 49.4846H86.2691C84.6284 49.4846 83.0842 49.2916 81.4436 48.9055C79.8994 48.5195 78.3553 48.1335 76.8112 47.6509C75.267 47.1684 73.7228 46.6858 72.2752 46.2998C71.5031 46.1068 70.6346 45.9138 69.8625 45.7207C69.0904 45.6242 68.3183 45.4312 67.5463 45.4312C67.5463 45.4312 67.5463 45.4312 67.6428 45.4312C67.0637 45.4312 66.5812 45.3347 66.0021 45.3347C66.0021 45.1417 65.8091 45.1417 65.6161 45.2382Z" fill="#A4E4D9"/>
<path d="M63.6859 45.4313C62.4313 45.7208 61.0801 46.0103 59.729 46.5894C58.3779 47.1684 57.0268 47.7475 56.0617 48.23L55.2896 48.6161C53.9385 49.2916 52.5873 49.8707 51.2362 50.4498C50.2711 50.8358 49.499 51.1253 48.727 51.3183C47.8584 51.6079 46.9898 51.8009 46.2177 51.8974C46.0247 52.4764 45.9282 53.152 45.8317 53.8276C45.7352 54.6962 45.6387 55.5647 45.6387 56.3368C45.6387 57.1089 45.6386 57.881 45.7352 58.7496C45.8317 59.4251 45.9282 60.1007 46.1212 60.6797C46.3142 61.2588 46.5072 61.8378 46.7003 62.3204C46.8933 62.8994 47.1828 63.2855 47.3758 63.6715C47.4723 63.8645 47.5688 64.0576 47.6653 64.2506C47.9549 64.4436 48.1479 64.5401 48.4374 64.7331C49.9816 65.7947 51.8153 66.6633 53.842 67.3389C55.7721 68.0144 57.9918 68.497 60.2115 68.7865C60.3081 68.883 60.4046 68.883 60.5976 68.883C60.9836 68.883 61.2732 68.883 61.6592 68.9795C61.7557 68.9795 61.8522 69.076 62.0452 69.076H62.1417H62.2382H62.4313H62.5278C63.2999 69.076 64.0719 69.1725 64.844 69.1725C65.23 69.1725 65.6161 69.1725 65.9056 69.1725C66.6777 69.1725 67.4497 69.1726 68.5114 69.076C69.2834 69.076 69.959 68.9795 70.5381 68.883H70.8276C70.345 68.883 69.959 68.883 69.4764 68.883C67.6428 68.883 65.8091 68.883 63.9754 68.5935C62.2383 68.4005 60.5976 68.0144 58.9569 67.4354C57.5093 66.8563 56.0617 66.1808 54.8071 65.2157C53.5524 64.2506 52.5873 63.0925 51.8153 61.6448C51.6222 61.2588 51.4292 60.8728 51.3327 60.4867C51.1397 59.9077 50.9467 59.3286 50.8502 58.7496C50.7537 58.267 50.6571 57.688 50.7537 57.2054C50.7537 56.8194 50.8502 56.3368 50.9467 55.9508C51.0432 55.5647 51.2362 55.1787 51.4292 54.7927C51.6222 54.4066 51.8152 54.1171 52.1048 53.8276C52.6838 53.152 53.4559 52.573 54.1315 52.0904C54.614 51.8009 55.0001 51.5114 55.4826 51.3183C55.6756 51.2218 55.9652 51.0288 56.1582 50.9323C56.4477 50.8358 56.6407 50.6428 56.9302 50.5463C57.9918 49.9672 58.9569 49.1951 59.922 48.5196C61.0801 47.651 62.1417 46.7824 63.2999 45.9138C63.5894 45.7208 63.7824 45.6243 64.0719 45.4313C63.9754 45.3348 63.7824 45.3348 63.6859 45.4313Z" fill="#9BD7CD"/>
<path d="M63.4925 49.2919C61.7554 49.678 60.0182 50.064 58.1845 50.257C58.1845 50.257 58.1845 50.257 58.088 50.257H57.9915C57.895 50.257 57.7985 50.3535 57.7985 50.3535C57.702 50.4501 57.702 50.5466 57.6055 50.6431C57.6055 50.7396 57.6055 50.8361 57.702 50.9326C57.7985 51.0291 57.7985 51.0291 57.895 51.0291C57.9915 51.0291 58.088 51.0291 58.088 51.0291C58.8601 50.9326 59.6322 50.8361 60.4042 50.6431C61.1763 50.4501 61.9484 50.257 62.7204 50.1605C64.1681 49.7745 65.7122 49.485 67.1599 49.2919C67.8354 49.1954 68.511 49.1954 69.2831 49.2919C70.0552 49.3885 70.7307 49.485 71.5028 49.5815H71.4063C74.4946 50.1605 77.4864 51.3186 80.6712 51.4152C80.7677 51.4152 80.9607 51.3186 80.9607 51.2221C80.9607 51.1256 80.8642 50.9326 80.7677 50.9326C79.8991 50.9326 78.934 50.8361 78.0654 50.6431C78.0654 50.6431 78.0654 50.6431 78.1619 50.6431C76.5213 50.3535 74.9771 49.871 73.3365 49.485C71.7923 49.0989 70.1517 48.7129 68.511 48.7129C68.318 48.7129 68.2215 48.7129 68.0285 48.7129C66.4843 48.7129 64.9402 48.9059 63.4925 49.2919Z" fill="#94CEC4"/>
<path d="M79.7068 56.144C77.1011 56.7231 74.4953 57.0126 71.8896 57.3022H71.9861C69.5733 57.4952 67.2571 57.4952 64.8444 57.3987C62.5282 57.3022 60.2119 57.0126 57.9922 56.6266C57.6062 56.5301 57.2202 56.4336 56.9306 56.4336C56.8341 56.4336 56.6411 56.4336 56.5446 56.4336C56.4481 56.5301 56.3516 56.6266 56.3516 56.7231C56.3516 56.8196 56.3516 57.0126 56.3516 57.1091C56.3516 57.2056 56.4481 57.2056 56.5446 57.3022C56.6411 57.3987 56.7376 57.3987 56.7376 57.3987C57.7027 57.5917 58.5713 57.6882 59.5364 57.8812C60.5015 57.9777 61.4666 58.0742 62.4317 58.1707C64.3618 58.2673 66.3885 58.3638 68.3187 58.2673C72.1791 58.1707 76.0395 57.6882 79.8033 56.8196C79.8998 56.8196 79.9963 56.6266 79.9963 56.5301C79.9963 56.2406 79.8998 56.144 79.7068 56.144Z" fill="#94CEC4"/>
<path d="M79.5138 62.2239C79.4173 62.3205 79.2243 62.3205 79.1278 62.3205C79.1278 62.3205 79.1278 62.3205 79.2243 62.3205C76.6186 63.189 73.9163 63.6716 71.2141 63.8646H71.3105C69.2838 64.0576 67.3537 64.0576 65.327 63.8646C63.3968 63.7681 61.5631 63.5751 59.6329 63.189H59.7294C59.3434 63.0925 58.9574 62.996 58.6678 62.996C58.2818 62.8995 57.9923 62.803 57.6062 62.7065C57.5097 62.7065 57.3167 62.7065 57.2202 62.7065C57.1237 62.803 57.0272 62.8995 56.9307 62.996C56.9307 63.0925 56.9307 63.2855 56.9307 63.3821C57.0272 63.4786 57.1237 63.5751 57.2202 63.6716C57.6062 63.7681 57.9923 63.8646 58.3783 63.8646C58.8608 63.9611 59.3434 64.0576 59.7294 64.0576C60.6945 64.1541 61.5631 64.3472 62.5282 64.3472C64.4584 64.5402 66.4851 64.5402 68.4153 64.5402C70.3454 64.4437 72.2756 64.2506 74.2058 63.9611C76.0395 63.6716 77.7767 63.189 79.5138 62.5135C79.6103 62.5135 79.7069 62.3205 79.6103 62.2239C79.6103 62.1274 79.5138 62.1274 79.4173 62.1274C79.5138 62.1274 79.5138 62.1274 79.5138 62.2239Z" fill="#94CEC4"/>
<path d="M72.9507 7.69612C71.2136 7.69612 69.4764 7.79263 67.7393 7.98565C63.5894 8.5647 59.4394 9.72281 55.386 11.46C53.3594 12.3286 51.4292 13.2937 49.5955 14.4518C47.6653 15.6099 46.0247 16.961 44.4805 18.3121C42.9364 19.7598 41.5852 21.3039 40.5236 23.0411C40.0411 23.8132 39.5585 24.7783 39.076 25.7433C38.9795 26.0329 38.7865 26.3224 38.69 26.6119C38.5934 26.805 38.5934 26.998 38.5934 27.191C38.3039 28.2526 38.2074 29.5072 38.0144 31.0514C37.8214 32.7885 37.8214 34.4292 37.9179 35.9733C38.0144 36.7454 38.1109 37.5175 38.2074 38.0965C38.4004 38.7721 38.5935 39.3512 38.883 39.8337C39.076 40.1232 39.1725 40.3162 39.3655 40.5093C39.5586 40.7023 39.8481 40.8953 40.1376 41.0883C40.3306 41.1848 40.6201 41.2813 40.9097 41.2813C41.2957 41.2813 41.5852 41.1848 41.8748 41.0883C42.4538 40.7988 42.9364 40.2197 43.1294 39.7372C43.4189 39.1581 43.7084 38.4826 43.9015 37.614C44.2875 36.2629 44.4805 34.7187 44.6735 32.5955C44.6735 32.0165 44.77 31.4374 44.77 30.8583C45.3491 30.9549 46.0247 31.0514 46.6037 31.1479C47.2793 31.2444 47.9548 31.3409 48.6304 31.4374C49.499 31.5339 50.3676 31.6304 51.4292 31.6304C51.7187 31.6304 52.1048 31.6304 52.3943 31.6304C54.421 31.6304 56.6407 31.3409 58.8604 31.0514C63.3963 30.3758 67.8358 29.1212 72.0822 27.2875C75.5565 25.8399 78.6448 24.0062 81.4436 21.9795C84.3388 19.7598 86.7516 17.2505 88.4887 14.5483C88.6818 14.4518 88.7783 14.2587 88.8748 14.0657C88.9713 13.8727 88.8748 13.6797 88.8748 13.4867C88.5853 12.5216 88.0062 11.7495 87.2341 10.9774C86.5585 10.3984 85.883 9.91583 84.8214 9.43329C84.0493 9.04725 83.1807 8.75772 82.0226 8.46819C81.154 8.27518 80.0924 8.08215 78.9343 7.88913C77.1007 7.69611 75.267 7.59961 73.4333 7.59961C73.3368 7.69612 73.1438 7.69612 72.9507 7.69612Z" fill="#1D2B3C"/>
<path d="M84.7256 14.4521C82.3129 16.6719 79.5141 18.602 76.7153 20.1462H76.8118C75.8467 20.7253 74.7851 21.2078 73.7235 21.5938C72.6619 22.0764 71.5038 22.5589 70.4422 22.945C69.2841 23.331 68.126 23.717 67.0644 24.1031C65.9063 24.4891 64.7482 24.7786 63.5901 25.0682C61.3703 25.5507 59.2471 25.9367 56.9309 26.2263C54.8077 26.4193 52.588 26.5158 50.4648 26.5158C48.9207 26.5158 47.3765 26.3228 45.8324 26.1298C45.3498 26.0333 44.8673 26.4193 44.7707 26.9018C44.6742 27.3844 45.0603 27.8669 45.5428 27.9634C47.8591 28.253 50.2718 28.253 52.6845 28.1565C53.9391 28.06 55.0972 27.9634 56.3519 27.8669C57.6065 27.6739 58.7646 27.4809 60.0192 27.2879C61.2738 26.9984 62.4319 26.7088 63.6866 26.4193C64.9412 26.1298 66.0993 25.7437 67.2574 25.3577C69.5736 24.5856 71.8899 23.524 74.1096 22.4624C75.0747 21.9799 76.0398 21.4008 77.0049 20.8218C77.97 20.2427 78.935 19.6636 79.8036 18.9881C80.6722 18.409 81.6373 17.7335 82.5059 17.0579C83.3745 16.3823 84.1465 15.7068 84.9186 14.9347C85.0151 14.8382 85.0151 14.7417 85.0151 14.5487C85.0151 14.4521 84.9186 14.4521 84.8221 14.4521C84.8221 14.4521 84.8221 14.4521 84.7256 14.4521ZM63.6866 25.0682H63.5901H63.6866Z" fill="#16212E"/>
<path d="M75.9429 17.2505C75.4604 17.54 74.8813 17.9261 74.3988 18.2156C74.3988 18.2156 74.3988 18.2156 74.4953 18.2156C73.3372 18.8911 72.0826 19.3737 70.8279 19.7597C69.5733 20.2423 68.3187 20.6283 67.0641 20.9178H67.1606C66.0025 21.2074 64.7478 21.4004 63.5897 21.5934C62.3351 21.7864 61.0805 21.7864 59.7294 21.8829C59.5363 21.8829 59.3433 21.9794 59.2468 22.1725C59.1503 22.269 59.0538 22.462 59.1503 22.655C59.1503 22.848 59.2468 23.041 59.4398 23.1376C59.5364 23.2341 59.7294 23.2341 59.9224 23.2341C61.37 23.2341 62.8177 23.041 64.2653 22.7515C65.7129 22.462 67.1606 22.1725 68.6082 21.6899C69.9594 21.2074 71.3105 20.7248 72.5651 20.0493C73.1442 19.7597 73.8197 19.3737 74.3988 18.9877C75.0743 18.6016 75.7499 18.2156 76.329 17.733C76.4255 17.6365 76.4255 17.54 76.4255 17.347C76.329 17.2505 76.329 17.2505 76.2325 17.2505C76.0394 17.2505 75.9429 17.2505 75.9429 17.2505Z" fill="#16212E"/>
<path d="M38.8827 13.0042C37.5316 13.9693 36.277 15.0309 35.3119 16.382C34.3468 17.7332 33.5747 19.1808 32.8992 20.6285C32.5131 21.4005 32.2236 22.1726 31.9341 22.9447C31.6445 23.7168 31.355 24.5853 31.162 25.3574C30.6795 27.0946 30.1969 28.8317 29.7144 30.5689C29.7144 30.4724 29.7143 30.4724 29.8108 30.3759C29.7143 30.5689 29.7144 30.8584 29.6178 31.0515C29.2318 32.4026 28.8458 33.6572 28.3632 35.0083C28.1702 35.6839 27.8807 36.263 27.6877 36.842C27.3981 37.5176 27.1086 38.0966 26.8191 38.7722C26.6261 39.1582 26.8191 39.7373 27.3016 39.9303C27.4946 40.0268 27.6876 40.0268 27.9772 39.9303C28.0737 39.9303 28.0737 39.8338 28.1702 39.8338C28.2667 39.7373 28.3632 39.6408 28.4597 39.4478C29.1353 38.2897 29.5213 37.035 30.0039 35.7804C30.3899 34.4293 30.776 32.9816 31.0655 31.6305C31.6445 28.9283 32.1271 26.1295 32.8992 23.5237C33.4782 21.497 34.2503 19.5669 35.2154 17.7332C35.2154 17.7332 35.2154 17.8297 35.1189 17.8297C35.7944 16.6716 36.663 15.5135 37.7246 14.5484C38.2072 14.0658 38.6897 13.6798 39.2688 13.2938C39.3653 13.1972 39.3653 13.1007 39.3653 13.0042C39.3653 12.9077 39.2688 12.9077 39.1723 12.9077C38.9792 13.0042 38.8827 13.0042 38.8827 13.0042Z" fill="#16212E"/>
<path d="M34.6369 30.8582C34.5404 31.3407 34.3474 31.9198 34.2509 32.4023C33.5753 34.9116 32.6102 37.3243 31.3556 39.544C31.2591 39.737 31.0661 40.0265 30.9696 40.2196C30.8731 40.3161 30.873 40.4126 30.873 40.6056C30.873 40.7021 30.9696 40.8951 31.0661 40.9916C31.1626 41.0881 31.3556 41.0881 31.4521 41.0881C31.6451 41.0881 31.8381 40.9916 31.8381 40.7986C32.2242 40.0265 32.6102 39.2545 32.8997 38.3859C33.1893 37.6138 33.5753 36.7452 33.7683 35.9732C34.3474 34.3325 34.7334 32.6918 35.1194 31.0512C35.1194 30.9547 35.023 30.7617 34.9264 30.7617C34.7334 30.6651 34.6369 30.7617 34.6369 30.8582Z" fill="#16212E"/>
<path d="M103.931 38.6758C103.834 38.7723 103.834 38.9653 103.931 39.0618C104.896 39.9304 105.764 40.8955 106.537 41.8606V41.7641C107.502 43.1152 108.37 44.4663 109.046 46.0105C109.239 46.493 109.432 46.8791 109.625 47.3616C109.818 47.8442 109.914 48.3267 110.107 48.9058C110.397 49.9674 110.59 51.1255 110.783 52.1871C110.976 54.0208 111.072 55.8544 110.783 57.6881C110.686 58.2672 110.59 58.9427 110.493 59.5218C110.397 59.7148 110.493 60.0043 110.59 60.1973C110.686 60.3904 110.879 60.4869 111.072 60.5834C111.555 60.6799 112.038 60.3904 112.134 60.0043C112.424 59.0392 112.52 58.0741 112.617 57.109C112.713 56.144 112.713 55.0824 112.617 54.1173C112.424 52.0906 111.941 50.1604 111.169 48.2302C110.783 47.3616 110.397 46.493 109.914 45.6245C109.432 44.7559 108.853 43.8873 108.274 43.0187C107.116 41.4746 105.861 40.0269 104.317 38.7723C104.22 38.7723 104.22 38.6758 104.124 38.6758C104.027 38.6758 103.931 38.6758 103.931 38.6758ZM110.686 51.9941V52.0906C110.686 52.0906 110.686 52.0906 110.686 51.9941Z" fill="#273A51"/>
<path d="M90.3224 11.4601C90.2259 11.5566 90.2259 11.6531 90.3224 11.8462C90.5154 12.0392 90.6119 12.2322 90.8049 12.4252C91.8665 13.7763 92.7351 15.3205 93.4107 16.8646V16.7681C94.1828 18.6018 94.6653 20.532 95.0513 22.5587C95.0513 22.6552 95.1479 22.8482 95.3409 22.8482C95.4374 22.9447 95.6304 22.9447 95.7269 22.9447C95.8234 22.9447 96.0164 22.8482 96.0164 22.6552C96.1129 22.5587 96.1129 22.3657 96.1129 22.2691C95.9199 21.3041 95.6304 20.2425 95.3409 19.2774C95.1479 18.7948 95.0513 18.4088 94.8583 17.9262C94.6653 17.4437 94.3758 16.9611 94.1828 16.4786C93.7002 15.5135 93.2177 14.6449 92.6386 13.7763C92.0595 12.9078 91.4805 12.1357 90.8049 11.3636C90.8049 11.2671 90.7084 11.2671 90.6119 11.2671C90.5154 11.3636 90.4189 11.3636 90.3224 11.4601Z" fill="#273A51"/>
</svg>
