<svg width="139" height="140" viewBox="0 0 139 140" fill="none" xmlns="http://www.w3.org/2000/svg">
<path d="M86.7246 48.2513C86.7246 48.2513 98.6636 62.8536 120.797 65.425L130.44 46.3227C115.194 30.0673 96.3676 29.1489 96.3676 29.1489L86.7246 48.2513Z" fill="white" stroke="#192D54" stroke-width="1.2" stroke-miterlimit="10"/>
<path d="M95.0352 35.5778L97.377 30.9399" stroke="#192D54" stroke-width="1.2" stroke-miterlimit="10" stroke-linecap="round" stroke-linejoin="round"/>
<path d="M93.75 38.1496L94.4388 36.7261" stroke="#192D54" stroke-width="1.2" stroke-miterlimit="10" stroke-linecap="round" stroke-linejoin="round"/>
<path d="M90.168 45.221L93.1986 39.2515" stroke="#192D54" stroke-width="1.2" stroke-miterlimit="10" stroke-linecap="round" stroke-linejoin="round"/>
<path d="M129.108 48.9863C113.404 34.8432 95.0361 31.8125 95.0361 31.8125" stroke="#192D54" stroke-width="1.2" stroke-miterlimit="10"/>
<path d="M122.129 62.7616C101.419 58.5371 88.0566 45.5879 88.0566 45.5879" stroke="#192D54" stroke-width="1.2" stroke-miterlimit="10"/>
<path d="M114.735 47.8839L111.521 46.3226L113.128 43.1083L109.271 41.1797L107.663 44.394L104.449 42.8328L102.521 46.69L105.781 48.2972L104.174 51.5115L108.031 53.3942L109.638 50.1798L112.852 51.787L114.735 47.8839Z" fill="#75CFFD" stroke="#192D54" stroke-width="1.2" stroke-miterlimit="10" stroke-linecap="round" stroke-linejoin="round"/>
<path d="M97.6072 29.2406C97.6072 29.2406 100.684 24.6946 96.4133 22.5364C92.1428 20.3782 89.9846 25.4293 89.9846 25.4293L88.0101 29.2865C86.2651 32.7764 85.2549 36.5877 85.209 40.4908C85.209 43.1541 85.6223 45.8174 87.1376 47.2409" stroke="#192D54" stroke-width="1.2" stroke-miterlimit="10" stroke-linecap="round" stroke-linejoin="round"/>
<path d="M129.705 45.4501C129.705 45.4501 131.542 40.2612 135.812 42.4194C140.083 44.5776 137.282 49.3073 137.282 49.3073L135.307 53.1645C133.562 56.6543 131.083 59.7309 127.96 62.0728C125.848 63.68 123.46 64.8739 121.348 64.5524" stroke="#192D54" stroke-width="1.2" stroke-miterlimit="10" stroke-linecap="round" stroke-linejoin="round"/>
<path d="M34.9867 120.454C29.2009 122.015 22.6345 120.546 17.5374 116.918C17.3997 116.826 17.216 116.689 17.0782 116.597C13.5884 113.888 11.8894 109.433 12.5323 105.025C14.6905 90.0556 26.0325 87.6219 26.0325 87.6219C26.0325 87.6219 37.0531 83.9483 46.5124 95.7496C49.2676 99.1935 50.14 103.923 48.4869 108.01C48.3951 108.194 48.3492 108.377 48.2573 108.561C45.7318 114.255 40.7725 118.893 34.9867 120.454Z" fill="white" stroke="#192D54" stroke-width="1.2" stroke-miterlimit="10" stroke-linecap="round" stroke-linejoin="round"/>
<path d="M41.8742 96.8052C41.8742 96.8052 29.8893 102.683 17.6289 103.418" stroke="#192D54" stroke-width="1.2" stroke-miterlimit="10" stroke-linecap="round" stroke-linejoin="round"/>
<path d="M43.4814 99.2847C43.4814 99.2847 30.5782 106.678 17.4912 106.356" stroke="#192D54" stroke-width="1.2" stroke-miterlimit="10" stroke-linecap="round" stroke-linejoin="round"/>
<path d="M44.6752 101.994C44.6752 101.994 31.0372 110.535 17.8125 109.295" stroke="#192D54" stroke-width="1.2" stroke-miterlimit="10" stroke-linecap="round" stroke-linejoin="round"/>
<path d="M45.3637 104.565C45.3637 104.565 32.3226 114.071 18.501 111.867" stroke="#192D54" stroke-width="1.2" stroke-miterlimit="10" stroke-linecap="round" stroke-linejoin="round"/>
<path d="M46.0072 106.907C46.0072 106.907 33.2876 117.836 19.1445 114.208" stroke="#192D54" stroke-width="1.2" stroke-miterlimit="10" stroke-linecap="round" stroke-linejoin="round"/>
<path d="M19.4197 97.4941C19.4656 97.4941 19.5574 97.4482 19.6033 97.4022C21.2564 95.9328 25.8024 91.9838 27.1341 91.6164C28.4657 91.2491 34.1597 92.397 36.2261 92.8562C36.4557 92.9021 36.6853 92.7644 36.7771 92.5348C36.823 92.3052 36.6853 92.0756 36.4557 91.9838C35.675 91.8001 28.6953 90.2848 26.9504 90.744C25.2055 91.2491 19.6952 96.1624 19.0523 96.7134C18.8686 96.8971 18.8686 97.1726 19.0064 97.3563C19.0982 97.4941 19.2819 97.54 19.4197 97.4941Z" fill="#CBD1DC" stroke="#192D54" stroke-width="1.2" stroke-miterlimit="10" stroke-linecap="round" stroke-linejoin="round"/>
<path d="M13.5885 106.494C13.5885 106.494 13.4966 107.918 13.7262 108.698" stroke="#192D54" stroke-width="1.2" stroke-miterlimit="10" stroke-linecap="round" stroke-linejoin="round"/>
<path d="M46.3291 97.54C46.3291 97.54 47.1097 98.7339 47.3393 99.5146" stroke="#192D54" stroke-width="1.2" stroke-miterlimit="10" stroke-linecap="round" stroke-linejoin="round"/>
<path d="M13.5884 107.78C13.0832 107.964 11.3383 107.918 9.82299 106.908C8.12398 105.76 7.15968 103.647 7.02192 100.846C6.79233 96.9431 8.39949 94.5094 10.2822 91.6624C11.7516 89.4583 13.3588 86.9786 14.2771 83.4888C15.0578 80.55 17.4456 78.3459 20.8895 77.4275H20.9354C25.4814 76.1877 30.5784 77.4275 33.6091 80.4581C36.2265 83.0755 38.1551 84.0857 39.9 85.0041C42.0582 86.1062 43.895 87.0705 46.4665 91.0654C48.6247 94.4175 48.6247 96.2543 48.3032 97.2186C47.89 98.3666 47.1552 98.5503 46.8797 98.6421" stroke="#192D54" stroke-width="1.2" stroke-miterlimit="10" stroke-linecap="round" stroke-linejoin="round"/>
<path d="M14.8053 27.3954C13.7951 28.8189 12.4175 29.9209 10.9022 30.5638C9.38688 31.2066 7.73378 31.4362 6.17253 31.1607C3.78474 30.7475 2.08573 29.1403 1.39695 26.8443C-0.256142 20.9208 8.19298 18.0279 8.28482 17.9819" stroke="#192D54" stroke-width="1.2" stroke-miterlimit="10" stroke-linecap="round" stroke-linejoin="round"/>
<path d="M46.214 13.7113C47.9589 13.9409 49.6579 13.6654 51.2192 13.0225C52.7345 12.3796 54.0202 11.3235 54.8927 9.99184C56.1784 7.97139 56.2244 5.62952 54.9386 3.56316C51.7243 -1.71754 43.8262 2.55293 43.7803 2.59885" stroke="#192D54" stroke-width="1.2" stroke-miterlimit="10" stroke-linecap="round" stroke-linejoin="round"/>
<path d="M35.7439 32.8594C27.8917 36.2575 21.8763 33.6401 19.9018 32.7676C19.764 32.7217 19.6263 32.6298 19.5345 32.5839C18.3406 32.1247 16.7793 30.7931 16.2283 30.3339C15.9528 30.242 15.4936 30.1502 15.1721 30.0584C14.5752 29.9206 14.0242 29.3696 13.2435 28.4971H13.1058C12.6925 28.4971 12.3251 28.3134 12.0956 27.992L11.9578 27.8083C11.6364 27.3951 11.0853 26.5685 10.6721 25.8338C10.1669 24.9614 10.3047 23.997 10.5343 23.3542C10.2588 22.7113 9.70775 21.3797 9.29448 20.6909C8.88121 19.9562 7.77915 18.6245 7.36588 18.2112L7.09036 17.9357C6.86077 17.6602 6.90669 17.2469 7.18221 17.0173L7.50364 16.7877C15.0344 10.8642 21.9222 7.64983 23.8508 6.82329C24.0804 6.73145 24.2182 6.63961 24.31 6.63961C24.356 6.59369 24.4937 6.54777 24.7692 6.45593C26.6978 5.62939 33.7235 2.73649 43.2287 1.26708L43.5961 1.22115C43.9634 1.17524 44.2849 1.40483 44.3308 1.77218L44.3767 2.13954C44.4226 2.73649 44.6522 4.4355 44.8818 5.26204C45.1114 5.99675 45.7084 7.3284 45.9839 7.97127C46.6268 8.24678 47.4074 8.79782 47.6829 9.76212C47.9584 10.5887 48.188 11.6448 48.2798 12.1499L48.3258 12.3336C48.4176 12.7469 48.2798 13.1142 48.0043 13.4356L47.9125 13.5734C48.0502 14.8132 47.9584 15.502 47.7288 15.9612C47.5451 16.2826 47.3155 16.6959 47.2237 16.9255C47.2237 17.6602 47.1319 19.6806 46.6267 20.8745C46.5808 20.9664 46.5349 21.1041 46.489 21.2419C45.7543 23.2164 43.5961 29.4155 35.7439 32.8594Z" fill="#E9A338" stroke="#192D54" stroke-width="1.2" stroke-miterlimit="10" stroke-linecap="round" stroke-linejoin="round"/>
<path d="M35.2845 31.7578C43.2745 28.2679 44.9735 21.7015 45.4327 20.4617C45.9378 19.2219 45.9378 16.6963 45.9378 16.6963C45.9378 16.6963 46.3051 16.0075 46.5806 15.5024C46.8102 15.0892 46.6725 13.8034 46.6266 13.3901C46.6266 13.2983 46.6266 13.2524 46.7184 13.2065L47.0398 12.8391C47.0857 12.7932 47.1317 12.7014 47.0857 12.6554C46.9939 12.2881 46.6266 10.7268 46.351 9.90029C46.0296 8.89006 44.8816 8.66047 44.8816 8.66047C44.8816 8.66047 44.0551 6.91554 43.6877 5.81348C43.3204 4.75734 43.1367 2.55322 43.1367 2.55322C32.3457 4.25223 24.815 7.78801 24.815 7.78801C24.815 7.78801 17.1006 10.9105 8.51367 17.6606C8.51367 17.6606 9.98308 19.3137 10.5341 20.278C11.0851 21.2423 11.9576 23.4005 11.9576 23.4005C11.9576 23.4005 11.3607 24.4107 11.8658 25.3291C12.325 26.1097 13.0137 27.074 13.2433 27.3955C13.2893 27.4414 13.3352 27.4873 13.427 27.4873H13.9321C14.024 27.4873 14.0699 27.5332 14.1158 27.5792C14.3454 27.8547 15.2179 28.9108 15.6771 29.0486C16.2281 29.1863 17.0087 29.4159 17.0087 29.4159C17.0087 29.4159 18.8455 31.1149 20.1312 31.62C21.3251 31.9874 27.2946 35.2017 35.2845 31.7578Z" stroke="#192D54" stroke-width="0.75" stroke-miterlimit="10" stroke-linecap="round" stroke-linejoin="round"/>
<path d="M10.4424 23.9055C10.4424 23.9055 18.7997 18.9003 27.9376 14.9054C37.0755 10.9104 46.3971 8.20117 46.3971 8.20117" stroke="#192D54" stroke-width="1.2" stroke-miterlimit="10" stroke-linecap="round" stroke-linejoin="round"/>
<path d="M12.0957 27.9924C12.0957 27.9924 30.6011 20.7831 48.1422 12.2881" stroke="#192D54" stroke-width="1.2" stroke-miterlimit="10" stroke-linecap="round" stroke-linejoin="round"/>
<path d="M16.0439 30.2884C16.0439 30.2884 23.988 30.7476 33.0799 26.7985C42.1719 22.8495 47.3608 16.6045 47.3608 16.6045" stroke="#192D54" stroke-width="1.2" stroke-miterlimit="10" stroke-linecap="round" stroke-linejoin="round"/>
<path d="M35.6062 6.59374C36.249 6.59374 36.295 5.5376 35.6062 5.5376C34.9633 5.5376 34.9633 6.59374 35.6062 6.59374Z" fill="#192D54"/>
<path d="M40.8874 6.96093C41.5303 6.96093 41.5762 5.90479 40.8874 5.90479C40.2446 5.9507 40.2446 6.96093 40.8874 6.96093Z" fill="#192D54"/>
<path d="M33.3103 10.2671C33.9531 10.2671 33.9991 9.21094 33.3103 9.21094C32.6674 9.25686 32.6674 10.2671 33.3103 10.2671Z" fill="#192D54"/>
<path d="M28.9023 10.1294C29.5452 10.1294 29.5911 9.07324 28.9023 9.07324C28.2135 9.11916 28.2135 10.1294 28.9023 10.1294Z" fill="#192D54"/>
<path d="M23.3916 11.2773C24.0345 11.2773 24.0804 10.2212 23.3916 10.2212C22.7028 10.2212 22.7028 11.2773 23.3916 11.2773Z" fill="#192D54"/>
<path d="M25.5036 14.1245C26.1465 14.1245 26.1924 13.0684 25.5036 13.0684C24.8608 13.0684 24.8608 14.1245 25.5036 14.1245Z" fill="#192D54"/>
<path d="M20.3611 15.915C21.0039 15.915 21.0498 14.8589 20.3611 14.8589C19.7182 14.9048 19.7182 15.915 20.3611 15.915Z" fill="#192D54"/>
<path d="M12.0039 18.2573C12.6468 18.2573 12.6927 17.2012 12.0039 17.2012C11.3151 17.2012 11.3151 18.2573 12.0039 18.2573Z" fill="#192D54"/>
<path d="M15.7236 20.1855C16.3665 20.1855 16.4124 19.1294 15.7236 19.1294C15.0348 19.1294 15.0348 20.1855 15.7236 20.1855Z" fill="#192D54"/>
<path d="M14.8506 23.9512C15.4934 23.9512 15.5394 22.895 14.8506 22.895C14.1618 22.9409 14.1618 23.9512 14.8506 23.9512Z" fill="#192D54"/>
<path d="M20.1777 23.2622C20.8206 23.2622 20.8665 22.2061 20.1777 22.2061C19.4889 22.252 19.4889 23.2622 20.1777 23.2622Z" fill="#192D54"/>
<path d="M21.4629 18.9458C22.1057 18.9458 22.1517 17.8896 21.4629 17.8896C20.7741 17.8896 20.7741 18.9458 21.4629 18.9458Z" fill="#192D54"/>
<path d="M27.2031 19.3135C27.846 19.3135 27.8919 18.2573 27.2031 18.2573C26.5143 18.3032 26.5143 19.3135 27.2031 19.3135Z" fill="#192D54"/>
<path d="M30.4636 15.6855C31.1065 15.6855 31.1524 14.6294 30.4636 14.6294C29.8207 14.6294 29.8207 15.6855 30.4636 15.6855Z" fill="#192D54"/>
<path d="M33.6775 17.9819C34.3203 17.9819 34.3663 16.9258 33.6775 16.9258C33.0346 16.9258 33.0346 17.9819 33.6775 17.9819Z" fill="#192D54"/>
<path d="M36.8457 12.9307C37.4886 12.9307 37.5345 11.8745 36.8457 11.8745C36.1569 11.8745 36.1569 12.9307 36.8457 12.9307Z" fill="#192D54"/>
<path d="M42.7236 12.8389C43.3665 12.8389 43.4124 11.7827 42.7236 11.7827C42.0348 11.8286 42.0348 12.8389 42.7236 12.8389Z" fill="#192D54"/>
<path d="M40.9326 15.8696C41.5755 15.8696 41.6214 14.8135 40.9326 14.8135C40.2438 14.8135 40.2438 15.8696 40.9326 15.8696Z" fill="#192D54"/>
<path d="M38.9128 19.0835C39.5557 19.0835 39.6016 18.0273 38.9128 18.0273C38.2699 18.0733 38.2699 19.0835 38.9128 19.0835Z" fill="#192D54"/>
<path d="M33.3564 22.2519C33.9993 22.2519 34.0452 21.1958 33.3564 21.1958C32.6676 21.2417 32.6676 22.2519 33.3564 22.2519Z" fill="#192D54"/>
<path d="M25.1823 23.584C25.8252 23.584 25.8711 22.5278 25.1823 22.5278C24.5395 22.5738 24.5395 23.584 25.1823 23.584Z" fill="#192D54"/>
<path d="M23.6677 27.2114C24.3106 27.2114 24.3565 26.1553 23.6677 26.1553C23.0248 26.2012 23.0248 27.2114 23.6677 27.2114Z" fill="#192D54"/>
<path d="M18.157 27.854C18.7998 27.854 18.8457 26.7979 18.157 26.7979C17.5141 26.7979 17.5141 27.854 18.157 27.854Z" fill="#192D54"/>
<path d="M22.5195 30.9766C23.1624 30.9766 23.2083 29.9204 22.5195 29.9204C21.8307 29.9663 21.8307 30.9766 22.5195 30.9766Z" fill="#192D54"/>
<path d="M28.3057 32.4004C28.9485 32.4004 28.9944 31.3442 28.3057 31.3442C27.6169 31.3442 27.6169 32.4004 28.3057 32.4004Z" fill="#192D54"/>
<path d="M29.2695 24.7778C29.9124 24.7778 29.9583 23.7217 29.2695 23.7217C28.5807 23.7217 28.5807 24.7778 29.2695 24.7778Z" fill="#192D54"/>
<path d="M28.5351 28.6807C29.178 28.6807 29.2239 27.6245 28.5351 27.6245C27.8464 27.6245 27.8464 28.6807 28.5351 28.6807Z" fill="#192D54"/>
<path d="M34.3662 26.4306C35.0091 26.4306 35.055 25.3745 34.3662 25.3745C33.6774 25.3745 33.6774 26.4306 34.3662 26.4306Z" fill="#192D54"/>
<path d="M37.7646 22.8491C38.4075 22.8491 38.4534 21.793 37.7646 21.793C37.0759 21.8389 37.0759 22.8491 37.7646 22.8491Z" fill="#192D54"/>
<path d="M43.6882 18.4868C44.3311 18.4868 44.377 17.4307 43.6882 17.4307C43.0453 17.4307 43.0453 18.4868 43.6882 18.4868Z" fill="#192D54"/>
<path d="M41.6218 23.9053C42.2647 23.9053 42.3106 22.8491 41.6218 22.8491C40.9789 22.895 40.9789 23.9053 41.6218 23.9053Z" fill="#192D54"/>
<path d="M37.9482 28.543C38.5911 28.543 38.637 27.4868 37.9482 27.4868C37.2594 27.5327 37.2594 28.543 37.9482 28.543Z" fill="#192D54"/>
<path d="M16.5498 14.9053C17.1927 14.9053 17.2386 13.8491 16.5498 13.8491C15.861 13.895 15.861 14.9053 16.5498 14.9053Z" fill="#192D54"/>
<path d="M32.8974 30.3799C33.5403 30.3799 33.5862 29.3237 32.8974 29.3237C32.2087 29.3237 32.2087 30.3799 32.8974 30.3799Z" fill="#192D54"/>
<path d="M95.1172 131.851C94.7039 133.55 93.8315 135.112 92.6835 136.352C91.5355 137.545 90.0661 138.418 88.5048 138.739C86.1171 139.244 83.9129 138.464 82.3976 136.535C78.5404 131.622 85.3364 125.652 85.4283 125.561" stroke="#192D54" stroke-width="1.2" stroke-miterlimit="10" stroke-linecap="round" stroke-linejoin="round"/>
<path d="M119.225 106.917C120.924 106.458 122.439 105.54 123.633 104.346C124.781 103.152 125.607 101.682 125.883 100.075C126.342 97.6874 125.424 95.4833 123.449 94.0139C118.398 90.3404 112.658 97.366 112.612 97.4119" stroke="#192D54" stroke-width="1.2" stroke-miterlimit="10" stroke-linecap="round" stroke-linejoin="round"/>
<path d="M116.837 128.867C110.822 135.112 104.164 134.974 102.005 134.928C101.822 134.928 101.684 134.928 101.592 134.928C100.261 134.928 98.3319 134.331 97.6431 134.056C97.3676 134.101 96.9084 134.147 96.5411 134.193C95.9441 134.285 95.1635 134.01 94.1533 133.504L94.0155 133.55C93.6482 133.734 93.2349 133.688 92.8675 133.459L92.6379 133.321C92.1787 133.045 91.3063 132.494 90.6634 131.989C89.8369 131.346 89.6073 130.428 89.5614 129.739C89.0563 129.234 88.0001 128.224 87.3572 127.719C86.6684 127.168 85.1531 126.387 84.6021 126.111L84.2347 125.928C83.9133 125.744 83.7755 125.377 83.9592 125.055L84.1429 124.734C88.9185 116.285 94.1073 110.591 95.5768 109.075C95.7604 108.892 95.8982 108.754 95.8982 108.708C95.9441 108.662 96.036 108.524 96.2196 108.341C97.689 106.825 103.153 101.407 111.465 96.3559L111.786 96.1722C112.108 95.9886 112.521 96.0804 112.659 96.4018L112.842 96.7232C113.118 97.2284 113.99 98.7437 114.541 99.4325C115.046 100.029 116.103 101.04 116.654 101.545C117.342 101.545 118.307 101.774 118.95 102.555C119.501 103.244 120.144 104.116 120.419 104.575L120.511 104.713C120.74 105.035 120.786 105.494 120.649 105.861L120.603 105.999C121.2 107.147 121.429 107.79 121.337 108.295C121.291 108.662 121.246 109.121 121.2 109.397C121.475 110.086 122.164 112.014 122.21 113.3C122.21 113.392 122.21 113.53 122.21 113.713C122.485 116.009 122.853 122.622 116.837 128.867Z" fill="#75CFFD" stroke="#192D54" stroke-width="1.2" stroke-miterlimit="10" stroke-linecap="round" stroke-linejoin="round"/>
<path d="M115.965 127.994C122.118 121.657 121.154 114.861 121.108 113.484C121.062 112.106 120.098 109.764 120.098 109.764C120.098 109.764 120.144 108.938 120.235 108.387C120.281 107.928 119.638 106.734 119.455 106.412C119.409 106.366 119.409 106.274 119.455 106.183L119.638 105.723C119.684 105.677 119.638 105.586 119.593 105.54C119.363 105.218 118.399 103.933 117.848 103.244C117.159 102.417 115.965 102.647 115.965 102.647C115.965 102.647 114.496 101.315 113.761 100.443C113.026 99.5702 111.97 97.5957 111.97 97.5957C102.511 103.382 96.8167 109.581 96.8167 109.581C96.8167 109.581 90.8013 115.504 85.3828 125.147C85.3828 125.147 87.3573 126.111 88.2757 126.846C89.1941 127.535 90.8013 129.234 90.8013 129.234C90.8013 129.234 90.6176 130.428 91.4901 131.071C92.2248 131.622 93.235 132.265 93.5564 132.448C93.6023 132.494 93.6942 132.494 93.7401 132.448L94.1993 132.265C94.2911 132.219 94.337 132.219 94.4289 132.265C94.7962 132.448 95.9901 133.091 96.4952 132.999C97.0463 132.908 97.8728 132.816 97.8728 132.816C97.8728 132.816 100.261 133.688 101.638 133.688C102.97 133.642 109.812 134.377 115.965 127.994Z" stroke="#192D54" stroke-width="0.75" stroke-miterlimit="10" stroke-linecap="round" stroke-linejoin="round"/>
<path d="M89.6533 130.29C89.6533 130.29 95.531 122.392 102.511 115.137C109.536 107.882 117.205 101.729 117.205 101.729" stroke="#192D54" stroke-width="1.2" stroke-miterlimit="10" stroke-linecap="round" stroke-linejoin="round"/>
<path d="M92.8213 133.458C92.8213 133.458 107.332 119.545 120.465 104.805" stroke="#192D54" stroke-width="1.2" stroke-miterlimit="10" stroke-linecap="round" stroke-linejoin="round"/>
<path d="M97.4141 134.101C97.4141 134.101 105.037 131.438 111.97 124.228C118.95 117.019 121.384 109.167 121.384 109.167" stroke="#192D54" stroke-width="1.2" stroke-miterlimit="10" stroke-linecap="round" stroke-linejoin="round"/>
</svg>
