<svg width="20" height="22" viewBox="0 0 20 22" fill="none" xmlns="http://www.w3.org/2000/svg">
<path d="M1 8H19V18C19 19.6569 17.6569 21 16 21H4C2.34315 21 1 19.6569 1 18V8Z" fill="#488D7F"/>
<path d="M1.09277 8.40445H18.9167" stroke="white" stroke-width="1.5" stroke-linecap="round" stroke-linejoin="round"/>
<path fill-rule="evenodd" clip-rule="evenodd" d="M4.80762 12.3096C4.80762 11.8954 5.1434 11.5596 5.55762 11.5596H5.56688C5.98109 11.5596 6.31688 11.8954 6.31688 12.3096C6.31688 12.7238 5.98109 13.0596 5.56688 13.0596H5.55762C5.1434 13.0596 4.80762 12.7238 4.80762 12.3096ZM10.0043 11.5596C9.59013 11.5596 9.25434 11.8954 9.25434 12.3096C9.25434 12.7238 9.59013 13.0596 10.0043 13.0596H10.0136C10.4278 13.0596 10.7636 12.7238 10.7636 12.3096C10.7636 11.8954 10.4278 11.5596 10.0136 11.5596H10.0043ZM14.4418 11.5596C14.0276 11.5596 13.6918 11.8954 13.6918 12.3096C13.6918 12.7238 14.0276 13.0596 14.4418 13.0596H14.4511C14.8653 13.0596 15.2011 12.7238 15.2011 12.3096C15.2011 11.8954 14.8653 11.5596 14.4511 11.5596H14.4418ZM14.4418 15.446C14.0276 15.446 13.6918 15.7818 13.6918 16.196C13.6918 16.6103 14.0276 16.946 14.4418 16.946H14.4511C14.8653 16.946 15.2011 16.6103 15.2011 16.196C15.2011 15.7818 14.8653 15.446 14.4511 15.446H14.4418ZM9.25434 16.196C9.25434 15.7818 9.59013 15.446 10.0043 15.446H10.0136C10.4278 15.446 10.7636 15.7818 10.7636 16.196C10.7636 16.6103 10.4278 16.946 10.0136 16.946H10.0043C9.59013 16.946 9.25434 16.6103 9.25434 16.196ZM5.55762 15.446C5.1434 15.446 4.80762 15.7818 4.80762 16.196C4.80762 16.6103 5.1434 16.946 5.55762 16.946H5.56688C5.98109 16.946 6.31688 16.6103 6.31688 16.196C6.31688 15.7818 5.98109 15.446 5.56688 15.446H5.55762Z" fill="white"/>
<path d="M14.0433 1V4.29078" stroke="white" stroke-width="1.5" stroke-linecap="round" stroke-linejoin="round"/>
<path d="M5.96515 1V4.29078" stroke="white" stroke-width="1.5" stroke-linecap="round" stroke-linejoin="round"/>
<path fill-rule="evenodd" clip-rule="evenodd" d="M14.2383 2.5791H5.77096C2.83427 2.5791 1 4.21504 1 7.22213V16.2718C1 19.3261 2.83427 20.9999 5.77096 20.9999H14.229C17.175 20.9999 19 19.3545 19 16.3474V7.22213C19.0092 4.21504 17.1842 2.5791 14.2383 2.5791Z" stroke="white" stroke-width="1.5" stroke-linecap="round" stroke-linejoin="round"/>
</svg>
