<svg width="248" height="312" viewBox="0 0 248 312" fill="none" xmlns="http://www.w3.org/2000/svg">
<path d="M0.5 192C20.3333 196 65.5 174.5 70.5 134C77.8333 74.6005 136.667 63.6667 138 52.5" stroke="white" stroke-opacity="0.7"/>
<path d="M1 233.5C20.8333 237.5 66 216 71 175.5C78.3333 116.1 137.167 105.167 138.5 94" stroke="white" stroke-opacity="0.7"/>
<path d="M43 303.5C62.8333 307.5 110.5 288.5 115.5 248C122.833 188.6 179.167 175.167 180.5 164" stroke="white" stroke-opacity="0.7"/>
<path d="M0.5 149C20.3333 153 61.5 131.5 66.5 91" stroke="white" stroke-opacity="0.7"/>
<rect opacity="0.5" x="0.5" y="71.5" width="159" height="240" rx="79.5" fill="#488D7F" stroke="white"/>
<path d="M0.5 192C20.3333 196 65.5 174.5 70.5 134C77.8333 74.6005 136.667 63.6667 138 52.5" stroke="white" stroke-opacity="0.7"/>
<path d="M1 233.5C20.8333 237.5 66 216 71 175.5C78.3333 116.1 137.167 105.167 138.5 94" stroke="white" stroke-opacity="0.7"/>
<path d="M43 303.5C62.8333 307.5 110.5 288.5 115.5 248C122.833 188.6 179.167 175.167 180.5 164" stroke="white" stroke-opacity="0.7"/>
<path d="M0.5 149C20.3333 153 61.5 131.5 66.5 91" stroke="white" stroke-opacity="0.7"/>
<rect x="64.5" y="23.5" width="159" height="240" rx="79.5" fill="white" stroke="#4A4A4A"/>
<path d="M128.168 148.704C128.168 149.824 127.976 150.832 127.592 151.728C127.192 152.624 126.632 153.328 125.912 153.84C125.192 154.352 124.352 154.608 123.392 154.608L123.392 151.68C124.112 151.616 124.704 151.336 125.168 150.84C125.632 150.328 125.864 149.616 125.864 148.704C125.864 147.76 125.64 147.024 125.192 146.496C124.728 145.968 124.136 145.704 123.416 145.704C122.856 145.704 122.4 145.872 122.048 146.208C121.696 146.528 121.424 146.936 121.232 147.432C121.04 147.912 120.832 148.584 120.608 149.448C120.32 150.536 120.032 151.424 119.744 152.112C119.44 152.784 118.976 153.36 118.352 153.84C117.728 154.32 116.896 154.56 115.856 154.56C114.896 154.56 114.056 154.32 113.336 153.84C112.616 153.36 112.064 152.688 111.68 151.824C111.296 150.96 111.104 149.96 111.104 148.824C111.104 147.208 111.512 145.888 112.328 144.864C113.128 143.824 114.232 143.248 115.64 143.136L115.64 146.16C115.032 146.208 114.512 146.496 114.08 147.024C113.648 147.552 113.432 148.248 113.432 149.112C113.432 149.896 113.632 150.536 114.032 151.032C114.432 151.528 115.008 151.776 115.76 151.776C116.272 151.776 116.696 151.624 117.032 151.32C117.352 151 117.608 150.6 117.8 150.12C117.992 149.64 118.2 148.984 118.424 148.152C118.728 147.048 119.032 146.152 119.336 145.464C119.64 144.76 120.112 144.168 120.752 143.688C121.376 143.192 122.216 142.944 123.272 142.944C124.12 142.944 124.92 143.176 125.672 143.64C126.424 144.088 127.032 144.752 127.496 145.632C127.944 146.496 128.168 147.52 128.168 148.704ZM121.064 127.596C121.56 127.596 122.008 127.628 122.408 127.692L122.408 137.796C123.464 137.716 124.312 137.324 124.952 136.62C125.592 135.916 125.912 135.052 125.912 134.028C125.912 132.556 125.296 131.516 124.064 130.908L124.064 127.956C125.28 128.356 126.28 129.084 127.064 130.14C127.832 131.18 128.216 132.476 128.216 134.028C128.216 135.292 127.936 136.428 127.376 137.436C126.8 138.428 126 139.212 124.976 139.788C123.936 140.348 122.736 140.628 121.376 140.628C120.016 140.628 118.824 140.356 117.8 139.812C116.76 139.252 115.96 138.476 115.4 137.484C114.84 136.476 114.56 135.324 114.56 134.028C114.56 132.78 114.832 131.668 115.376 130.692C115.92 129.716 116.688 128.956 117.68 128.412C118.656 127.868 119.784 127.596 121.064 127.596ZM120.2 130.452C119.192 130.468 118.384 130.828 117.776 131.532C117.168 132.236 116.864 133.108 116.864 134.148C116.864 135.092 117.168 135.9 117.776 136.572C118.368 137.244 119.176 137.644 120.2 137.772L120.2 130.452ZM110.24 122.167L128 122.167L128 124.903L110.24 124.903L110.24 122.167ZM121.328 119.487C120 119.487 118.824 119.215 117.8 118.671C116.776 118.111 115.984 117.359 115.424 116.415C114.848 115.455 114.56 114.399 114.56 113.247C114.56 112.207 114.768 111.303 115.184 110.535C115.584 109.751 116.088 109.127 116.696 108.663L114.776 108.663L114.776 105.903L128 105.903L128 108.663L126.032 108.663C126.656 109.127 127.176 109.759 127.592 110.559C128.008 111.359 128.216 112.271 128.216 113.295C128.216 114.431 127.928 115.471 127.352 116.415C126.76 117.359 125.944 118.111 124.904 118.671C123.848 119.215 122.656 119.487 121.328 119.487ZM121.376 108.663C120.464 108.663 119.672 108.855 119 109.239C118.328 109.607 117.816 110.095 117.464 110.703C117.112 111.311 116.936 111.967 116.936 112.671C116.936 113.375 117.112 114.031 117.464 114.639C117.8 115.247 118.304 115.743 118.976 116.127C119.632 116.495 120.416 116.679 121.328 116.679C122.24 116.679 123.04 116.495 123.728 116.127C124.416 115.743 124.944 115.247 125.312 114.639C125.664 114.015 125.84 113.359 125.84 112.671C125.84 111.967 125.664 111.311 125.312 110.703C124.96 110.095 124.448 109.607 123.776 109.239C123.088 108.855 122.288 108.663 121.376 108.663ZM114.56 86.3014C114.56 85.2614 114.776 84.3334 115.208 83.5174C115.64 82.6854 116.28 82.0374 117.128 81.5734C117.976 81.0934 119 80.8534 120.2 80.8534L128 80.8534L128 83.5654L120.608 83.5654C119.424 83.5654 118.52 83.8614 117.896 84.4534C117.256 85.0454 116.936 85.8534 116.936 86.8774C116.936 87.9014 117.256 88.7174 117.896 89.3254C118.52 89.9174 119.424 90.2134 120.608 90.2134L128 90.2134L128 92.9254L120.608 92.9254C119.424 92.9254 118.52 93.2214 117.896 93.8134C117.256 94.4054 116.936 95.2134 116.936 96.2374C116.936 97.2614 117.256 98.0774 117.896 98.6854C118.52 99.2774 119.424 99.5734 120.608 99.5734L128 99.5734L128 102.309L114.776 102.309L114.776 99.5734L116.288 99.5734C115.744 99.1254 115.32 98.5574 115.016 97.8694C114.712 97.1814 114.56 96.4454 114.56 95.6614C114.56 94.6054 114.784 93.6614 115.232 92.8294C115.68 91.9974 116.328 91.3574 117.176 90.9094C116.376 90.5094 115.744 89.8854 115.28 89.0374C114.8 88.1894 114.56 87.2774 114.56 86.3014ZM121.328 78.2839C120 78.2839 118.824 78.0119 117.8 77.4679C116.776 76.9079 115.984 76.1559 115.424 75.2119C114.848 74.2519 114.56 73.1959 114.56 72.0439C114.56 71.0039 114.768 70.0999 115.184 69.3319C115.584 68.5479 116.088 67.9239 116.696 67.4599L114.776 67.4599L114.776 64.6999L128 64.6999L128 67.4599L126.032 67.4599C126.656 67.9239 127.176 68.5559 127.592 69.3559C128.008 70.1559 128.216 71.0679 128.216 72.0919C128.216 73.2279 127.928 74.2679 127.352 75.2119C126.76 76.1559 125.944 76.9079 124.904 77.4679C123.848 78.0119 122.656 78.2839 121.328 78.2839ZM121.376 67.4599C120.464 67.4599 119.672 67.6519 119 68.0359C118.328 68.4039 117.816 68.8919 117.464 69.4999C117.112 70.1079 116.936 70.7639 116.936 71.4679C116.936 72.1719 117.112 72.8279 117.464 73.4359C117.8 74.0439 118.304 74.5399 118.976 74.9239C119.632 75.2919 120.416 75.4759 121.328 75.4759C122.24 75.4759 123.04 75.2919 123.728 74.9239C124.416 74.5399 124.944 74.0439 125.312 73.4359C125.664 72.8119 125.84 72.1559 125.84 71.4679C125.84 70.7639 125.664 70.1079 125.312 69.4999C124.96 68.8919 124.448 68.4039 123.776 68.0359C123.088 67.6519 122.288 67.4599 121.376 67.4599ZM117.008 57.9142L124.328 57.9142C124.824 57.9142 125.184 57.8022 125.408 57.5782C125.616 57.3382 125.72 56.9382 125.72 56.3782L125.72 54.6982L128 54.6982L128 56.8582C128 58.0902 127.712 59.0342 127.136 59.6902C126.56 60.3462 125.624 60.6742 124.328 60.6742L117.008 60.6742L117.008 62.2342L114.776 62.2342L114.776 60.6742L111.488 60.6742L111.488 57.9142L114.776 57.9142L114.776 54.6982L117.008 54.6982L117.008 57.9142Z" fill="#4A4A4A"/>
<path d="M133.228 150.618C133.228 149.591 133.429 148.691 133.83 147.916C134.231 147.132 134.805 146.53 135.552 146.11C136.289 145.681 137.148 145.466 138.128 145.466C139.108 145.466 139.967 145.681 140.704 146.11C141.432 146.53 141.997 147.132 142.398 147.916C142.799 148.691 143 149.591 143 150.618L143 154.034L133.228 154.034L133.228 150.618ZM141.334 150.688C141.334 149.661 141.054 148.868 140.494 148.308C139.934 147.748 139.145 147.468 138.128 147.468C137.111 147.468 136.317 147.748 135.748 148.308C135.169 148.868 134.88 149.661 134.88 150.688L134.88 152.074L141.334 152.074L141.334 150.688ZM139.094 144.503C138.31 144.503 137.615 144.349 137.008 144.041C136.401 143.724 135.935 143.299 135.608 142.767C135.281 142.226 135.118 141.624 135.118 140.961C135.118 140.382 135.235 139.878 135.468 139.449C135.701 139.01 135.995 138.66 136.35 138.399L135.244 138.399L135.244 136.425L143 136.425L143 138.399L141.866 138.399C142.23 138.651 142.533 139.001 142.776 139.449C143.009 139.888 143.126 140.396 143.126 140.975C143.126 141.628 142.958 142.226 142.622 142.767C142.286 143.299 141.815 143.724 141.208 144.041C140.592 144.349 139.887 144.503 139.094 144.503ZM139.122 138.399C138.646 138.399 138.24 138.492 137.904 138.679C137.559 138.866 137.297 139.118 137.12 139.435C136.933 139.752 136.84 140.093 136.84 140.457C136.84 140.821 136.929 141.157 137.106 141.465C137.283 141.773 137.545 142.025 137.89 142.221C138.226 142.408 138.627 142.501 139.094 142.501C139.561 142.501 139.971 142.408 140.326 142.221C140.671 142.025 140.937 141.773 141.124 141.465C141.311 141.148 141.404 140.812 141.404 140.457C141.404 140.093 141.315 139.752 141.138 139.435C140.951 139.118 140.69 138.866 140.354 138.679C140.009 138.492 139.598 138.399 139.122 138.399ZM136.854 132.229L140.606 132.229C140.867 132.229 141.059 132.168 141.18 132.047C141.292 131.916 141.348 131.701 141.348 131.403L141.348 130.493L143 130.493L143 131.725C143 133.377 142.197 134.203 140.592 134.203L136.854 134.203L136.854 135.127L135.244 135.127L135.244 134.203L133.326 134.203L133.326 132.229L135.244 132.229L135.244 130.493L136.854 130.493L136.854 132.229ZM139.094 129.587C138.31 129.587 137.615 129.433 137.008 129.125C136.401 128.807 135.935 128.383 135.608 127.851C135.281 127.309 135.118 126.707 135.118 126.045C135.118 125.466 135.235 124.962 135.468 124.533C135.701 124.094 135.995 123.744 136.35 123.483L135.244 123.483L135.244 121.509L143 121.509L143 123.483L141.866 123.483C142.23 123.735 142.533 124.085 142.776 124.533C143.009 124.971 143.126 125.48 143.126 126.059C143.126 126.712 142.958 127.309 142.622 127.851C142.286 128.383 141.815 128.807 141.208 129.125C140.592 129.433 139.887 129.587 139.094 129.587ZM139.122 123.483C138.646 123.483 138.24 123.576 137.904 123.763C137.559 123.949 137.297 124.201 137.12 124.519C136.933 124.836 136.84 125.177 136.84 125.541C136.84 125.905 136.929 126.241 137.106 126.549C137.283 126.857 137.545 127.109 137.89 127.305C138.226 127.491 138.627 127.585 139.094 127.585C139.561 127.585 139.971 127.491 140.326 127.305C140.671 127.109 140.937 126.857 141.124 126.549C141.311 126.231 141.404 125.895 141.404 125.541C141.404 125.177 141.315 124.836 141.138 124.519C140.951 124.201 140.69 123.949 140.354 123.763C140.009 123.576 139.598 123.483 139.122 123.483ZM135.132 115.297C135.132 114.373 135.426 113.626 136.014 113.057C136.593 112.487 137.405 112.203 138.45 112.203L143 112.203L143 114.163L138.716 114.163C138.1 114.163 137.629 114.317 137.302 114.625C136.966 114.933 136.798 115.353 136.798 115.885C136.798 116.426 136.966 116.855 137.302 117.173C137.629 117.481 138.1 117.635 138.716 117.635L143 117.635L143 119.595L135.244 119.595L135.244 117.635L136.21 117.635C135.874 117.373 135.613 117.042 135.426 116.641C135.23 116.23 135.132 115.782 135.132 115.297ZM135.118 107.301C135.118 106.722 135.235 106.213 135.468 105.775C135.692 105.336 135.986 104.991 136.35 104.739L135.244 104.739L135.244 102.765L143.056 102.765C143.775 102.765 144.414 102.909 144.974 103.199C145.543 103.488 145.991 103.922 146.318 104.501C146.654 105.079 146.822 105.779 146.822 106.601C146.822 107.702 146.565 108.607 146.052 109.317C145.539 110.017 144.839 110.413 143.952 110.507L143.952 108.561C144.307 108.458 144.587 108.239 144.792 107.903C145.007 107.557 145.114 107.142 145.114 106.657C145.114 106.087 144.941 105.625 144.596 105.271C144.26 104.916 143.747 104.739 143.056 104.739L141.852 104.739C142.216 104.991 142.519 105.341 142.762 105.789C143.005 106.227 143.126 106.731 143.126 107.301C143.126 107.954 142.958 108.551 142.622 109.093C142.286 109.634 141.815 110.063 141.208 110.381C140.592 110.689 139.887 110.843 139.094 110.843C138.31 110.843 137.615 110.689 137.008 110.381C136.401 110.063 135.935 109.639 135.608 109.107C135.281 108.565 135.118 107.963 135.118 107.301ZM139.122 104.739C138.646 104.739 138.24 104.832 137.904 105.019C137.559 105.205 137.297 105.457 137.12 105.775C136.933 106.092 136.84 106.433 136.84 106.797C136.84 107.161 136.929 107.497 137.106 107.805C137.283 108.113 137.545 108.365 137.89 108.561C138.226 108.747 138.627 108.841 139.094 108.841C139.561 108.841 139.971 108.747 140.326 108.561C140.671 108.365 140.937 108.113 141.124 107.805C141.311 107.487 141.404 107.151 141.404 106.797C141.404 106.433 141.315 106.092 141.138 105.775C140.951 105.457 140.69 105.205 140.354 105.019C140.009 104.832 139.598 104.739 139.122 104.739ZM133.06 98.3164L139.822 98.5404L139.822 100.192L133.06 100.43L133.06 98.3164ZM143.098 99.3244C143.098 99.6791 142.991 99.9731 142.776 100.206C142.552 100.43 142.277 100.542 141.95 100.542C141.623 100.542 141.353 100.43 141.138 100.206C140.914 99.9731 140.802 99.6791 140.802 99.3244C140.802 98.9791 140.914 98.6944 141.138 98.4704C141.353 98.2464 141.623 98.1344 141.95 98.1344C142.277 98.1344 142.552 98.2464 142.776 98.4704C142.991 98.6944 143.098 98.9791 143.098 99.3244Z" fill="#4A4A4A"/>
<path d="M247.5 32C247.5 45.531 236.531 56.5 223 56.5H189.5V25C189.5 11.469 200.469 0.5 214 0.5H223C236.531 0.5 247.5 11.469 247.5 25V32Z" fill="#ECA992" stroke="white"/>
<rect x="64" y="23" width="160" height="241" rx="80" fill="white"/>
<mask id="mask0_774_3629" style="mask-type:alpha" maskUnits="userSpaceOnUse" x="65" y="24" width="158" height="239">
<rect x="65" y="24" width="158" height="239" rx="79" fill="white"/>
</mask>
<g mask="url(#mask0_774_3629)">
<path opacity="0.5" d="M64 152H128V216C128 251.346 99.3462 280 64 280V152Z" fill="#CCDEE1"/>
<circle cx="96" cy="184" r="32" fill="#E78669"/>
<rect opacity="0.5" x="128" y="152" width="96" height="113" fill="#488D7F"/>
<path d="M224 216C215.595 216 207.273 214.345 199.508 211.128C191.743 207.912 184.688 203.198 178.745 197.255C172.802 191.312 168.088 184.257 164.872 176.492C161.655 168.727 160 160.405 160 152C160 143.595 161.655 135.273 164.872 127.508C168.088 119.743 172.802 112.688 178.745 106.745C184.688 100.802 191.743 96.088 199.508 92.8717C207.273 89.6554 215.595 88 224 88L224 152L224 216Z" fill="#E78669"/>
<path d="M199.508 211.128C207.273 214.345 215.595 216 224 216L224 152L160 152C160 160.405 161.655 168.727 164.872 176.492C168.088 184.257 172.802 191.312 178.745 197.255C184.688 203.198 191.743 207.912 199.508 211.128Z" fill="#ECA992"/>
<path d="M68.8717 63.5083C65.6554 71.2731 64 79.5954 64 88L128 88L128 24C119.595 24 111.273 25.6554 103.508 28.8717C95.7434 32.088 88.6881 36.8022 82.7452 42.7452C76.8022 48.6881 72.088 55.7434 68.8717 63.5083Z" fill="#ECA992"/>
<path d="M64 88H128V152C92.6538 152 64 123.346 64 88Z" fill="#488D7F"/>
<rect opacity="0.5" x="128" y="24" width="96" height="64" fill="#488D7F"/>
<path d="M192 265C192 256.595 190.345 248.273 187.128 240.508C183.912 232.743 179.198 225.688 173.255 219.745C167.312 213.802 160.257 209.088 152.492 205.872C144.727 202.655 136.405 201 128 201L128 265L192 265Z" fill="url(#paint3_linear_774_3629)"/>
<path d="M160 100C160 104.202 159.172 108.363 157.564 112.246C155.956 116.128 153.599 119.656 150.627 122.627C147.656 125.599 144.128 127.956 140.246 129.564C136.363 131.172 132.202 132 128 132C123.798 132 119.637 131.172 115.754 129.564C111.872 127.956 108.344 125.599 105.373 122.627C102.401 119.656 100.044 116.128 98.4359 112.246C96.8277 108.363 96 104.202 96 100H128H160Z" fill="#E78669"/>
</g>
<path d="M32 254C32 237.431 45.4315 224 62 224H128V258C128 274.569 114.569 288 98 288H47C38.7157 288 32 281.284 32 273V254Z" fill="white"/>
<defs>
<linearGradient id="paint0_linear_774_3629" x1="208.4" y1="270.65" x2="104.804" y2="92.0011" gradientUnits="userSpaceOnUse">
<stop stop-color="#488D7F"/>
<stop offset="1" stop-color="#488D7F" stop-opacity="0.55"/>
</linearGradient>
<linearGradient id="paint1_linear_774_3629" x1="117.6" y1="155.2" x2="64" y2="46.4" gradientUnits="userSpaceOnUse">
<stop stop-color="#488D7F"/>
<stop offset="1" stop-color="#488D7F" stop-opacity="0.55"/>
</linearGradient>
<linearGradient id="paint2_linear_774_3629" x1="208.4" y1="91.2" x2="168.318" y2="-30.8416" gradientUnits="userSpaceOnUse">
<stop stop-color="#488D7F"/>
<stop offset="1" stop-color="#488D7F" stop-opacity="0.55"/>
</linearGradient>
<linearGradient id="paint3_linear_774_3629" x1="181.6" y1="268.2" x2="128" y2="159.4" gradientUnits="userSpaceOnUse">
<stop stop-color="#488D7F"/>
<stop offset="1" stop-color="#488D7F" stop-opacity="0.55"/>
</linearGradient>
</defs>
</svg>
