<svg width="24" height="24" viewBox="0 0 24 24" fill="none" xmlns="http://www.w3.org/2000/svg">
<path d="M23.0081 9.34182H22.0723V9.29361H11.617V13.9404H18.1824C17.2245 16.6454 14.6508 18.5872 11.617 18.5872C7.76771 18.5872 4.6468 15.4663 4.6468 11.617C4.6468 7.76771 7.76771 4.6468 11.617 4.6468C13.3938 4.6468 15.0103 5.31711 16.2412 6.41201L19.527 3.12614C17.4522 1.19249 14.6769 0 11.617 0C5.20152 0 0 5.20152 0 11.617C0 18.0325 5.20152 23.234 11.617 23.234C18.0325 23.234 23.234 18.0325 23.234 11.617C23.234 10.8381 23.1539 10.0778 23.0081 9.34182Z" fill="#FFC107"/>
<path d="M1.33936 6.20987L5.15612 9.00899C6.18888 6.45209 8.69002 4.6468 11.6169 4.6468C13.3937 4.6468 15.0103 5.31711 16.2411 6.41201L19.5269 3.12614C17.4522 1.19249 14.6768 0 11.6169 0C7.15483 0 3.2852 2.51915 1.33936 6.20987Z" fill="#FF3D00"/>
<path d="M11.6169 23.2339C14.6176 23.2339 17.3441 22.0856 19.4056 20.2181L15.8101 17.1757C14.6046 18.0925 13.1315 18.5883 11.6169 18.5871C8.59536 18.5871 6.02974 16.6604 5.06321 13.9717L1.2749 16.8905C3.19752 20.6526 7.102 23.2339 11.6169 23.2339Z" fill="#4CAF50"/>
<path d="M23.0082 9.34167H22.0725V9.29346H11.6172V13.9403H18.1825C17.7244 15.2277 16.8991 16.3526 15.8086 17.1762L15.8103 17.175L19.4058 20.2175C19.1514 20.4487 23.2342 17.4254 23.2342 11.6169C23.2342 10.8379 23.154 10.0776 23.0082 9.34167Z" fill="#1976D2"/>
</svg>
