<svg width="24" height="24" viewBox="0 0 24 24" fill="none" xmlns="http://www.w3.org/2000/svg">
<path fill-rule="evenodd" clip-rule="evenodd" d="M8.68374 22.2335V18.6556C8.68372 17.7456 9.42563 17.0061 10.3448 17H13.7119C14.6355 17 15.3842 17.7413 15.3842 18.6556V18.6556V22.2446C15.384 23.0172 16.007 23.6487 16.7872 23.6668H19.0319C21.2696 23.6668 23.0837 21.871 23.0837 19.6556V19.6556V9.47764C23.0717 8.60613 22.6584 7.78774 21.9613 7.25537L14.2843 1.13301C12.9394 0.0669901 11.0276 0.0669901 9.68265 1.13301L2.03936 7.26648C1.33963 7.79669 0.92561 8.61644 0.916992 9.48875V19.6556C0.916992 21.871 2.73101 23.6668 4.96872 23.6668H7.21345C8.01307 23.6668 8.6613 23.0251 8.6613 22.2335V22.2335" fill="url(#paint0_linear_745_990)"/>
<defs>
<linearGradient id="paint0_linear_745_990" x1="19.4816" y1="24.8335" x2="-0.663559" y2="-14.0135" gradientUnits="userSpaceOnUse">
<stop stop-color="#488D7F"/>
<stop offset="1" stop-color="#488D7F" stop-opacity="0.55"/>
</linearGradient>
</defs>
</svg>
