<svg width="77" height="115" viewBox="0 0 77 115" fill="none" xmlns="http://www.w3.org/2000/svg">
<path d="M28.3836 32.5784C27.816 32.5658 27.3493 33.0325 27.3493 33.6001C27.3367 34.1677 27.8034 34.6344 28.371 34.6344C28.9386 34.6344 29.4053 34.1803 29.4053 33.6127C29.4053 33.0577 28.9386 32.591 28.3836 32.5784Z" fill="#20140F"/>
<path d="M40.4164 25.8177C40.1515 26.0195 39.9876 26.3979 40.1263 26.7006C40.2272 26.915 40.4417 27.0411 40.6687 27.1042C40.8957 27.1673 41.1228 27.1547 41.3624 27.1673C41.9931 27.1925 42.6364 27.3313 43.1535 27.6844C43.431 27.8736 43.6581 28.1133 43.9482 28.2773C44.2383 28.4412 44.6167 28.4917 44.8816 28.3025C45.1465 28.1133 45.2095 27.7475 45.1212 27.4448C45.0329 27.1421 44.8059 26.8898 44.5662 26.6754C43.6202 25.8303 42.2832 25.4266 41.0219 25.5906C41.0219 25.5528 40.6813 25.6158 40.4164 25.8177Z" fill="#323B6E"/>
<path d="M29.9977 41.1051C29.9851 41.9376 30.477 42.7197 31.0699 43.2999C32.0411 44.2459 33.3403 44.8261 34.6899 44.9396C36.0396 45.0532 37.4144 44.7252 38.5622 44.0189C39.0794 43.7035 39.5587 43.2999 39.8614 42.7827C40.1641 42.2656 40.2777 41.6097 40.0632 41.0421C39.6722 40.0582 38.4487 39.6924 37.3892 39.7303C36.3297 39.7681 35.2701 40.0708 34.2232 39.869C33.252 39.6798 32.2681 39.0618 31.3348 39.4023C30.7167 39.642 30.0104 40.26 29.9977 41.1051Z" fill="white"/>
<path d="M63.436 101.549C66.6398 91.6477 72.4798 83.0075 78.3955 74.3799L78.4333 74.4051C79.7451 75.6664 80.3632 76.7764 80.9812 78.4792C82.23 81.8975 82.1291 85.6689 81.6245 89.2637C80.6028 96.5795 78.0423 103.58 75.4944 110.505C74.4601 113.305 73.4384 116.092 72.4041 118.893L61.6449 118.905H58.0879L63.436 101.549Z" fill="#323B6E"/>
<path d="M41.5142 32.73C40.9466 32.73 40.4799 33.1841 40.4799 33.7517C40.4799 34.3193 40.934 34.786 41.5016 34.786C42.0692 34.7986 42.5359 34.3319 42.5359 33.7643C42.5485 33.1967 42.0944 32.7426 41.5142 32.73Z" fill="#20140F"/>
<path d="M25.9239 27.2431C25.823 27.5458 25.8861 27.9242 26.151 28.1134C26.4158 28.3153 26.7942 28.2648 27.097 28.1008C27.3871 27.9495 27.6267 27.7098 27.9042 27.5332C28.434 27.1927 29.0773 27.0665 29.7079 27.0539C29.935 27.0539 30.1746 27.0539 30.4017 27.0035C30.6287 26.953 30.8432 26.8269 30.9441 26.6125C31.0954 26.3097 30.9314 25.9313 30.6666 25.7169C30.4017 25.5025 30.0611 25.4268 30.0611 25.4899C28.7998 25.288 27.4628 25.6664 26.4915 26.4989C26.2519 26.6881 26.0248 26.9404 25.9239 27.2431Z" fill="#323B6E"/>
<path d="M26.5042 16.2566C28.9134 17.745 32.0163 18.3252 35.0435 18.4388C36.9229 18.5018 38.7897 18.4135 40.6565 18.3252C41.5016 18.2874 42.435 18.1487 43.2801 18.2117C43.9738 18.2622 48.9561 19.0568 52.1725 24.1526C52.286 24.3292 52.3996 24.4932 52.5131 24.6698C54.5691 27.9871 55.4394 32.1622 54.4051 35.921C54.3673 36.0723 54.4303 36.2489 54.5312 36.375C54.6448 36.5012 54.7961 36.5642 54.9475 36.6273C55.2502 36.7408 55.6034 36.7661 55.9061 36.6652C56.2214 36.5642 56.4863 36.312 56.5494 35.984C57.1296 35.1011 58.0378 34.4326 59.0468 34.2812C59.4126 34.2182 59.7784 34.2308 60.1442 34.2938C60.2451 34.0794 60.3586 33.8524 60.4595 33.6379C62.5281 28.643 63.4994 22.8913 61.0019 18.2748C59.0468 14.6674 55.3006 12.3717 51.4662 10.9086C47.6317 9.4454 43.5576 8.65076 39.7609 7.08669C37.3518 5.51002 34.5894 4.05947 31.6 3.87027C29.7332 3.75675 27.8538 4.13515 26.1763 4.98025C25.4195 5.35865 24.7005 5.83796 24.1455 6.46863C23.0229 7.74259 22.6571 9.59676 22.9851 11.2617C23.313 12.9267 24.2969 14.4277 25.533 15.5881C25.8609 15.8404 26.1763 16.0548 26.5042 16.2566Z" fill="#323B6E"/>
<path d="M56.9529 42.0512C58.3656 42.644 60.1063 42.4674 61.3298 41.534C62.8308 40.3862 63.4236 38.1915 62.7173 36.4382C62.5281 35.9589 62.238 35.5174 61.8722 35.1517C61.4055 34.6976 60.8 34.3948 60.1567 34.2813C59.791 34.2183 59.4252 34.2057 59.0594 34.2687C58.0503 34.4327 57.1421 35.0886 56.5619 35.9715C56.4989 36.2869 56.2214 36.5517 55.9186 36.6526C55.6033 36.7536 55.2627 36.7157 54.96 36.6148C54.8087 36.5644 54.6573 36.4887 54.5438 36.3625C54.4303 36.2364 54.3672 36.0724 54.4176 35.9085C55.4519 32.1497 54.5816 27.9746 52.5256 24.6573C52.4121 24.4807 52.2986 24.3167 52.1851 24.1401C48.9686 19.0569 43.9863 18.2623 43.2926 18.1992C42.4475 18.1362 41.5267 18.2749 40.669 18.3127C38.8022 18.401 36.9228 18.4893 35.056 18.4263C32.0414 18.3127 28.9259 17.7325 26.5168 16.2441C25.8482 18.7038 25.1671 21.1634 24.4986 23.623C21.9129 33.0704 21.3705 40.4115 22.9598 45.4316C23.8806 48.3327 25.5077 50.4643 27.8538 51.8014C30.4521 53.2771 33.3785 54.1222 36.3678 54.3493C36.2039 55.0808 35.9894 55.7998 35.7372 56.4936C35.4723 57.2251 35.157 57.9693 34.602 58.5243C34.5389 58.5874 34.4758 58.6378 34.4128 58.6883C36.33 61.0975 39.6473 62.1318 42.6998 61.7533C45.7901 61.3623 48.6029 59.6847 50.848 57.5279L51.0372 57.49C50.9237 56.8593 51.1129 56.1908 51.3021 55.5728C52.7274 50.9184 54.7582 46.4785 56.8016 42.0638L56.9529 42.0512ZM26.151 28.1134C25.8987 27.9242 25.8356 27.5458 25.9239 27.243C26.0248 26.9403 26.2519 26.7007 26.4915 26.4862C27.4628 25.6664 28.7998 25.288 30.0611 25.4772C30.0611 25.4141 30.4017 25.5024 30.6666 25.7042C30.9315 25.9186 31.0828 26.297 30.9441 26.5998C30.8432 26.8142 30.6161 26.9403 30.4017 26.9908C30.1746 27.0412 29.935 27.0286 29.708 27.0412C29.0773 27.0538 28.434 27.18 27.9042 27.5205C27.6267 27.6971 27.3871 27.9368 27.097 28.0881C26.7943 28.2521 26.4159 28.3026 26.151 28.1134ZM27.3366 33.6002C27.3366 33.0326 27.8033 32.5785 28.3709 32.5785C28.9385 32.5785 29.3926 33.0452 29.3926 33.6128C29.3926 34.1804 28.9259 34.6345 28.3583 34.6345C27.7907 34.6345 27.3366 34.1678 27.3366 33.6002ZM31.0702 43.2999C30.4648 42.7197 29.9855 41.9377 29.9981 41.1052C30.0107 40.2727 30.717 39.6546 31.3477 39.415C32.2811 39.0744 33.2523 39.6925 34.2362 39.8817C35.2705 40.0835 36.3426 39.7808 37.4021 39.7429C38.4617 39.7051 39.6852 40.0583 40.0762 41.0547C40.3032 41.6223 40.1897 42.2782 39.8744 42.7954C39.5716 43.3125 39.0923 43.7162 38.5752 44.0315C37.4274 44.7378 36.0525 45.0784 34.7029 44.9523C33.3532 44.8261 32.0414 44.2333 31.0702 43.2999ZM40.1266 26.7133C39.9879 26.4106 40.1519 26.0322 40.4167 25.8303C40.6816 25.6285 41.0222 25.5528 41.0222 25.6159C42.2835 25.4519 43.6079 25.8556 44.5666 26.7007C44.8062 26.9151 45.0333 27.1674 45.1215 27.4701C45.2098 27.7728 45.1342 28.1512 44.8819 28.3278C44.617 28.517 44.226 28.4539 43.9485 28.3026C43.6584 28.1386 43.4314 27.8989 43.1539 27.7097C42.6367 27.3566 41.9934 27.2178 41.3627 27.1926C41.1357 27.18 40.8961 27.1926 40.669 27.1295C40.442 27.0538 40.2149 26.9277 40.1266 26.7133ZM40.4798 33.7516C40.4924 33.184 40.9465 32.7299 41.5141 32.7299C42.0817 32.7425 42.5358 33.1966 42.5358 33.7642C42.5358 34.3318 42.0691 34.7859 41.5015 34.7859C40.9339 34.7859 40.4798 34.3192 40.4798 33.7516Z" fill="#FEA77C"/>
<path d="M7.72295 89.755C7.98783 88.6703 8.2401 87.5981 8.49237 86.5134C7.63466 71.0241 -0.185661 45.6459 0.00354004 29.8287C0.192741 14.0114 2.70281 2.25574 7.14274 -12.9308C7.23103 -13.2083 7.29409 -13.4732 7.34454 -13.7381C11.4565 -13.284 15.6568 -13.5741 19.6805 -14.5832C19.7057 -14.5958 19.7435 -14.5958 19.7688 -14.6084C18.129 -1.42738 18.293 11.8419 19.3399 24.9977C19.8949 31.9099 20.7148 38.8977 22.8212 45.4819C23.3888 47.273 24.0573 49.0263 24.8394 50.7543C26.4413 54.2861 28.8 57.8305 32.4452 59.117C33.1011 59.3693 33.8453 59.1422 34.4003 58.7008C36.3176 61.1099 39.6349 62.1442 42.6873 61.7658C45.7776 61.3748 48.5904 59.6972 50.8356 57.5403L51.0248 57.5025C51.0374 57.553 51.0374 57.6034 51.05 57.6413C51.214 58.3224 51.8699 58.9278 52.551 58.8017L52.6267 58.8269C61.002 54.0717 64.4076 48.7488 68.4061 42.1394C72.4172 35.5173 75.293 28.2898 77.9671 21.0371C81.8646 10.4545 85.3964 -0.26694 88.5119 -11.1019L88.5749 -11.0893C93.2293 -9.71439 97.48 -8.68009 102.286 -8.69271C102.311 -8.83145 102.349 -8.9702 102.374 -9.10895C102.273 -8.17555 100.268 36.2111 90.1012 55.7871C86.7334 62.2704 82.5331 68.3248 78.3833 74.3793C72.4676 83.0068 66.6276 91.647 63.4238 101.549V101.574C63.4238 101.574 63.4238 101.574 63.4112 101.574L58.0757 118.93L47.6444 118.955L0.67205 119.018V118.955C3.03076 109.218 5.37685 99.48 7.72295 89.755Z" fill="#FF5C6C"/>
<path d="M36.4183 59.1549C36.5949 59.1297 36.7967 59.2306 36.9481 59.054C37.0742 59.2306 37.2508 59.1549 37.4274 59.1549C37.4778 59.0792 37.5283 59.0036 37.5787 58.9279C37.5409 58.89 37.503 58.8522 37.4652 58.8143C37.4274 58.8143 37.3895 58.8143 37.2129 58.8774C37.1499 58.8522 37.1751 58.8143 37.1877 58.8143C37.2382 58.827 37.3012 58.8522 37.3517 58.8648C37.276 58.89 37.2129 58.9026 37.2129 58.8774C37.3643 58.7765 37.3769 58.7513 37.3895 58.7134C37.4148 58.7513 37.44 58.7765 37.4652 58.8143C37.503 58.8522 37.5409 58.89 37.5787 58.9279C37.6796 58.9279 37.7679 58.9279 37.8562 58.9279C37.9319 58.7765 37.995 58.6125 38.0833 58.4864C38.2094 58.3224 38.1968 58.1837 38.0454 58.0449C38.1211 57.944 38.2094 57.8305 38.3481 57.6413C38.3734 57.8936 38.386 58.0323 38.4112 58.2215C38.5121 58.2215 38.6256 58.2215 38.7392 58.2215C38.777 58.1837 38.8148 58.1458 38.8653 58.1206C38.8401 57.9945 38.8022 57.881 38.7644 57.7674C38.9788 57.7674 39.1806 57.7674 39.3824 57.7674C39.4455 57.8305 39.496 57.881 39.5464 57.944C39.5338 57.9692 39.5086 57.9819 39.496 58.0071C39.3824 57.9566 39.2815 57.9062 39.168 57.8683C39.0545 57.9692 38.9662 58.0575 38.8653 58.1206C38.8148 58.1458 38.777 58.1837 38.7392 58.2215C38.6635 58.4738 38.4364 58.2341 38.2977 58.3855C38.2725 58.499 38.222 58.6251 38.2094 58.7008C38.2472 58.7891 38.2851 58.8774 38.3481 59.0035C38.4869 58.8143 38.5752 58.6882 38.6761 58.5621C38.7265 58.6125 38.7644 58.6378 38.8275 58.6882C38.941 58.5369 39.0545 58.3855 39.168 58.2341C39.2689 58.3729 39.168 58.7008 39.5338 58.6882C39.5464 58.5873 39.559 58.4864 39.5716 58.3855C39.723 58.335 39.8744 58.272 40.0257 58.2215C39.9879 58.0828 39.95 57.944 39.9122 57.8053C40.1645 57.6035 40.3663 57.9062 40.5933 57.8557C40.7951 57.8179 40.997 57.7044 41.1988 57.6287C41.1988 57.5152 41.1988 57.4016 41.1988 57.2503C41.2871 57.326 41.3249 57.3512 41.3627 57.3764C41.5015 57.3007 41.6402 57.2377 41.7916 57.162C41.7916 57.1242 41.7916 57.0863 41.7916 57.0232C41.5646 56.9602 41.3375 56.9223 41.1105 56.8845C41.224 56.7962 41.3249 56.7205 41.4384 56.6448C41.388 56.5692 41.3628 56.5439 41.2618 56.3926C41.5267 56.5061 41.6655 56.5692 41.8042 56.6196C41.8042 56.771 41.8042 56.9097 41.8042 57.0232C41.8421 57.0485 41.8673 57.0611 41.9051 57.0737C41.8673 57.0989 41.8421 57.1241 41.8042 57.1494C41.8421 57.2881 41.8799 57.4269 41.9177 57.5656C41.8925 57.5404 41.8673 57.5278 41.8547 57.5025C41.8294 57.5908 41.7916 57.6791 41.7538 57.8053C41.7033 57.6413 41.6781 57.5782 41.6402 57.4647C41.4889 57.5152 41.3627 57.5782 41.2366 57.6287C41.3501 57.7296 41.4763 57.8179 41.552 57.8936C41.5141 58.0197 41.4889 58.1206 41.4637 58.2089C41.5772 58.1963 41.7033 58.2215 41.7916 58.1584C41.9934 58.0323 42.17 58.0575 42.3592 58.1837C42.498 58.0828 42.5106 57.8305 42.7502 57.7927C42.7124 57.5782 42.6619 57.3638 42.6241 57.1494C42.5863 57.1115 42.5484 57.0737 42.5484 57.0359C42.3718 56.9854 42.2331 56.9476 42.0943 56.9097C42.0817 56.9097 42.0691 56.8593 42.0565 56.834C42.1574 56.7836 42.2457 56.7457 42.3592 56.6953C42.4097 56.7836 42.4727 56.8719 42.5358 57.0359C42.5358 57.0737 42.5736 57.1115 42.6115 57.1494C42.6872 57.1494 42.7628 57.1494 42.8511 57.1494C42.8511 57.0485 42.8511 56.9602 42.8511 56.834C43.0908 56.834 43.3304 56.834 43.5953 56.834C43.7215 56.6701 43.8476 56.5187 43.9737 56.3547C43.999 56.3673 44.0368 56.4052 44.0999 56.4683C44.2638 56.3547 44.4404 56.2412 44.6801 56.0772C44.5161 56.0142 44.4026 55.9763 44.2764 55.9385C44.3017 55.888 44.3395 55.8124 44.3521 55.7493C44.3647 55.6736 44.3521 55.5979 44.4278 55.4087C44.4026 55.3961 44.3521 55.4592 44.2638 55.5475C44.2512 55.4339 44.2512 55.3583 44.2386 55.27C44.3269 55.2826 44.3774 55.2826 44.4278 55.3961C44.4152 55.5349 44.4783 55.5727 44.5792 55.6358C44.8945 55.2826 45.3864 55.3078 45.8279 55.1943C45.8531 55.2321 45.891 55.3204 45.9162 55.3961C45.9666 55.3961 46.0045 55.3961 46.0802 55.3961C46.0928 55.2952 46.0928 55.1943 46.1054 55.1186C45.9036 55.0177 45.7396 54.942 45.5504 54.8537C45.5504 54.8537 45.5126 54.879 45.4621 54.9294C45.4369 54.8916 45.4243 54.8537 45.3738 54.7654C45.6261 54.6645 45.8279 54.4123 46.118 54.7528C46.2189 54.6267 46.2946 54.5258 46.3703 54.4249C46.1811 54.2861 45.8405 54.3997 45.8784 54.0212C46.0802 53.9077 46.3198 54.3366 46.5216 53.9708C46.5469 54.0465 46.5595 54.0969 46.5847 54.1978C46.673 54.2231 46.7991 54.2357 46.9253 54.2735C46.8874 54.324 46.8622 54.3492 46.8748 54.3366C46.9757 54.4375 47.064 54.5258 47.1649 54.6267C47.1397 54.6519 47.1145 54.6772 47.0892 54.7024C47.2658 54.7024 47.4424 54.7024 47.619 54.7024C47.5938 54.6015 47.5686 54.5006 47.5307 54.3618C47.619 54.387 47.7073 54.4123 47.8334 54.4501C47.8713 54.387 47.9343 54.2861 48.0605 54.0591C47.846 54.1474 47.7451 54.1852 47.619 54.2357C47.5559 54.2105 47.4676 54.16 47.3289 54.0969C47.2911 54.1852 47.2532 54.2609 47.2154 54.3492C47.1523 54.1852 47.0766 54.0339 47.0136 53.8573C46.9379 53.9203 46.9 53.9582 46.8622 53.996C46.8117 53.9456 46.7487 53.8825 46.6856 53.8194C46.8874 53.7438 47.0766 53.6807 47.3037 53.5924C47.228 53.4789 47.1649 53.3906 47.1145 53.3023C46.9505 53.378 46.8874 53.5924 46.673 53.5419C46.5342 53.6555 46.5343 53.6555 46.3324 53.5546C46.4586 53.5546 46.5721 53.5546 46.673 53.5419C46.8244 53.3654 46.9757 53.2014 47.1397 52.9996C47.2406 53.1635 47.3163 53.2771 47.4046 53.4032C47.5307 53.4032 47.6695 53.4032 47.8208 53.4032C47.8334 53.3149 47.8587 53.2014 47.8713 53.0752C47.9343 53.1131 47.9848 53.1383 48.0352 53.1761C48.2749 53.0374 48.1866 52.8104 48.1992 52.6085C48.0352 52.5833 47.8839 52.5455 47.6695 52.5076C47.6568 52.5203 47.5938 52.5581 47.5433 52.5959C47.5307 52.5581 47.4929 52.5203 47.5055 52.495C47.5307 52.432 47.5685 52.3689 47.6064 52.3058C47.5812 52.2932 47.5433 52.2554 47.5181 52.2554C47.0136 52.4572 46.5216 52.659 46.0171 52.8482C45.7774 52.9365 45.5378 53.0122 45.2981 53.1005C45.0711 53.1762 44.8567 53.2644 44.6296 53.3149C44.1882 53.4032 43.7593 53.5419 43.3304 53.6807C43.0277 53.769 42.7376 53.8825 42.4223 53.8825C42.0817 53.8825 41.779 54.0717 41.4258 54.0591C41.3627 54.0591 41.2871 54.1095 41.2114 54.1095C40.9465 54.1222 40.6942 54.1222 40.442 54.2105C40.2023 54.2987 39.9374 54.2105 39.6725 54.324C39.4833 54.4123 39.2185 54.3366 38.941 54.3366C39.0167 54.4249 39.0419 54.4627 39.0923 54.5258C39.0293 54.5384 38.9662 54.5636 38.8905 54.5762C38.8653 54.4879 38.8401 54.4249 38.8022 54.3492C38.3608 54.3492 37.9193 54.3492 37.4274 54.3492C37.4778 54.4123 37.4904 54.4501 37.5535 54.5132C37.4652 54.5384 37.3643 54.5762 37.2508 54.6267C37.2508 54.6393 37.2255 54.5384 37.2129 54.4627C37.1877 54.4753 37.2634 54.4375 37.3265 54.3997C37.2634 54.2987 37.0363 54.2987 36.5066 54.387C36.5823 54.4249 36.6579 54.4753 36.7336 54.5132C36.7462 54.5132 36.7336 54.551 36.7336 54.6267C36.6327 54.6519 36.5192 54.6771 36.4057 54.715C36.3805 54.7781 36.3552 54.8537 36.33 54.9294C36.2795 54.879 36.2417 54.8411 36.1912 54.8159C35.6741 56.6575 35.3083 57.5026 34.6146 58.3098C34.6524 58.3855 34.6903 58.4612 34.7407 58.5495C34.829 58.499 34.9299 58.4612 35.0434 58.3981C35.0687 58.4864 35.0939 58.5369 35.0813 58.5873C35.0687 58.6378 35.0182 58.6756 34.9804 58.7261C35.0182 58.7639 35.0434 58.8143 35.0939 58.8396C35.22 58.9153 35.3462 58.9657 35.4849 59.0414C35.611 58.7891 35.7372 58.5495 35.8633 58.2846C35.9264 58.3224 35.9894 58.3477 36.0903 58.4107C35.9642 58.5495 35.8633 58.663 35.7624 58.7639C35.8255 58.8522 35.8633 58.9026 35.9011 58.9657C35.8759 58.9909 35.8507 59.0162 35.7876 59.0792C35.9011 59.1549 36.0147 59.2306 36.1282 59.3189C36.1408 59.3946 36.1408 59.4829 36.1534 59.5838C36.2543 59.5838 36.3426 59.5838 36.4435 59.5838C36.4561 59.5585 36.494 59.5207 36.4814 59.4955C36.494 59.3946 36.4435 59.281 36.4183 59.1549L36.4057 59.1675C36.3678 59.1423 36.3426 59.1171 36.3048 59.0918C36.3174 59.0792 36.33 59.0666 36.3426 59.054C36.3678 59.0792 36.3931 59.1171 36.4183 59.1549ZM36.8724 57.9819C36.885 57.9945 36.885 57.9945 36.8976 58.0071C36.8724 58.0449 36.8471 58.0702 36.8219 58.108C36.8093 58.0954 36.7967 58.0828 36.7841 58.0702C36.8219 58.0449 36.8471 58.0197 36.8976 58.0071C36.885 57.9945 36.8724 57.9819 36.8724 57.9819C36.8976 57.9566 36.9228 57.9188 36.9481 57.8936C36.9607 57.9062 36.9733 57.9188 36.9859 57.9314C36.9481 57.944 36.9228 57.9693 36.8724 57.9819ZM42.5358 57.5025C42.4601 57.5908 42.4349 57.6413 42.4223 57.6287C42.3718 57.6161 42.3088 57.5908 42.2583 57.5782C42.334 57.553 42.3971 57.5404 42.17 57.6287C42.2079 57.6287 42.2331 57.6287 42.2709 57.6287C42.2583 57.7044 42.2457 57.7801 42.2205 57.8557C42.1952 57.8557 42.17 57.8431 42.1448 57.8431C42.1448 57.78 42.1448 57.717 42.5358 57.5025ZM37.4274 58.4612C37.2508 58.4864 37.1499 58.3729 37.112 58.2089C37.1373 58.0575 37.4147 58.1584 37.3643 57.944C37.3643 57.944 37.503 57.9062 37.604 57.8683C37.5409 58.0954 37.4904 58.272 37.3643 58.5369C37.5787 58.4486 37.6922 58.4107 37.831 58.3477C37.8184 58.4359 37.8184 58.499 37.8058 58.5747C37.6544 58.5747 37.5535 58.5621 37.4274 58.4612ZM44.2134 55.3204C43.7845 55.5475 43.6962 55.6736 43.7971 55.8502C43.8602 55.8754 43.9359 55.9006 43.999 55.9259C43.9863 56.052 44.0872 56.216 43.8854 56.2412C43.5701 55.9763 43.6836 55.6358 43.6584 55.3078C43.8224 55.3204 43.9485 55.3204 44.2134 55.3204ZM40.6942 57.4395C40.5807 57.5278 40.505 57.5782 40.4167 57.6413C40.3537 57.5152 40.3158 57.4269 40.2654 57.326C40.3158 57.2755 40.3663 57.2251 40.4294 57.1746C40.505 57.2377 40.5555 57.2881 40.6942 57.4395ZM36.2922 58.5495C36.2922 58.5242 36.2922 58.5116 36.2922 58.4864C36.3678 58.4864 36.4435 58.4864 36.5318 58.4864C36.5318 58.5116 36.5318 58.5242 36.5318 58.5495C36.4435 58.5495 36.3678 58.5495 36.2922 58.5495ZM42.8511 56.3295C42.8511 56.2917 42.8637 56.2664 42.8637 56.2286C42.9268 56.2412 42.9899 56.2538 43.053 56.2791C43.053 56.2917 43.0529 56.3169 43.0403 56.3295C42.9773 56.3295 42.9142 56.3295 42.8511 56.3295ZM43.2043 55.5349C43.2295 55.5349 43.2421 55.5349 43.2674 55.5349C43.2674 55.6105 43.2674 55.6862 43.2674 55.7745C43.2421 55.7745 43.2295 55.7745 43.2043 55.7745C43.2043 55.6988 43.2043 55.6105 43.2043 55.5349ZM39.559 54.5132C39.559 54.5384 39.559 54.551 39.559 54.5762C39.4834 54.5762 39.4077 54.5762 39.3194 54.5762C39.3194 54.551 39.3194 54.5384 39.3194 54.5132C39.4077 54.5132 39.4834 54.5132 39.559 54.5132ZM41.9304 56.5944C41.943 56.5944 41.9556 56.5944 41.9682 56.5944C41.9682 56.6322 41.9682 56.6701 41.9682 56.7079C41.9556 56.7079 41.943 56.7079 41.9304 56.7079C41.9304 56.6701 41.9304 56.6322 41.9304 56.5944ZM42.2457 57.2124C42.2457 57.2251 42.2457 57.2377 42.2457 57.2503C42.2078 57.2503 42.17 57.2503 42.1322 57.2503C42.1322 57.2377 42.1322 57.2251 42.1322 57.2124C42.17 57.2124 42.2078 57.2124 42.2457 57.2124ZM39.6725 57.2124C39.6725 57.2251 39.6725 57.2377 39.6725 57.2503C39.6347 57.2503 39.5969 57.2503 39.559 57.2503C39.559 57.2377 39.559 57.2251 39.559 57.2124C39.5969 57.2124 39.6347 57.2124 39.6725 57.2124ZM40.1519 57.326C40.1519 57.3386 40.1519 57.3512 40.1519 57.3638C40.114 57.3638 40.0762 57.3638 40.0383 57.3638C40.0383 57.3512 40.0383 57.3386 40.0383 57.326C40.0636 57.326 40.1014 57.326 40.1519 57.326ZM37.8941 58.108C37.8814 58.108 37.8688 58.108 37.8562 58.108C37.8562 58.0702 37.8562 58.0323 37.8562 57.9945C37.8688 57.9945 37.8814 57.9945 37.8941 57.9945C37.8941 58.0323 37.8941 58.0702 37.8941 58.108ZM35.6363 58.108C35.6489 58.108 35.6615 58.108 35.6741 58.108C35.6741 58.1458 35.6741 58.1837 35.6741 58.2215C35.6615 58.2215 35.6489 58.2215 35.6363 58.2215C35.6363 58.1837 35.6363 58.1458 35.6363 58.108ZM47.0388 52.6968C47.0388 52.6842 47.0388 52.6716 47.0388 52.659C47.0766 52.659 47.1145 52.659 47.1523 52.659C47.1523 52.6716 47.1523 52.6842 47.1523 52.6968C47.1145 52.6968 47.0766 52.6968 47.0388 52.6968ZM45.9036 53.441C45.9162 53.441 45.9288 53.441 45.9414 53.441C45.9414 53.4789 45.9414 53.5167 45.9414 53.5546C45.9288 53.5546 45.9162 53.5546 45.9036 53.5546C45.9036 53.5167 45.9036 53.4789 45.9036 53.441ZM45.0837 54.0212C45.0963 54.0212 45.1089 54.0212 45.1215 54.0212C45.1215 54.0591 45.1215 54.0969 45.1215 54.1348C45.1089 54.1348 45.0963 54.1348 45.0837 54.1348C45.0837 54.0969 45.0837 54.0591 45.0837 54.0212ZM45.4747 54.4879C45.4621 54.4879 45.4495 54.4879 45.4369 54.4879C45.4369 54.4501 45.4369 54.4123 45.4369 54.3744C45.4495 54.3744 45.4621 54.3744 45.4747 54.3744C45.4747 54.4123 45.4747 54.4501 45.4747 54.4879ZM38.0454 54.6393C38.0454 54.6519 38.0454 54.6645 38.0454 54.6771C38.0076 54.6771 37.9697 54.6771 37.9319 54.6771C37.9319 54.6645 37.9319 54.6519 37.9319 54.6393C37.9697 54.6393 38.0076 54.6393 38.0454 54.6393ZM39.5969 54.7276C39.6095 54.7276 39.6221 54.7276 39.6347 54.7276C39.6347 54.7654 39.6347 54.8033 39.6347 54.8411C39.6221 54.8411 39.6095 54.8411 39.5969 54.8411C39.5969 54.8033 39.5969 54.7654 39.5969 54.7276ZM45.2477 55.0682C45.2351 55.0682 45.2225 55.0682 45.2098 55.0682C45.2098 55.0303 45.2098 54.9925 45.2098 54.9546C45.2225 54.9546 45.2351 54.9546 45.2477 54.9546C45.2477 54.9925 45.2477 55.0303 45.2477 55.0682ZM39.2059 54.9925C39.2059 55.0051 39.2059 55.0177 39.2059 55.0303C39.168 55.0303 39.1302 55.0303 39.0923 55.0303C39.0923 55.0177 39.0923 55.0051 39.0923 54.9925C39.1302 54.9925 39.168 54.9925 39.2059 54.9925ZM36.2165 55.3078C36.2291 55.3078 36.2417 55.3078 36.2543 55.3078C36.2543 55.3457 36.2543 55.3835 36.2543 55.4213C36.2417 55.4213 36.2291 55.4213 36.2165 55.4213C36.2165 55.3835 36.2165 55.3457 36.2165 55.3078ZM36.6453 55.6105C36.6453 55.5979 36.6453 55.5853 36.6453 55.5727C36.6832 55.5727 36.721 55.5727 36.7589 55.5727C36.7589 55.5853 36.7589 55.5979 36.7589 55.6105C36.721 55.6105 36.6832 55.6105 36.6453 55.6105Z" fill="#F57D77"/>
<path d="M42.8005 57.3134C43.0275 57.4269 43.2167 57.5152 43.4564 57.6287C43.4942 57.6035 43.5573 57.5404 43.6204 57.49C43.6582 57.3891 43.5195 57.3134 43.2167 57.2755C43.1915 57.162 43.1789 57.0485 43.1537 56.9224C42.8636 56.9602 42.9392 57.2125 42.8005 57.3134Z" fill="#F57D77"/>
<path d="M39.9626 58.2217C40.0383 58.3478 40.0761 58.4109 40.1013 58.4739C40.1266 58.5244 40.1392 58.5749 40.1644 58.6379C40.2653 58.6884 40.3915 58.7514 40.5302 58.8145C40.5933 58.7514 40.6437 58.701 40.6689 58.6884C40.5302 58.5496 40.3914 58.4109 40.2022 58.2217C40.2149 58.2217 40.1266 58.2217 39.9626 58.2217Z" fill="#F57D77"/>
<path d="M45.752 55.838C45.7393 55.6993 45.7393 55.5605 45.7267 55.4092C45.424 55.447 45.3609 55.7245 45.1465 55.8128C45.2222 55.8885 45.2726 55.9389 45.3483 56.0146C45.4745 55.9642 45.6006 55.9137 45.752 55.838Z" fill="#F57D77"/>
<path d="M46.5846 54.5132C46.5846 54.715 46.5846 54.8033 46.5846 54.9042C46.7612 54.9294 46.9125 55.1943 47.2026 54.9925C47.0134 54.8411 46.8495 54.715 46.5846 54.5132Z" fill="#F57D77"/>
<path d="M48.0103 53.5674C47.8589 53.5674 47.7706 53.5674 47.6697 53.5674C47.7328 53.7818 47.2534 53.7187 47.4174 54.0215C47.7958 53.8827 47.7958 53.8827 48.0103 53.5674Z" fill="#F57D77"/>
<path d="M43.8856 57.1369C44.1 57.0864 44.2766 57.0486 44.4658 57.0107C44.4658 56.9477 44.4532 56.8972 44.4406 56.7963C44.3397 56.8341 44.264 56.8594 44.1883 56.8846C44.0622 56.8594 43.9361 56.8341 43.709 56.7837C43.8099 56.9729 43.8604 57.0864 43.8856 57.1369Z" fill="#F57D77"/>
<path d="M48.2748 52.6215C48.3379 52.5458 48.401 52.4575 48.4893 52.344C48.2622 52.2683 48.0856 52.2052 47.909 52.1548C47.8838 52.2052 47.8712 52.2305 47.846 52.2809C47.9721 52.3818 48.0982 52.4827 48.2748 52.6215Z" fill="#F57D77"/>
<path d="M44.8439 56.7838C45.0205 56.8091 45.1214 56.8217 45.235 56.8343C45.2602 56.746 45.2854 56.6829 45.3232 56.6199C45.3359 56.582 45.3737 56.5694 45.3989 56.5316C45.3485 56.4811 45.2854 56.418 45.2223 56.355C45.1088 56.4811 45.0079 56.5946 44.8439 56.7838Z" fill="#F57D77"/>
<path d="M43.1917 57.9943C43.1917 58.1079 43.1917 58.2088 43.1917 58.3223C43.3052 58.3223 43.4187 58.3223 43.5322 58.3223C43.5196 58.07 43.3935 57.9817 43.1917 57.9943Z" fill="#F57D77"/>
<path d="M48.5646 53.832C48.5646 54.0212 48.5646 54.1095 48.5646 54.2357C48.6529 54.2357 48.7538 54.2483 48.8799 54.2609C48.9304 54.0212 48.779 53.9582 48.5646 53.832Z" fill="#F57D77"/>
<path d="M41.4136 58.1587C41.2622 58.2596 41.1739 58.3101 41.0478 58.3983C41.1739 58.474 41.2748 58.5371 41.4136 58.6254C41.4136 58.4488 41.4136 58.3353 41.4136 58.1587Z" fill="#F57D77"/>
<path d="M39.0293 59.4831C38.8905 59.3822 38.8023 59.3191 38.6635 59.2056C38.6509 59.3948 38.6383 59.5083 38.6383 59.6723C38.7896 59.5966 38.8779 59.5461 39.0293 59.4831Z" fill="#F57D77"/>
<path d="M38.9156 59.5334C39.0544 59.6343 39.1427 59.6974 39.2814 59.8109C39.294 59.6217 39.3066 59.5082 39.3066 59.3442C39.1679 59.4199 39.0796 59.4578 38.9156 59.5334Z" fill="#F57D77"/>
<path d="M48.8677 53.3779C48.7289 53.4662 48.6406 53.5167 48.5271 53.5924C48.6406 53.6806 48.7289 53.7437 48.8677 53.8446C48.8677 53.668 48.8677 53.5545 48.8677 53.3779Z" fill="#F57D77"/>
<path d="M44.2261 58.3099C44.2261 58.0955 44.2261 58.0072 44.2261 57.9062C44.1126 57.9567 44.0116 57.9945 43.8729 58.045C43.9738 58.1207 44.0621 58.1837 44.2261 58.3099Z" fill="#F57D77"/>
<path d="M43.1537 57.9947C43.2168 57.919 43.2546 57.8686 43.2925 57.8055C43.242 57.755 43.179 57.692 43.1159 57.6289C43.0528 57.7046 42.9771 57.7929 42.8762 57.919C43.015 57.9695 43.1033 57.9821 43.1537 57.9947Z" fill="#F57D77"/>
<path d="M44.0242 57.6292C44.0872 57.6292 44.1503 57.6292 44.2134 57.6292C44.2134 57.5157 44.2134 57.4148 44.2134 57.2886C43.8854 57.276 44.0242 57.4904 44.0242 57.6292Z" fill="#F57D77"/>
<path d="M49.8389 52.3691C49.8389 52.5205 49.8389 52.6088 49.8389 52.7097C49.9019 52.7223 49.9524 52.7349 50.0407 52.7475C50.0533 52.634 50.0533 52.5331 50.0659 52.407C50.0029 52.3944 49.9524 52.3944 49.8389 52.3691Z" fill="#F57D77"/>
<path d="M47.8335 55.2072C47.9218 55.3081 47.9723 55.3712 48.0479 55.4468C48.111 55.3333 48.1615 55.2324 48.2876 55.0054C48.0606 55.1063 47.9596 55.1567 47.8335 55.2072Z" fill="#F57D77"/>
<path d="M37.9443 59.4828C37.856 59.3819 37.8056 59.3188 37.7299 59.2432C37.6668 59.3567 37.6164 59.4576 37.4902 59.6846C37.7173 59.5837 37.8182 59.5459 37.9443 59.4828Z" fill="#F57D77"/>
<path d="M49.4604 51.7886C49.3469 51.8769 49.2964 51.9273 49.2207 51.9904C49.3469 52.0535 49.4478 52.1039 49.6748 52.23C49.5613 52.003 49.5234 51.9021 49.4604 51.7886Z" fill="#F57D77"/>
<path d="M49.0697 53.5421C49.2715 53.5421 49.3598 53.5421 49.4985 53.5421C49.4733 53.4538 49.4607 53.3781 49.4229 53.252C49.2967 53.3529 49.2084 53.4285 49.0697 53.5421Z" fill="#F57D77"/>
<path d="M48.8424 52.6211C48.7793 52.6842 48.7289 52.722 48.691 52.7724C48.6784 52.7851 48.6784 52.7977 48.6784 52.7977C48.7289 52.8607 48.7793 52.9112 48.8298 52.9743C48.8928 52.9112 48.9433 52.8607 49.0063 52.7977C48.9685 52.7472 48.9054 52.6842 48.8424 52.6211Z" fill="#F57D77"/>
<path d="M37.0491 60.3659C37.1374 60.492 37.2131 60.5803 37.314 60.7317C37.314 60.5425 37.314 60.4416 37.314 60.3154C37.2383 60.328 37.1752 60.3407 37.0491 60.3659Z" fill="#F57D77"/>
<path d="M35.5985 59.5967C35.7751 59.748 35.8634 59.8237 35.9769 59.912C36.0273 59.8111 36.0526 59.7607 36.103 59.6597C35.9517 59.6471 35.8255 59.6219 35.5985 59.5967Z" fill="#F57D77"/>
<path d="M38.2471 59.4575C38.1462 59.5837 38.0831 59.672 37.9822 59.7855C38.0831 59.8233 38.1462 59.8485 38.2471 59.8864C38.2471 59.735 38.2471 59.6215 38.2471 59.4575Z" fill="#F57D77"/>
<path d="M44.516 56.9604C44.6673 57.074 44.7556 57.137 44.8944 57.2253C44.9196 57.1118 44.9322 57.0487 44.9448 56.9604C44.8061 56.9604 44.7052 56.9604 44.516 56.9604Z" fill="#F57D77"/>
<path d="M47.1016 55.636C46.9502 55.5225 46.8493 55.4594 46.7232 55.3711C46.7105 55.4846 46.6979 55.5603 46.6853 55.636C46.8115 55.636 46.9124 55.636 47.1016 55.636Z" fill="#F57D77"/>
<path d="M47.619 54.665C47.619 54.7786 47.619 54.829 47.619 54.9299C47.7325 54.9425 47.846 54.9425 47.9469 54.9552C47.9596 54.9299 47.9596 54.9047 47.9722 54.8795C47.8586 54.8164 47.7577 54.7407 47.619 54.665Z" fill="#F57D77"/>
<path d="M45.0458 55.9009C44.9575 55.9009 44.9071 55.9009 44.844 55.9009C44.8314 55.9639 44.8188 56.0144 44.8062 56.0775C44.9575 56.1658 45.0584 56.1531 45.0458 55.9009Z" fill="#F57D77"/>
<path d="M45.6263 56.1279C45.538 56.1279 45.4875 56.1279 45.4244 56.1279C45.4118 56.191 45.3992 56.2414 45.3866 56.3045C45.5506 56.3928 45.6389 56.3928 45.6263 56.1279Z" fill="#F57D77"/>
<path d="M48.6656 52.3817C48.7539 52.3817 48.8044 52.3817 48.8674 52.3817C48.88 52.3187 48.8927 52.2682 48.9053 52.2051C48.7539 52.1169 48.653 52.1169 48.6656 52.3817Z" fill="#F57D77"/>
<path d="M35.7119 59.6216C35.7119 59.5585 35.6993 59.4828 35.6993 59.3945C35.6236 59.3945 35.5605 59.4071 35.4723 59.4071C35.5479 59.5207 35.5984 59.5964 35.6488 59.6846C35.6741 59.6594 35.6993 59.6468 35.7119 59.6216Z" fill="#F57D77"/>
<path d="M36.6196 60.328C36.6196 60.2524 36.6196 60.1767 36.6196 60.0884C36.5944 60.0884 36.5818 60.0884 36.5566 60.0884C36.5566 60.1641 36.5566 60.2397 36.5566 60.328C36.5692 60.328 36.5944 60.328 36.6196 60.328Z" fill="#F57D77"/>
<path d="M48.7666 51.9404C48.7035 51.9404 48.6405 51.9404 48.5774 51.9404C48.5774 51.953 48.5774 51.9783 48.5648 51.9909C48.6278 52.0035 48.6909 52.0161 48.754 52.0413C48.754 52.0035 48.7666 51.9783 48.7666 51.9404Z" fill="#F57D77"/>
<path d="M45.1465 52.874C45.0834 52.874 45.0204 52.874 44.9573 52.874C44.9573 52.8866 44.9573 52.9119 44.9447 52.9245C45.0077 52.9371 45.0708 52.9497 45.1339 52.9749C45.1339 52.9371 45.1465 52.9119 45.1465 52.874Z" fill="#F57D77"/>
<path d="M44.6043 53.0628C44.6674 53.0628 44.7305 53.0628 44.7935 53.0628C44.7935 53.0502 44.7935 53.025 44.8062 53.0124C44.7431 52.9998 44.68 52.9871 44.617 52.9619C44.6043 52.9998 44.6043 53.0376 44.6043 53.0628Z" fill="#F57D77"/>
<path d="M44.4399 53.1128C44.3769 53.1128 44.3138 53.1128 44.2507 53.1128C44.2507 53.138 44.2507 53.1506 44.2381 53.1759C44.3012 53.1885 44.3643 53.2011 44.4273 53.2137C44.4399 53.1759 44.4399 53.138 44.4399 53.1128Z" fill="#F57D77"/>
<path d="M43.431 53.4158C43.4941 53.4158 43.5571 53.4158 43.6202 53.4158C43.6202 53.3906 43.6202 53.378 43.6328 53.3528C43.5697 53.3402 43.5067 53.3276 43.4436 53.3149C43.4436 53.3528 43.4436 53.378 43.431 53.4158Z" fill="#F57D77"/>
<path d="M34.7657 58.562C34.7279 58.5872 34.7026 58.6125 34.6648 58.6377C34.6774 58.6503 34.69 58.6629 34.7026 58.6755C34.7279 58.6377 34.7531 58.6125 34.7783 58.5746C34.7783 58.5746 34.7783 58.5746 34.7657 58.562Z" fill="#F57D77"/>
<path d="M45.2854 52.8108C45.3232 52.8108 45.3611 52.8108 45.3989 52.8108C45.3989 52.7982 45.3989 52.7856 45.3989 52.7729C45.3611 52.7729 45.3232 52.7729 45.2854 52.7729C45.2854 52.7856 45.2854 52.7982 45.2854 52.8108Z" fill="#F57D77"/>
<path d="M43.8855 53.2771C43.9233 53.2771 43.9612 53.2771 43.999 53.2771C43.999 53.2645 43.999 53.2519 43.999 53.2393C43.9612 53.2393 43.9233 53.2393 43.8855 53.2393C43.8855 53.2519 43.8855 53.2645 43.8855 53.2771Z" fill="#F57D77"/>
<path d="M41.3503 53.7817C41.3503 53.8196 41.3503 53.8574 41.3503 53.8953C41.363 53.8953 41.3756 53.8953 41.3882 53.8953C41.3882 53.8574 41.3882 53.8196 41.3882 53.7817C41.3756 53.7817 41.363 53.7817 41.3503 53.7817Z" fill="#F57D77"/>
<path d="M39.0168 54.0215C39.0168 54.0593 39.0168 54.0972 39.0168 54.135C39.0295 54.135 39.0421 54.135 39.0547 54.135C39.0547 54.0972 39.0547 54.0593 39.0547 54.0215C39.0421 54.0215 39.0295 54.0215 39.0168 54.0215Z" fill="#F57D77"/>
</svg>
