<svg width="20" height="20" viewBox="0 0 20 20" fill="none" xmlns="http://www.w3.org/2000/svg">
<circle cx="10" cy="10" r="10" fill="#488D7F"/>
<path opacity="0.8" d="M13.4879 9.07083C13.3811 8.44494 13.1635 8.00223 12.8544 7.74653C12.3621 7.33818 11.6293 7.26185 10.992 7.28093C10.5874 7.29238 10.1371 7.26566 9.69821 7.24658C9.69821 7.27711 9.69821 7.29238 9.69439 7.32291C9.69058 7.32291 9.69058 7.32291 9.68676 7.32291C9.68294 7.38397 9.68294 7.41832 9.68294 7.47938C10.1218 7.5061 10.5645 7.52518 10.9882 7.529C11.5988 7.53281 12.2972 7.55953 12.7742 7.97552C13.049 8.21595 13.2322 8.61668 13.3314 9.18533C13.3353 9.20059 13.3353 9.21967 13.3391 9.23494C13.3963 9.69673 13.3543 10.0784 13.1864 10.3799C12.8506 10.9867 12.1369 11.3149 11.4538 11.4027C10.2478 11.5553 9.16009 11.2386 8.06478 10.773C8.03043 10.8226 8.01135 10.8493 7.977 10.8951C7.98463 10.8989 7.98845 10.9027 7.99608 10.9065C7.977 10.9294 7.96937 10.9409 7.9541 10.9676C8.33574 11.1775 8.74792 11.3531 9.17536 11.479C9.92719 11.7004 10.7325 11.7767 11.4996 11.6546C12.1865 11.5439 13.0223 11.2195 13.3658 10.5554C13.5528 10.1967 13.591 9.75779 13.5108 9.21968C13.5032 9.17006 13.4956 9.12045 13.4879 9.07083Z" fill="#FAFEFF"/>
<path opacity="0.8" d="M13.5104 9.21177C13.5753 9.71172 13.5295 10.1163 13.3577 10.4559C13.0219 11.12 12.1899 11.4482 11.5068 11.5589C10.7397 11.6848 9.94202 11.6123 9.194 11.391C8.77801 11.2688 8.36965 11.1009 7.99564 10.8948C7.98801 10.891 7.9842 10.8872 7.97656 10.8834C8.01091 10.8338 8.02999 10.8109 8.06434 10.7612C9.15965 11.2268 10.2512 11.5398 11.4533 11.391C12.1327 11.3032 12.8463 10.9788 13.186 10.3681C13.3501 10.0705 13.3921 9.68882 13.3386 9.22322C13.3348 9.17742 13.3272 9.13163 13.3196 9.08583C13.2318 8.50955 13.041 8.12027 12.7662 7.87984C12.2891 7.46385 11.5984 7.44095 10.9915 7.43713C10.5717 7.43713 10.1328 7.41805 9.69777 7.39134C9.69777 7.3608 9.69777 7.34554 9.70159 7.31119C9.70159 7.28066 9.70159 7.26539 9.7054 7.23486C10.1405 7.25776 10.5908 7.28066 10.9992 7.26921C11.6365 7.25013 12.3693 7.32646 12.8616 7.73481C13.1707 7.99051 13.3883 8.43322 13.4951 9.05911C13.4951 9.12018 13.5027 9.16597 13.5104 9.21177Z" fill="#FAFEFF"/>
<path opacity="0.8" d="M13.3348 9.23088C13.3348 9.23088 13.331 9.20035 13.3272 9.18126C13.2318 8.61262 13.0486 8.21189 12.77 7.97146C12.2891 7.55547 11.5907 7.52875 10.9839 7.52493C10.5641 7.52112 10.1176 7.50204 9.67871 7.47532C9.68253 7.41426 9.68253 7.37991 9.68253 7.31885C9.68634 7.31885 9.68634 7.31885 9.69016 7.31885C9.69016 7.34938 9.69016 7.36465 9.68634 7.39899C10.1214 7.42189 10.5641 7.44097 10.9801 7.44479C11.5831 7.44861 12.2777 7.4715 12.7548 7.8875C13.0295 8.12793 13.2204 8.52102 13.3081 9.09349C13.3234 9.13928 13.3348 9.23088 13.3348 9.23088Z" fill="#E5E9E9"/>
<path opacity="0.8" d="M13.5108 9.21191C13.5108 9.21191 13.549 10.1889 13.3658 10.5477C13.0223 11.2117 12.1865 11.5361 11.4996 11.6468C10.7286 11.7727 9.92338 11.6926 9.17536 11.4712C8.74792 11.3453 8.33574 11.1697 7.9541 10.9598C7.97318 10.9369 7.98082 10.9255 7.99608 10.8988C8.37391 11.1049 8.77845 11.2728 9.19444 11.3949C9.94246 11.6124 10.7439 11.6888 11.5072 11.5628C12.1903 11.4483 13.0223 11.1201 13.3582 10.4599C13.5299 10.1202 13.5108 9.21191 13.5108 9.21191Z" fill="#E5E9E9"/>
<path opacity="0.8" d="M14.9756 8.1545C14.7314 7.47899 14.3993 7.03629 14.0062 6.81493C13.3803 6.46 12.5484 6.52488 11.8461 6.66991C11.3996 6.76532 10.8958 6.82638 10.4073 6.88744C10.4112 6.92179 10.415 6.94087 10.4188 6.97522C10.415 6.97522 10.415 6.97522 10.4112 6.97522C10.4226 7.04392 10.4264 7.07827 10.4379 7.15078C10.9302 7.08971 11.4263 7.02484 11.8919 6.94469C12.5674 6.82638 13.346 6.71571 13.9604 7.08208C14.3154 7.29199 14.5978 7.70034 14.8191 8.31097C14.8268 8.33005 14.8306 8.34532 14.8382 8.3644C14.9947 8.86435 15.0252 9.29943 14.8993 9.66199C14.6474 10.4024 13.9223 10.91 13.1857 11.1428C11.8805 11.5549 10.6096 11.4214 9.30058 11.1275C9.27005 11.1886 9.2586 11.2191 9.22807 11.284C9.2357 11.2878 9.24333 11.2878 9.24715 11.2916C9.23188 11.3221 9.22425 11.3374 9.20898 11.3679C9.67459 11.5244 10.1669 11.6351 10.663 11.6885C11.5408 11.7839 12.4453 11.7076 13.2735 11.4137C14.0139 11.1542 14.8764 10.6237 15.1244 9.82228C15.258 9.3872 15.2122 8.89488 15.0176 8.31479C15.0138 8.26136 14.9947 8.20793 14.9756 8.1545Z" fill="#FAFEFF"/>
<path opacity="0.8" d="M15.0298 8.31145C15.2015 8.84956 15.232 9.31135 15.1099 9.71971C14.8695 10.5212 14.0146 11.0516 13.2818 11.315C12.4575 11.6088 11.5568 11.689 10.6867 11.5936C10.1982 11.5401 9.71729 11.4371 9.25932 11.2844C9.25168 11.2806 9.24405 11.2806 9.24023 11.2768C9.27077 11.2157 9.28603 11.1852 9.31275 11.1203C10.6218 11.4142 11.8927 11.5478 13.1979 11.1356C13.9344 10.9028 14.6596 10.399 14.9114 9.65483C15.0336 9.29227 15.003 8.86101 14.8504 8.35724C14.8351 8.30763 14.8199 8.25802 14.8008 8.2084C14.587 7.59014 14.297 7.19323 13.9421 6.98333C13.3314 6.62077 12.5567 6.73145 11.8888 6.84975C11.4232 6.93372 10.9309 6.9986 10.4424 7.05966C10.4386 7.02531 10.4348 7.00623 10.431 6.97188C10.4271 6.93753 10.4233 6.91845 10.4195 6.8841C10.908 6.81922 11.4118 6.75816 11.8583 6.66657C12.5605 6.51772 13.3887 6.45666 14.0184 6.81159C14.4115 7.03294 14.7435 7.47947 14.9878 8.15116C14.9954 8.2084 15.0145 8.26183 15.0298 8.31145Z" fill="#FAFEFF"/>
<path opacity="0.8" d="M14.8421 8.36469C14.8421 8.36469 14.8306 8.33035 14.823 8.31126C14.6017 7.70063 14.3192 7.29228 13.9643 7.08237C13.3499 6.716 12.5713 6.83049 11.8958 6.94498C11.4264 7.02513 10.9303 7.09001 10.4418 7.15107C10.4303 7.08237 10.4265 7.04802 10.415 6.97551C10.4189 6.97551 10.4189 6.97551 10.4227 6.97551C10.4265 7.00986 10.4303 7.02894 10.4341 7.06329C10.9226 7.00223 11.4149 6.93353 11.8805 6.85339C12.5522 6.73508 13.327 6.6244 13.9338 6.98696C14.2849 7.19687 14.5749 7.59377 14.7925 8.21203C14.8077 8.26546 14.8421 8.36469 14.8421 8.36469Z" fill="#EFF3F4"/>
<path opacity="0.8" d="M15.0293 8.31152C15.0293 8.31152 15.2697 9.38394 15.1362 9.81901C14.8881 10.6205 14.0256 11.1509 13.2852 11.4105C12.457 11.7043 11.5487 11.7807 10.6748 11.6852C10.1786 11.6318 9.68631 11.5211 9.2207 11.3647C9.23597 11.3341 9.2436 11.3189 9.25887 11.2883C9.71684 11.441 10.2015 11.544 10.6862 11.5975C11.5564 11.6891 12.4608 11.6127 13.2814 11.3189C14.018 11.0555 14.869 10.5251 15.1094 9.7236C15.2316 9.30761 15.0293 8.31152 15.0293 8.31152Z" fill="#EFF3F4"/>
<path d="M12.0373 11.8913C12.0335 11.8874 12.0297 11.8874 12.0259 11.8836C11.9686 11.8455 11.9114 11.8035 11.8541 11.7615C11.8274 11.7424 11.8007 11.7233 11.7778 11.7043C11.732 11.6699 11.6862 11.6394 11.6404 11.605C11.6366 11.6012 11.6328 11.6012 11.629 11.5974L11.6251 11.5936C11.587 11.563 11.5488 11.5363 11.5107 11.5058C11.503 11.502 11.4992 11.4943 11.4916 11.4905C11.4878 11.4905 11.4878 11.4867 11.4839 11.4867C11.4801 11.4829 11.4763 11.4791 11.4725 11.4791C11.4458 11.46 11.4191 11.4371 11.3962 11.4142C11.3885 11.4066 11.3809 11.3989 11.3733 11.3951C11.358 11.3837 11.3427 11.3684 11.3275 11.357C11.3236 11.3531 11.3198 11.3493 11.316 11.3493C11.2931 11.3302 11.2702 11.3112 11.2473 11.2921C11.2397 11.2844 11.2321 11.2806 11.2282 11.273C11.213 11.2577 11.1939 11.2425 11.1786 11.2272C11.1672 11.2157 11.1519 11.2043 11.1405 11.189C11.1214 11.1738 11.1061 11.1547 11.087 11.1356C11.0832 11.1318 11.0832 11.1318 11.0794 11.128C11.0756 11.1242 11.0718 11.1165 11.0641 11.1127C11.0412 11.0898 11.0183 11.0631 10.9954 11.0402C10.984 11.0287 10.9725 11.0173 10.9611 11.002L10.9573 10.9982C10.9382 10.9753 10.9153 10.9486 10.8962 10.9257C10.8924 10.9219 10.8886 10.9181 10.8886 10.9143C10.8848 10.9104 10.8848 10.9066 10.8809 10.9028C10.8275 10.8379 10.7779 10.7692 10.7321 10.6967C10.7283 10.6891 10.7245 10.6815 10.7207 10.6776C10.7207 10.6738 10.7168 10.6738 10.7168 10.67C10.6978 10.6395 10.6787 10.6089 10.6596 10.5746C10.652 10.5631 10.6481 10.5517 10.6405 10.5441C10.6252 10.5135 10.61 10.483 10.5947 10.4525C10.5909 10.441 10.5833 10.4296 10.5794 10.4181C10.5642 10.3876 10.5489 10.3532 10.5375 10.3227C10.5298 10.3074 10.526 10.2922 10.5184 10.2807C10.5146 10.2731 10.5146 10.2693 10.5107 10.2616C10.5069 10.254 10.5069 10.2464 10.5031 10.2387C10.4955 10.212 10.484 10.1853 10.4764 10.1586C10.4726 10.1471 10.4688 10.1357 10.4688 10.1281C10.465 10.1166 10.4611 10.1014 10.4573 10.0899C10.4535 10.0746 10.4497 10.0594 10.4459 10.0441C10.4421 10.0288 10.4382 10.0136 10.4344 9.99831C10.4306 9.99068 10.4306 9.97923 10.4268 9.9716C10.423 9.95251 10.4192 9.93725 10.4153 9.91816C10.4115 9.90672 10.4115 9.89527 10.4077 9.88382C10.4001 9.84184 10.3963 9.80367 10.3886 9.76169C10.3848 9.72734 10.381 9.69299 10.3772 9.66246C10.3772 9.65483 10.3772 9.6472 10.3772 9.64338C10.3772 9.63193 10.3772 9.6243 10.3772 9.61285C10.3772 9.59758 10.3772 9.58232 10.3734 9.56705C10.3734 9.5327 10.3695 9.49836 10.3695 9.46019C10.3695 9.43729 10.3695 9.4144 10.3695 9.39531C10.3695 9.36097 10.3695 9.3228 10.3734 9.28845C10.3734 9.23884 10.3772 9.18923 10.381 9.14343C10.3848 9.09 10.3924 9.03657 10.3963 8.98314C10.4001 8.96406 10.4001 8.94497 10.4039 8.92971C10.4077 8.90681 10.4115 8.88391 10.4153 8.86483C10.4192 8.84957 10.4192 8.83048 10.423 8.81522C10.4268 8.79232 10.4306 8.77324 10.4344 8.75415C10.4421 8.71981 10.4459 8.68164 10.4535 8.64729C10.4573 8.62821 10.4611 8.60531 10.465 8.58623C10.465 8.58241 10.465 8.58242 10.465 8.5786C10.4688 8.55188 10.4764 8.52899 10.4802 8.50227C10.4802 8.49464 10.484 8.487 10.484 8.47556C10.4879 8.45266 10.4955 8.42976 10.4993 8.41068C10.5107 8.36488 10.5222 8.31526 10.5336 8.26947C10.5375 8.2542 10.5413 8.23894 10.5451 8.22749C10.5489 8.20459 10.5565 8.18551 10.5604 8.16261C10.5833 8.0672 10.61 7.9756 10.6329 7.88401C10.6367 7.86874 10.6405 7.84966 10.6443 7.8344C10.652 7.80386 10.6596 7.77333 10.6672 7.7428C10.671 7.72372 10.6787 7.70464 10.6825 7.68555C10.6825 7.67792 10.6863 7.67411 10.6863 7.66647C10.6939 7.64357 10.6978 7.62068 10.7054 7.59778C10.7207 7.54435 10.7321 7.49092 10.7474 7.43749C10.7588 7.39169 10.7741 7.34208 10.7855 7.29628C10.7855 7.29246 10.7855 7.28865 10.7893 7.28483C10.8084 7.21232 10.8237 7.13981 10.8428 7.06729C10.8466 7.05966 10.8466 7.04821 10.8504 7.04058C10.8542 7.01768 10.8619 6.99478 10.8657 6.97188C10.8848 6.88029 10.9038 6.79251 10.9229 6.70092C10.8848 6.68947 10.8466 6.67802 10.8084 6.66657C10.8084 6.66657 10.8084 6.66657 10.8046 6.66657C10.7474 6.6513 10.6939 6.63222 10.6367 6.61314C10.5527 6.58642 10.4688 6.55589 10.3848 6.52154C10.3466 6.50628 10.3085 6.49101 10.2703 6.47575C9.7093 6.24295 9.02616 5.9529 8.34302 5.72391C7.55683 5.46058 6.72867 5.38043 5.91959 5.48729C5.6677 5.51782 5.41963 5.56744 5.17157 5.63613C5.09142 5.65903 5.00746 6.52918 4.99983 6.63222C4.99983 6.63604 4.99983 6.64367 4.99983 6.64749C4.9922 6.73145 4.98456 6.80396 4.97311 6.87266C4.97311 6.87266 4.97311 6.87266 4.97311 6.87647C4.94258 7.04821 4.89297 7.18942 4.80137 7.39551C4.75176 7.50618 4.73649 7.59396 4.75176 7.66266C4.75558 7.67411 4.75558 7.68556 4.75939 7.69319C4.75939 7.697 4.76321 7.70082 4.76321 7.70464C4.76703 7.71227 4.76703 7.71609 4.77084 7.72372C4.77466 7.72754 4.77466 7.73135 4.77848 7.73517C4.78229 7.73898 4.78611 7.7428 4.78992 7.75043C4.79756 7.75807 4.80137 7.7657 4.80901 7.77333C4.81282 7.77715 4.81282 7.77715 4.81664 7.78097C4.82046 7.78478 4.82809 7.7886 4.83191 7.79241C4.83572 7.79623 4.83572 7.79623 4.83954 7.80005C4.84717 7.80386 4.85099 7.80768 4.85862 7.8115C4.86244 7.8115 4.86244 7.81531 4.86625 7.81531C4.88152 7.82295 4.9006 7.8344 4.91968 7.84203C4.90823 7.83821 4.9006 7.8344 4.88915 7.8344C4.88152 7.86111 4.87389 7.88783 4.86625 7.91836C4.83572 8.0672 4.83191 8.2313 4.81282 8.38014C4.79756 8.487 4.78611 8.59386 4.79374 8.69691C4.80519 8.84193 4.8548 8.98314 4.86625 9.12816C4.8777 9.25029 4.85099 9.37242 4.83954 9.49454C4.83954 9.51362 4.83572 9.52889 4.83572 9.54797C4.83191 9.6014 4.82809 9.65865 4.84335 9.71208C4.86244 9.77696 4.90823 9.81512 4.96548 9.84184C4.99983 9.8571 5.01891 10.0975 5.03036 10.2731C5.03418 10.3571 5.03799 10.4296 5.04181 10.4563C5.06089 10.6891 5.08761 10.9219 5.1563 11.1432C5.21355 11.3264 5.30896 11.5058 5.38147 11.6852C5.40819 11.75 5.43108 11.8149 5.45017 11.8836V11.8874C5.46162 11.9294 5.47306 11.9752 5.4807 12.0172C5.49596 12.1241 5.51505 12.2576 5.60282 12.3301C5.61046 12.3378 5.62191 12.3416 5.62954 12.3492C5.62954 12.3492 5.62954 12.3492 5.63335 12.3492H5.63717C5.63336 12.3492 5.63335 12.3492 5.63335 12.3492C5.65244 12.3912 5.6677 12.4332 5.68678 12.4752C5.70587 12.5172 5.72495 12.5591 5.74403 12.6011C5.76693 12.6545 5.79364 12.7042 5.81654 12.7538C5.86616 12.853 5.91577 12.956 5.9692 13.0553C5.97302 13.0591 5.97683 13.0667 5.97683 13.0705C6.00355 13.1163 6.02645 13.1621 6.05316 13.2117C6.09133 13.2843 6.13712 13.3568 6.1791 13.4255C6.202 13.4636 6.22872 13.5056 6.25162 13.5476C6.27833 13.5896 6.30123 13.6315 6.32794 13.6697C6.36229 13.7193 6.39282 13.7689 6.42717 13.8186C6.46152 13.8682 6.49587 13.9178 6.53022 13.9674C6.60273 14.0704 6.67906 14.1735 6.7592 14.2765C6.79355 14.3185 6.82408 14.3605 6.85843 14.4025C6.86224 14.4063 6.86606 14.4139 6.86988 14.4177C6.90804 14.4635 6.94621 14.5093 6.98437 14.5551C6.98819 14.5551 6.98819 14.5589 6.98819 14.5589C6.99964 14.5704 7.00727 14.5818 7.0149 14.5895C7.02253 14.6009 7.03398 14.6124 7.04543 14.6238C7.05688 14.6391 7.06833 14.6505 7.07978 14.662C7.08741 14.6696 7.09505 14.6811 7.10268 14.6887L7.1065 14.6925L7.11031 14.6963C7.13703 14.7269 7.16374 14.7574 7.19046 14.7841C7.19427 14.7879 7.19809 14.7917 7.20191 14.7956C7.21336 14.8108 7.22481 14.8223 7.24007 14.8375C7.25534 14.8528 7.26679 14.8681 7.28205 14.8833C7.30877 14.9139 7.3393 14.9406 7.36601 14.9711C7.36983 14.9749 7.36983 14.9749 7.37365 14.9787C7.67896 14.9291 7.96901 14.849 8.23997 14.7498C8.6407 14.6047 9.00708 14.4101 9.34292 14.1964C9.35819 14.1849 9.37345 14.1773 9.38872 14.1658C9.40398 14.1544 9.41543 14.1468 9.4307 14.1353C9.80471 13.8834 10.1406 13.6048 10.4306 13.3339C10.6062 13.1736 10.7626 13.0171 10.9115 12.8683C10.9535 12.8225 10.9993 12.7805 11.045 12.7385C11.0718 12.7118 11.0985 12.6889 11.1214 12.666C11.129 12.6584 11.1366 12.6507 11.1443 12.6431C11.1901 12.6011 11.2359 12.5591 11.2778 12.521C11.2817 12.5172 11.2817 12.5172 11.2855 12.5133C11.3122 12.4904 11.3389 12.4675 11.3656 12.4446C11.461 12.3607 11.5564 12.2805 11.6519 12.2004C11.6557 12.1966 11.6595 12.1966 11.6595 12.1928C11.6671 12.1889 11.6709 12.1813 11.6786 12.1775C11.6977 12.1622 11.7206 12.1431 11.7396 12.1279C11.7702 12.1012 11.8007 12.0783 11.835 12.0515C11.8541 12.0363 11.8732 12.021 11.8885 12.0096C11.9419 11.9638 11.9877 11.9294 12.0373 11.8913Z" fill="#F5FAFA"/>
<path opacity="0.8" d="M10.4042 9.87958C10.1599 9.91011 9.91569 9.94446 9.67526 9.99026C9.01501 10.1124 8.21738 10.2421 7.35487 10.2421C7.31289 10.2421 7.26709 10.2421 7.22511 10.2421C7.19076 10.2421 7.16023 10.2421 7.12588 10.2383C7.09535 10.2383 7.06482 10.2383 7.03429 10.2345C7.03047 10.2345 7.03047 10.2345 7.02666 10.2345C6.95414 10.2307 6.87782 10.2269 6.80149 10.2231C6.78241 10.2231 6.76332 10.2192 6.74806 10.2192C6.71371 10.2154 6.67936 10.2154 6.64501 10.2116C6.63356 10.2116 6.62593 10.2116 6.61448 10.2078C6.56869 10.204 6.52289 10.2002 6.47709 10.1925C6.38931 10.1811 6.30535 10.1696 6.21757 10.1582C6.18323 10.1544 6.14888 10.1467 6.11453 10.1429C6.07637 10.1353 6.0382 10.1315 6.00004 10.1238C5.93134 10.1124 5.86646 10.0971 5.79777 10.0818C5.7825 10.078 5.77105 10.0742 5.75579 10.0704C5.73289 10.0666 5.70617 10.059 5.68327 10.0513C5.66801 10.0475 5.64893 10.0437 5.63366 10.0399C5.60313 10.0322 5.5726 10.0246 5.54207 10.017C5.54207 10.017 5.54207 10.017 5.53825 10.017C5.53443 10.017 5.53062 10.017 5.53062 10.0132C5.49627 10.0055 5.46192 9.99407 5.43139 9.98644C5.42376 9.98262 5.41231 9.98262 5.40467 9.9788C5.35888 9.96736 5.3169 9.95209 5.2711 9.94064C5.22149 9.92537 5.16806 9.90629 5.11844 9.89103C5.08028 9.87958 5.04211 9.86813 5.00395 9.85286C4.9925 9.84905 4.98105 9.84523 4.9696 9.8376H4.96579C4.90854 9.81088 4.86274 9.77653 4.84366 9.70784C4.82839 9.65441 4.83221 9.59716 4.83603 9.54373C4.83603 9.52465 4.83984 9.50938 4.83984 9.4903C4.85129 9.36818 4.87801 9.24605 4.86656 9.12393C4.85511 8.9789 4.8055 8.83769 4.79405 8.69267C4.78641 8.58581 4.80168 8.47895 4.81313 8.37591C4.83221 8.23088 4.83603 8.06296 4.86656 7.91412C4.87037 7.8874 4.87801 7.85687 4.88946 7.83016C4.90091 7.83397 4.91236 7.83779 4.91999 7.83779C4.9696 7.84924 5.01922 7.86069 5.06883 7.86832C5.43902 7.91793 5.8054 7.80726 6.17941 7.81871C6.19086 7.81871 6.20231 7.81871 6.21376 7.81871C6.9198 7.85306 7.62584 7.98281 8.29753 8.20798C9.01883 8.44842 9.74014 8.74228 10.3889 9.00943C10.3889 9.01325 10.3889 9.01706 10.3889 9.0247C10.3889 9.02851 10.3889 9.03233 10.3889 9.03615C10.3889 9.04378 10.3889 9.05141 10.3851 9.05905C10.3813 9.08576 10.3813 9.11248 10.3775 9.13919C10.3737 9.1888 10.3698 9.23842 10.3698 9.28422C10.3698 9.30712 10.3698 9.33383 10.366 9.35673C10.366 9.40252 10.366 9.44832 10.366 9.4903C10.366 9.5132 10.366 9.5361 10.3698 9.559C10.3698 9.57426 10.3698 9.58953 10.3737 9.6048C10.3737 9.61624 10.3737 9.62388 10.3737 9.63533C10.3737 9.64296 10.3737 9.65059 10.3737 9.65441C10.3775 9.68876 10.3813 9.72311 10.3851 9.75364C10.3889 9.79562 10.3966 9.8376 10.4042 9.87958Z" fill="#EBEFF0"/>
<path opacity="0.8" d="M11.2437 11.2843C11.2055 11.311 11.1712 11.3339 11.133 11.3568C11.0948 11.3797 11.0605 11.4064 11.0223 11.4293C10.9918 11.4484 10.9574 11.4713 10.9269 11.4904C10.9193 11.4942 10.9116 11.5019 10.9002 11.5057C10.8658 11.5247 10.8315 11.5476 10.7971 11.5667C9.84685 12.1201 8.77443 12.4331 7.6753 12.4979C7.62951 12.5018 7.58753 12.5018 7.54173 12.5056C7.49593 12.5056 7.45395 12.5094 7.40815 12.5094C7.36999 12.5094 7.32801 12.5094 7.28984 12.5094H7.24786C7.20207 12.5094 7.15627 12.5094 7.11047 12.5094C7.07231 12.5094 7.03414 12.5094 6.99598 12.5056C6.84714 12.5018 6.69448 12.4903 6.54564 12.4789C6.54182 12.4789 6.53801 12.4789 6.53419 12.4789C6.49603 12.475 6.45786 12.4712 6.4197 12.4674C6.40443 12.4674 6.38917 12.4636 6.37772 12.4636C6.33955 12.4598 6.30139 12.456 6.26323 12.4483C6.21743 12.4445 6.16782 12.4369 6.12202 12.4292C6.11439 12.4292 6.10294 12.4254 6.0953 12.4254C5.9541 12.4102 5.74801 12.4063 5.6297 12.3453H5.62588C5.62588 12.3453 5.62588 12.3453 5.62207 12.3453C5.61062 12.3415 5.60298 12.3338 5.59535 12.3262C5.50376 12.2537 5.48849 12.1201 5.47323 12.0133C5.46559 11.9675 5.45796 11.9255 5.44269 11.8835V11.8797C5.42361 11.811 5.40071 11.7461 5.374 11.6812C5.30149 11.498 5.20608 11.3225 5.14883 11.1393C5.08013 10.9179 5.05342 10.6851 5.03434 10.4523C5.03052 10.4256 5.03052 10.3569 5.02289 10.2691C5.01144 10.0936 4.99617 9.85316 4.95801 9.83789C4.95801 9.83789 4.95801 9.83789 4.96182 9.83789C4.97327 9.84171 4.98472 9.84934 4.99617 9.85315C5.03434 9.86842 5.0725 9.87987 5.11066 9.89132C5.16028 9.9104 5.21371 9.92567 5.26332 9.94093C5.30912 9.9562 5.3511 9.96765 5.3969 9.9791C5.40453 9.98291 5.41598 9.98291 5.42361 9.98673C5.45796 9.99818 5.49231 10.0058 5.52284 10.0134C5.52666 10.0134 5.53047 10.0134 5.53047 10.0173C5.53047 10.0173 5.53047 10.0173 5.53429 10.0173C5.56482 10.0249 5.59535 10.0325 5.62588 10.0402C5.64115 10.044 5.66023 10.0478 5.6755 10.0516C5.69839 10.0592 5.72511 10.0631 5.74801 10.0707C5.76327 10.0745 5.77854 10.0783 5.78999 10.0821C5.85868 10.0974 5.92738 10.1127 5.99226 10.1241C6.03042 10.1318 6.06859 10.1394 6.10675 10.1432C6.1411 10.1508 6.17545 10.1547 6.2098 10.1585C6.29757 10.1699 6.38153 10.1814 6.46931 10.1928C6.51511 10.1966 6.56091 10.2043 6.6067 10.2081C6.61815 10.2081 6.62579 10.2081 6.63724 10.2119C6.67158 10.2157 6.70593 10.2195 6.74028 10.2195C6.75936 10.2195 6.77844 10.2233 6.79371 10.2233C6.87004 10.2272 6.94255 10.231 7.01888 10.2348C7.02269 10.2348 7.02269 10.2348 7.02651 10.2348C7.05704 10.2348 7.08757 10.2386 7.11811 10.2386C7.15245 10.2386 7.18298 10.2386 7.21733 10.2424C7.25931 10.2424 7.30511 10.2424 7.34709 10.2424C8.2096 10.2424 9.00724 10.1127 9.66748 9.99055C9.90791 9.94475 10.1522 9.9104 10.3964 9.87987C10.3964 9.89132 10.4002 9.90277 10.404 9.91422C10.4079 9.9333 10.4117 9.94857 10.4155 9.96765C10.4155 9.97528 10.4193 9.98673 10.4231 9.99436C10.4269 10.0096 10.4308 10.0249 10.4346 10.0402C10.4384 10.0554 10.4422 10.0707 10.446 10.086C10.4498 10.0974 10.4537 10.1127 10.4575 10.1241C10.4613 10.1356 10.4651 10.147 10.4651 10.1547C10.488 10.2272 10.5147 10.2959 10.5414 10.3646C10.5491 10.3875 10.5605 10.4104 10.572 10.4294C10.5911 10.4752 10.614 10.5172 10.6369 10.5592C10.6636 10.6088 10.6941 10.6584 10.7246 10.7042C10.7361 10.7195 10.7475 10.7386 10.759 10.7538C10.7704 10.7691 10.7819 10.7844 10.7933 10.8034C10.8086 10.8225 10.82 10.8416 10.8353 10.8569C10.8697 10.9027 10.904 10.9447 10.9422 10.9866C10.9651 11.0133 10.9918 11.0439 11.0185 11.0706C11.0338 11.0859 11.049 11.1049 11.0681 11.1202C11.0719 11.124 11.0757 11.1278 11.0796 11.1317C11.0948 11.1507 11.1139 11.166 11.133 11.1851C11.1444 11.1965 11.1597 11.2118 11.1712 11.2233C11.1979 11.2423 11.2208 11.2652 11.2437 11.2843Z" fill="#EBEFF0"/>
<path opacity="0.35" d="M10.4922 8.43343C10.4388 8.66623 10.3968 8.90285 10.3777 9.13565C10.08 9.10893 9.77853 9.00589 9.50374 8.87995C9.05722 8.68149 8.6336 8.42198 8.16036 8.30748C7.39326 8.12048 6.59563 8.33038 5.80944 8.37236C5.7064 8.37618 5.59572 8.38 5.50031 8.3342C5.11867 8.15864 4.72176 7.38391 5.23316 7.14347C5.7064 6.92212 6.69867 7.16256 7.19862 7.24652C8.355 7.44116 9.47703 7.84188 10.4922 8.43343Z" fill="#DCDFE0"/>
<path opacity="0.8" d="M10.9193 6.6893C10.9078 6.75036 10.8964 6.81143 10.8811 6.87249C10.8773 6.89157 10.8735 6.91066 10.8697 6.92592C10.8582 6.98698 10.843 7.05186 10.8277 7.11293C10.8201 7.15109 10.8086 7.18544 10.801 7.2236C10.7857 7.2923 10.7666 7.36099 10.7475 7.42969C10.7399 7.4564 10.7361 7.48312 10.7285 7.50602C10.7208 7.53273 10.7132 7.55945 10.7056 7.58616C10.6979 7.60906 10.6941 7.63196 10.6865 7.65486C10.6865 7.66249 10.6827 7.67012 10.6827 7.67394C10.675 7.69684 10.6712 7.71974 10.6636 7.73882C10.6521 7.7808 10.6407 7.82278 10.6292 7.86476C10.6254 7.87621 10.6216 7.88766 10.6216 7.89911C10.6216 7.90674 10.6178 7.91438 10.6178 7.92201C10.6063 7.96399 10.5949 8.00597 10.5834 8.04795C10.5758 8.07848 10.5682 8.10901 10.5605 8.13955C10.5605 8.14336 10.5605 8.14336 10.5605 8.14718C10.5567 8.16244 10.5529 8.18153 10.5491 8.19679C10.5376 8.24641 10.5262 8.29602 10.5109 8.34945C10.5033 8.37616 10.4995 8.40288 10.4918 8.42959C10.488 8.44104 10.488 8.45249 10.4842 8.46394C10.4804 8.48302 10.4766 8.50592 10.4689 8.525C10.4651 8.53645 10.4651 8.55172 10.4613 8.56317V8.56698C10.4537 8.61278 10.4422 8.66239 10.4346 8.70819C10.4308 8.73109 10.427 8.75781 10.4231 8.7807C10.4231 8.78452 10.4231 8.79215 10.4193 8.79597C10.4193 8.79979 10.4193 8.8036 10.4155 8.81124C10.4155 8.81887 10.4117 8.83032 10.4117 8.83795C10.4117 8.84177 10.4117 8.84177 10.4117 8.84558V8.8494C10.4117 8.85703 10.4079 8.86848 10.4079 8.87612C10.4079 8.88756 10.4041 8.89901 10.4041 8.91046V8.91428C10.4041 8.92955 10.4003 8.94099 10.4003 8.95626C10.4003 8.95626 10.4003 8.95626 10.4003 8.96008C10.4003 8.96389 10.4003 8.96771 10.4003 8.97153V8.97534C10.4003 8.98297 10.4003 8.99061 10.3964 8.99824C10.3583 8.98298 10.3163 8.96389 10.2781 8.94863C10.2171 8.92573 10.156 8.89901 10.0988 8.87612C10.0033 8.83795 9.90793 8.79979 9.8087 8.7578C9.32402 8.56317 8.81262 8.36853 8.30503 8.19679C7.9959 8.09375 7.67914 8.00979 7.36238 7.94491C6.98837 7.86858 6.60672 7.82278 6.22126 7.8037C6.20981 7.8037 6.19837 7.8037 6.18692 7.8037C5.93122 7.8037 5.416 7.90674 5.08015 7.86095C5.02291 7.85331 4.97329 7.84186 4.93131 7.8266C4.91986 7.82278 4.90841 7.81896 4.90078 7.81133C4.82445 7.77698 4.77484 7.72355 4.75957 7.64341C4.74431 7.57471 4.75957 7.48694 4.80919 7.37626C4.90078 7.17017 4.95039 7.02896 4.98092 6.85722C4.98092 6.85722 4.98092 6.85723 4.98092 6.85341C4.99237 6.78471 5.00382 6.7122 5.00764 6.62824C5.00764 6.62442 5.00764 6.62061 5.00764 6.61297C5.01527 6.50993 5.10305 5.63978 5.17938 5.61689C5.42363 5.54819 5.67551 5.49858 5.9274 5.46805C6.7403 5.365 7.56846 5.44133 8.35083 5.70466C9.03015 5.93365 9.71329 6.2237 10.2781 6.4565C10.3163 6.47177 10.3545 6.48703 10.3926 6.5023C10.4766 6.53283 10.5605 6.56336 10.6445 6.59389C10.6827 6.60916 10.7246 6.62061 10.7666 6.63206C10.7819 6.63587 10.7972 6.6435 10.8162 6.64732C10.8162 6.64732 10.8162 6.64732 10.8201 6.64732C10.8391 6.67022 10.8811 6.67785 10.9193 6.6893Z" fill="#F5FAFA"/>
<path opacity="0.8" d="M10.9197 6.68899C10.9083 6.75006 10.8968 6.81112 10.8816 6.87218C10.8777 6.89126 10.8739 6.91035 10.8701 6.92561C10.8587 6.98667 10.8434 7.05155 10.8281 7.11262C10.8205 7.15078 10.8091 7.18513 10.8014 7.22329C10.7862 7.29199 10.7671 7.36068 10.748 7.42938C10.7404 7.45609 10.7365 7.48281 10.7289 7.50571C10.7213 7.53242 10.7136 7.55914 10.706 7.58585C10.664 7.56677 10.6182 7.55151 10.5762 7.53242C10.5228 7.50953 10.4732 7.49044 10.4198 7.46754C10.3358 7.4332 10.2519 7.39885 10.1679 7.3645C9.67939 7.16605 9.16035 6.96759 8.64514 6.79585C7.78644 6.50581 6.88958 6.37605 5.99654 6.40276C5.66832 6.41039 5.34393 6.44093 5.01953 6.49436C5.01953 6.48291 5.02335 6.47146 5.02335 6.46382C5.0348 6.38368 5.04625 6.30735 5.0577 6.23102C5.06151 6.21194 5.06533 6.19286 5.06914 6.17378C5.06914 6.16614 5.07296 6.15469 5.07296 6.14706C5.07296 6.13561 5.07678 6.12416 5.07678 6.11271C5.08059 6.086 5.08823 6.05547 5.09204 6.02875C5.10731 5.94861 5.12258 5.86846 5.13784 5.78832C5.14166 5.76542 5.14547 5.74634 5.14929 5.72344C5.14929 5.7158 5.15311 5.70817 5.15311 5.70436C5.15692 5.67764 5.16456 5.65093 5.16837 5.62421C5.41262 5.55551 5.66451 5.5059 5.91639 5.47537C6.72929 5.37233 7.55746 5.44865 8.33982 5.71199C9.01915 5.94097 9.70229 6.23102 10.2671 6.46382C10.3053 6.47909 10.3434 6.49436 10.3816 6.50962C10.4656 6.54015 10.5495 6.57068 10.6335 6.60122C10.6717 6.61648 10.7136 6.62793 10.7556 6.63938C10.7709 6.6432 10.7862 6.65083 10.8052 6.65465C10.8052 6.65465 10.8052 6.65465 10.8091 6.65465C10.8396 6.66991 10.8816 6.67754 10.9197 6.68899Z" fill="#E6EBEB"/>
<path opacity="0.8" d="M10.9188 6.68917C10.9074 6.75024 10.8959 6.8113 10.8807 6.87236C10.8769 6.89144 10.873 6.91053 10.8692 6.92579C10.8578 6.98685 10.8425 7.05173 10.8272 7.1128C10.8196 7.15096 10.8082 7.18531 10.8005 7.22347C10.7853 7.29217 10.7662 7.36086 10.7471 7.42956C10.7395 7.45627 10.7357 7.48299 10.728 7.50589C10.6822 7.49062 10.6402 7.47536 10.5944 7.46009C10.541 7.44101 10.4876 7.42193 10.438 7.39903C10.4227 7.3914 10.4036 7.38758 10.3884 7.37995C10.3235 7.35323 10.2548 7.32652 10.1861 7.29598C9.62889 7.067 8.9801 6.79603 8.33894 6.58231C7.57183 6.3228 6.76275 6.2312 5.96894 6.30371C5.65217 6.33043 5.33541 6.38768 5.02246 6.46782C5.03391 6.38768 5.04536 6.31135 5.05681 6.23502C5.06062 6.21594 5.06444 6.19685 5.06826 6.17777C5.06826 6.17014 5.07207 6.15869 5.07207 6.15106V6.14342C5.07589 6.10908 5.08352 6.07091 5.09116 6.03656C5.10642 5.95642 5.12169 5.87627 5.13695 5.79613C5.14077 5.77323 5.14459 5.75415 5.1484 5.73125C5.1484 5.72362 5.15222 5.71598 5.15222 5.71217C5.15604 5.68545 5.16367 5.65874 5.16749 5.63202C5.41174 5.56333 5.66362 5.51371 5.9155 5.48318C6.7284 5.38014 7.55657 5.45647 8.33894 5.7198C9.01826 5.94879 9.7014 6.23884 10.2662 6.47164C10.3044 6.4869 10.3426 6.50217 10.3807 6.51743C10.4647 6.54797 10.5486 6.5785 10.6326 6.60903C10.6708 6.62429 10.7128 6.63574 10.7547 6.64719C10.77 6.65101 10.7853 6.65864 10.8043 6.66246C10.8043 6.66246 10.8043 6.66246 10.8082 6.66246C10.8387 6.67009 10.8807 6.67772 10.9188 6.68917Z" fill="#FAFEFF"/>
<path opacity="0.8" d="M10.9197 6.68908C10.9082 6.75015 10.8968 6.81121 10.8815 6.87227C10.8777 6.89135 10.8739 6.91044 10.8701 6.9257C10.8281 6.91044 10.7899 6.89135 10.7479 6.87609C10.6945 6.85319 10.6411 6.83029 10.5876 6.81121C10.5075 6.77686 10.4235 6.74251 10.3396 6.70816C9.80146 6.48681 9.21755 6.25783 8.63745 6.06319C7.75204 5.76551 6.82465 5.6472 5.90489 5.70444C5.64919 5.71971 5.39349 5.75024 5.1416 5.79222C5.14542 5.76932 5.14923 5.75024 5.15305 5.72734C5.15305 5.71971 5.15687 5.71208 5.15687 5.70826C5.16068 5.68155 5.16832 5.65483 5.17213 5.62812C5.41638 5.55942 5.66827 5.50981 5.92015 5.47928C6.73305 5.37623 7.56122 5.45256 8.34358 5.71589C9.02291 5.94488 9.70605 6.23493 10.2709 6.46773C10.309 6.483 10.3472 6.49826 10.3854 6.51353C10.4693 6.54406 10.5533 6.57459 10.6373 6.60512C10.6754 6.62039 10.7174 6.63184 10.7594 6.64329C10.7746 6.6471 10.7899 6.65474 10.809 6.65855C10.809 6.65855 10.809 6.65855 10.8128 6.65855C10.8395 6.67 10.8815 6.67763 10.9197 6.68908Z" fill="#FAFEFF"/>
<path opacity="0.8" d="M12.0377 11.8912C11.9728 11.9408 11.9079 11.9943 11.843 12.0439C11.8125 12.0706 11.7781 12.0935 11.7476 12.1202C11.7285 12.1355 11.7056 12.1545 11.6866 12.1698C11.6789 12.1774 11.6675 12.1851 11.6598 12.1927C11.5606 12.2729 11.4652 12.353 11.3736 12.437C11.3469 12.4599 11.3202 12.4828 11.2935 12.5057C11.2438 12.5476 11.1981 12.5934 11.1484 12.6354C11.1141 12.6659 11.0797 12.7003 11.0454 12.7308C10.9996 12.7728 10.9576 12.8186 10.9118 12.8606C10.7668 13.0056 10.6065 13.1659 10.4309 13.3262C10.1256 13.6086 9.78216 13.8986 9.38525 14.1582C8.8166 14.5322 8.14873 14.8451 7.37017 14.9711C7.33964 14.9405 7.30911 14.9062 7.27858 14.8757C7.26331 14.8604 7.25186 14.8451 7.2366 14.8299C7.22133 14.8108 7.20225 14.7955 7.18699 14.7764C7.16027 14.7459 7.13356 14.7154 7.10684 14.6887C7.10302 14.6848 7.10302 14.6848 7.09921 14.681C7.08013 14.6581 7.06104 14.6352 7.04196 14.6161C7.03051 14.6047 7.02288 14.5932 7.01143 14.5818C7.0038 14.5703 6.99235 14.5589 6.98471 14.5513C6.9809 14.5474 6.9809 14.5474 6.9809 14.5474C6.94273 14.5016 6.90457 14.4558 6.86641 14.4101C6.86259 14.4062 6.85877 14.4024 6.85496 14.3948C6.82061 14.3528 6.78626 14.3108 6.75573 14.2688C6.67558 14.1658 6.59926 14.0666 6.52674 13.9597C6.4924 13.9101 6.45805 13.8605 6.4237 13.8109C6.38935 13.7613 6.355 13.7116 6.32447 13.662C6.29776 13.6201 6.27486 13.5819 6.24814 13.5399C6.22143 13.5017 6.19853 13.4598 6.17563 13.4178C6.13365 13.3453 6.09167 13.2728 6.04969 13.2041C6.02297 13.1583 5.99626 13.1125 5.97336 13.0629C5.96954 13.0552 5.96573 13.0514 5.96573 13.0438C5.9123 12.9445 5.86268 12.8415 5.81307 12.7423C5.79017 12.6927 5.76346 12.6392 5.74056 12.5896C5.72148 12.5476 5.7024 12.5057 5.68331 12.4637C5.66423 12.4217 5.64896 12.3797 5.62988 12.3377H5.6337C5.6566 12.3415 5.6795 12.3492 5.70621 12.353C5.77109 12.3644 5.83979 12.3797 5.9123 12.3912C5.92375 12.3912 5.93138 12.395 5.94283 12.395C6.00008 12.4064 6.06114 12.4141 6.11839 12.4217C6.14128 12.4255 6.16037 12.4293 6.18326 12.4293C6.19471 12.4293 6.20235 12.4331 6.2138 12.4331C6.23288 12.437 6.25578 12.437 6.27486 12.4408C6.31302 12.4446 6.34737 12.4484 6.38554 12.456C6.42752 12.4599 6.4695 12.4637 6.51529 12.4675C6.52674 12.4675 6.53438 12.4713 6.54583 12.4713H6.54964C6.55346 12.4713 6.55346 12.4713 6.55727 12.4713C6.57636 12.4713 6.59544 12.4751 6.61452 12.4751C6.6336 12.4751 6.65269 12.4789 6.67177 12.4789C6.68703 12.4789 6.7023 12.4828 6.71756 12.4828C6.73283 12.4828 6.7481 12.4866 6.76336 12.4866C6.80534 12.4904 6.84732 12.4904 6.8893 12.4942C6.93128 12.4942 6.97327 12.498 7.01525 12.498C7.0267 12.498 7.03814 12.498 7.04959 12.498C7.07631 12.498 7.10302 12.498 7.12592 12.498H7.12974C7.17172 12.498 7.2137 12.498 7.2595 12.498H7.31293C7.32056 12.498 7.32438 12.498 7.33201 12.498H7.35491C7.37781 12.498 7.40452 12.498 7.42742 12.498C7.45032 12.498 7.47322 12.498 7.4923 12.498C7.5152 12.498 7.53428 12.498 7.55718 12.4942C7.57626 12.4942 7.59534 12.4942 7.61443 12.4904C7.62206 12.4904 7.62969 12.4904 7.63732 12.4904C7.68694 12.4866 7.73655 12.4828 7.78235 12.4828C7.78616 12.4828 7.78616 12.4828 7.78998 12.4828C7.80525 12.4828 7.8167 12.4828 7.82815 12.4789C7.87776 12.4751 7.92737 12.4713 7.97699 12.4675C7.98843 12.4675 7.99988 12.4637 8.01133 12.4637C8.01897 12.4637 8.0266 12.4637 8.03423 12.4637C8.0495 12.4637 8.06476 12.4599 8.08003 12.4599C8.14109 12.4522 8.20216 12.4446 8.2594 12.437C8.27848 12.4331 8.30138 12.4331 8.32046 12.4293C8.37389 12.4217 8.42351 12.4141 8.47694 12.4064C8.4922 12.4026 8.51129 12.4026 8.52655 12.3988C8.55708 12.395 8.59143 12.3873 8.62196 12.3797C8.67539 12.3683 8.72501 12.3606 8.77844 12.3492C8.92728 12.3187 9.07612 12.2805 9.22496 12.2385C9.25167 12.2309 9.27457 12.2232 9.29747 12.2156C9.32037 12.208 9.34708 12.2003 9.36998 12.1927C9.42341 12.1774 9.47684 12.1584 9.53027 12.1393C9.57989 12.124 9.6295 12.1049 9.67911 12.0858C9.68675 12.082 9.69056 12.082 9.69819 12.0782C9.70964 12.0744 9.72109 12.0706 9.73254 12.063C9.75544 12.0553 9.78216 12.0439 9.80505 12.0362C9.83559 12.0248 9.86612 12.0133 9.89665 12.0019C9.89665 12.0019 9.90046 12.0019 9.90046 11.9981C9.91573 11.9943 9.92718 11.9866 9.94245 11.9828C9.94626 11.9828 9.95389 11.979 9.95771 11.9752C9.96916 11.9714 9.98061 11.9637 9.99588 11.9599C10.0302 11.9446 10.0608 11.9332 10.0951 11.9179C10.118 11.9065 10.1447 11.895 10.1676 11.8836C10.1905 11.8721 10.2134 11.8607 10.2363 11.8492C10.2554 11.8416 10.2745 11.8301 10.2936 11.8225C10.3432 11.7996 10.389 11.7767 10.4386 11.75C10.4653 11.7347 10.492 11.7233 10.5225 11.708C10.5493 11.6966 10.5722 11.6813 10.5989 11.666C10.6065 11.6622 10.6103 11.6584 10.618 11.6546C10.6447 11.6393 10.6714 11.6241 10.6981 11.6126C10.6981 11.6126 10.6981 11.6126 10.7019 11.6126C10.7019 11.6126 10.7057 11.6126 10.7057 11.6088C10.7057 11.6088 10.7095 11.6088 10.7095 11.605C10.7401 11.5897 10.7706 11.5706 10.7973 11.5554C10.8202 11.5439 10.8393 11.5287 10.8622 11.5172C10.8737 11.5096 10.8851 11.5019 10.9004 11.4943C10.9042 11.4905 10.908 11.4867 10.9156 11.4829C10.9195 11.479 10.9233 11.479 10.9271 11.4752H10.9309C10.9614 11.4561 10.992 11.4371 11.0225 11.418C11.0225 11.418 11.0225 11.418 11.0263 11.418C11.0416 11.4065 11.0568 11.3989 11.0759 11.3874C11.0836 11.3836 11.0912 11.3798 11.0988 11.3722C11.1103 11.3645 11.1255 11.3531 11.137 11.3455C11.1752 11.3226 11.2095 11.2958 11.2477 11.2729C11.2591 11.2844 11.2744 11.2958 11.2858 11.3073C11.2973 11.3187 11.3125 11.3302 11.324 11.3416C11.3469 11.3607 11.366 11.3798 11.3889 11.3989C11.4156 11.4218 11.4423 11.4447 11.469 11.4638C11.4766 11.4676 11.4805 11.4714 11.4881 11.479C11.5301 11.5134 11.5682 11.5439 11.6102 11.5744C11.614 11.5783 11.6217 11.5821 11.6255 11.5859C11.6522 11.605 11.6751 11.6241 11.7018 11.6431C11.7247 11.6622 11.7476 11.6775 11.7743 11.6928L11.7781 11.6966C11.782 11.7004 11.7858 11.7004 11.7858 11.7042C11.8087 11.7195 11.8278 11.7347 11.8507 11.75C11.8583 11.7538 11.8621 11.7576 11.8697 11.7615C11.9232 11.8149 11.9804 11.853 12.0377 11.8912Z" fill="#E8ECED"/>
<path opacity="0.8" d="M10.5109 8.35701C10.4612 8.57455 10.4193 8.78827 10.3925 9.0058C9.74375 8.73865 9.01863 8.44479 8.30114 8.20435C7.62945 7.97918 6.92723 7.84561 6.21737 7.81508C5.85863 7.79981 4.82819 8.05933 4.74805 7.65479C4.90834 7.63571 5.06481 7.61281 5.19075 7.55938C5.72124 7.33803 6.3166 7.22353 6.88143 7.34184C7.6409 7.50213 8.27824 8.05933 9.04534 8.1929C9.4766 8.26542 9.92694 8.20054 10.3506 8.3074C10.404 8.31885 10.4574 8.33793 10.5109 8.35701Z" fill="#F8FCFD"/>
<path opacity="0.8" d="M10.4036 9.87991C10.1594 9.91044 9.91511 9.94479 9.67467 9.99059C9.01443 10.1127 8.2168 10.2425 7.35429 10.2425C7.31231 10.2425 7.26651 10.2425 7.22453 10.2425C7.19018 10.2425 7.15965 10.2425 7.1253 10.2387C7.09477 10.2387 7.06424 10.2387 7.03371 10.2348C7.02989 10.2348 7.02989 10.2348 7.02607 10.2348C6.95356 10.231 6.87723 10.2272 6.8009 10.2234C6.78182 10.2234 6.76274 10.2196 6.74747 10.2196C6.71313 10.2158 6.67878 10.2158 6.64443 10.2119C6.63298 10.2119 6.62535 10.2119 6.6139 10.2081C6.5681 10.2043 6.52231 10.2005 6.47651 10.1929C6.38873 10.1814 6.30477 10.17 6.21699 10.1585C6.18264 10.1547 6.1483 10.1471 6.11395 10.1432C6.07578 10.1356 6.03762 10.1318 5.99946 10.1242C5.93076 10.1127 5.86588 10.0974 5.79718 10.0822C5.78192 10.0784 5.77047 10.0745 5.7552 10.0707C5.7323 10.0669 5.70559 10.0593 5.68269 10.0517C5.66743 10.0478 5.64834 10.044 5.63308 10.0402C5.60255 10.0326 5.57202 10.0249 5.54148 10.0173C5.54148 10.0173 5.54148 10.0173 5.53767 10.0173C5.53385 10.0173 5.53003 10.0173 5.53003 10.0135C5.49569 10.0059 5.46134 9.9944 5.43081 9.98677C5.42317 9.98296 5.41173 9.98295 5.40409 9.97914C5.3583 9.96769 5.31631 9.95242 5.27052 9.94097C5.2209 9.92571 5.16747 9.90663 5.11786 9.89136C5.0797 9.87991 5.04153 9.86846 5.00337 9.8532C4.99192 9.84938 4.98047 9.84557 4.96902 9.83793H4.9652C4.90796 9.81122 4.86216 9.77687 4.84308 9.70817C4.82781 9.65474 4.83163 9.5975 4.83544 9.54407C4.83544 9.52498 4.83926 9.50972 4.83926 9.49064C4.84689 9.49064 4.85453 9.49064 4.86216 9.49064C4.88124 9.49064 4.90414 9.49064 4.92322 9.49064C5.06825 9.49064 5.21709 9.49064 5.36211 9.47155C5.40028 9.46774 5.44226 9.46011 5.48042 9.44866C5.60636 9.41812 5.70941 9.34561 5.83916 9.3418C5.96511 9.3418 6.09105 9.36469 6.21317 9.39141C6.43834 9.44102 6.65588 9.52498 6.88105 9.5746C8.01834 9.83793 9.20525 9.61658 10.3731 9.63566C10.3731 9.64329 10.3731 9.65093 10.3731 9.65474C10.3769 9.68909 10.3807 9.72344 10.3845 9.75397C10.3883 9.79595 10.396 9.83793 10.4036 9.87991Z" fill="#F8FCFD"/>
<path opacity="0.35" d="M10.4614 10.1201C9.90417 10.3339 9.27064 10.3186 8.72108 10.559C8.46156 10.6735 8.22876 10.872 7.96161 10.9636C7.67919 11.059 7.32426 11.0437 7.02658 11.0361C6.96552 11.0361 6.89301 11.0208 6.87774 10.9636C6.85103 10.8605 7.59141 10.7766 7.71354 10.7117C7.87001 10.6277 8.06847 10.4598 7.8662 10.3453C7.72117 10.2652 7.3319 10.3644 7.16397 10.3682C6.69837 10.3797 6.22132 10.3606 5.79006 10.1698C5.70991 10.1354 5.61832 10.0782 5.54199 10.0095C5.54199 10.0095 5.54199 10.0095 5.54581 10.0095C5.57634 10.0171 5.60687 10.0247 5.6374 10.0324C5.65267 10.0362 5.67175 10.04 5.68702 10.0438C5.70991 10.0514 5.73663 10.0553 5.75953 10.0629C5.77479 10.0667 5.79006 10.0705 5.80151 10.0743C5.8702 10.0896 5.9389 10.1049 6.00378 10.1163C6.04194 10.124 6.08011 10.1316 6.11827 10.1354C6.15262 10.143 6.18697 10.1469 6.22132 10.1507C6.30909 10.1621 6.39306 10.1736 6.48083 10.185C6.52663 10.1888 6.57243 10.1965 6.61822 10.2003C6.62967 10.2003 6.63731 10.2003 6.64876 10.2041C6.6831 10.2079 6.71745 10.2117 6.7518 10.2117C6.77088 10.2117 6.78996 10.2155 6.80523 10.2155C6.88156 10.2194 6.95407 10.2232 7.0304 10.227C7.03422 10.227 7.03421 10.227 7.03803 10.227C7.06856 10.227 7.09909 10.2308 7.12963 10.2308C7.16397 10.2308 7.1945 10.2308 7.22885 10.2346C7.27083 10.2346 7.31663 10.2346 7.35861 10.2346C8.22112 10.2346 9.01876 10.1049 9.679 9.98275C9.91943 9.93695 10.1637 9.9026 10.4079 9.87207C10.4079 9.88352 10.4118 9.89497 10.4156 9.90642C10.4194 9.9255 10.4232 9.94077 10.427 9.95985C10.427 9.96748 10.4308 9.97893 10.4347 9.98656C10.4385 10.0018 10.4423 10.0171 10.4461 10.0324C10.4499 10.0476 10.4537 10.0629 10.4575 10.0782C10.4537 10.0972 10.4575 10.1087 10.4614 10.1201Z" fill="#DCDFE0"/>
<path opacity="0.2" d="M11.324 11.3527C10.8088 11.6962 10.2821 12.0358 9.70583 12.2686C9.11046 12.5091 8.48457 12.5816 7.85486 12.6884C7.70602 12.7113 7.55718 12.7381 7.40834 12.7419C7.12211 12.7533 6.83206 12.6999 6.55727 12.6274C6.27868 12.5511 5.98863 12.5358 5.70621 12.4785C5.69858 12.4785 5.69095 12.4747 5.68331 12.4747C5.66423 12.4327 5.64896 12.3908 5.62988 12.3488H5.6337C5.6566 12.3526 5.6795 12.3602 5.70621 12.364C5.76727 12.3831 5.83215 12.3869 5.89322 12.3984C5.90848 12.4022 5.92375 12.4022 5.93901 12.406C5.99626 12.4175 6.05732 12.4251 6.11457 12.4327C6.13747 12.4366 6.15655 12.4404 6.17945 12.4404C6.1909 12.4404 6.19853 12.4442 6.20998 12.4442C6.22906 12.448 6.25196 12.448 6.27104 12.4518C6.30157 12.4556 6.32829 12.4595 6.355 12.4633C6.36264 12.4633 6.37027 12.4671 6.3779 12.4671C6.41988 12.4709 6.46186 12.4747 6.50766 12.4785C6.51911 12.4785 6.53056 12.4824 6.54201 12.4824C6.54583 12.4824 6.54583 12.4824 6.54964 12.4824C6.56872 12.4862 6.58781 12.4862 6.60689 12.4862C6.64124 12.49 6.67558 12.4938 6.70612 12.4938C6.72138 12.4938 6.73665 12.4976 6.75191 12.4976C6.79389 12.5014 6.83587 12.5014 6.87785 12.5053C6.91984 12.5091 6.96182 12.5091 7.0038 12.5091C7.01525 12.5091 7.0267 12.5091 7.03814 12.5091C7.06486 12.5091 7.09157 12.5091 7.11447 12.5091H7.11829C7.17935 12.5091 7.2366 12.5091 7.29766 12.5091C7.31293 12.5091 7.32819 12.5091 7.34346 12.5091C7.36254 12.5091 7.38162 12.5091 7.40071 12.5091C7.42742 12.5091 7.45795 12.5091 7.48467 12.5053C7.52665 12.5053 7.56863 12.5014 7.61061 12.5014C7.61824 12.5014 7.62587 12.5014 7.63351 12.5014C7.69839 12.4976 7.76327 12.4938 7.82814 12.49C7.89684 12.4862 7.96554 12.4785 8.03423 12.4709C8.0495 12.4709 8.06476 12.4671 8.08003 12.4671C8.14109 12.4595 8.20215 12.4518 8.2594 12.4442C8.33191 12.4327 8.40443 12.4251 8.47694 12.4098C8.57998 12.3946 8.67921 12.3755 8.77844 12.3526C8.92728 12.3221 9.07993 12.2839 9.22496 12.2419C9.25167 12.2343 9.27457 12.2267 9.29747 12.219C9.32037 12.2114 9.34708 12.2038 9.36998 12.1961C9.42341 12.1809 9.47684 12.1618 9.53027 12.1427C9.57989 12.1274 9.6295 12.1084 9.67911 12.0893C9.69819 12.0816 9.71346 12.0778 9.73254 12.0702C9.75544 12.0626 9.78216 12.0511 9.80505 12.0435C9.83559 12.032 9.86612 12.0206 9.89665 12.0091C9.91191 12.0015 9.92718 11.9977 9.94626 11.99C9.95008 11.99 9.95771 11.9862 9.96153 11.9824C9.97298 11.9786 9.98443 11.971 9.99969 11.9671C10.034 11.9519 10.0646 11.9404 10.0989 11.9252C10.1218 11.9137 10.1485 11.9023 10.1714 11.8908C10.1943 11.8794 10.2172 11.8679 10.2401 11.8565C10.2592 11.8488 10.2783 11.8374 10.2974 11.8297C10.347 11.8069 10.3928 11.784 10.4424 11.7572C10.4691 11.742 10.4958 11.7305 10.5264 11.7153C10.5531 11.7038 10.576 11.6885 10.6027 11.6733C10.7019 11.6198 10.7973 11.5626 10.8966 11.5054C10.9004 11.5054 10.9004 11.5015 10.9042 11.5015C10.908 11.4977 10.9118 11.4939 10.9195 11.4901C10.9996 11.4367 11.2362 11.2764 11.2515 11.2764C11.2629 11.2878 11.2782 11.2993 11.2896 11.3107C11.2973 11.3298 11.3087 11.3412 11.324 11.3527Z" fill="#DCDFE0"/>
<path opacity="0.8" d="M11.244 11.2842C11.2059 11.3109 11.1715 11.3338 11.1333 11.3567C11.0952 11.3796 11.0608 11.4063 11.0227 11.4292C10.9921 11.4483 10.9578 11.4712 10.9273 11.4903C10.9196 11.4941 10.912 11.5018 10.9005 11.5056C10.8662 11.5247 10.8318 11.5476 10.7975 11.5666C9.8472 12.12 8.77479 12.433 7.67566 12.4978C7.62986 12.5017 7.58788 12.5017 7.54208 12.5055C7.49628 12.5055 7.4543 12.5093 7.40851 12.5093C7.37034 12.5093 7.32836 12.5093 7.2902 12.5093H7.24822C7.20242 12.5093 7.15662 12.5093 7.11082 12.5093C7.07266 12.5093 7.0345 12.5093 6.99633 12.5055C6.84749 12.5017 6.69483 12.4902 6.54599 12.4788C6.54218 12.4788 6.53836 12.4788 6.53454 12.4788C6.49638 12.4749 6.45822 12.4711 6.42005 12.4673C6.40479 12.4673 6.38952 12.4635 6.37807 12.4635C6.33991 12.4597 6.30174 12.4559 6.26358 12.4482C6.21778 12.4444 6.16817 12.4368 6.12237 12.4292C6.11474 12.4292 6.10329 12.4253 6.09566 12.4253C5.95445 12.4101 5.74836 12.4063 5.63005 12.3452H5.62623C5.62623 12.3452 5.62623 12.3452 5.62242 12.3452C5.61097 12.3414 5.60334 12.3337 5.5957 12.3261C5.59952 12.3223 5.60715 12.3185 5.61097 12.3147C5.63005 12.3032 5.65295 12.2918 5.67585 12.2803C5.86285 12.1849 6.05749 12.162 6.25213 12.162C6.68338 12.162 7.12991 12.2841 7.55735 12.0742C7.85503 11.9292 8.1031 11.6811 8.41986 11.5857C8.76715 11.4827 9.14498 11.5743 9.50754 11.5743C9.98078 11.5705 10.4426 11.4063 10.8738 11.2041C10.9349 11.1774 10.9998 11.1468 11.0646 11.1201C11.0685 11.1239 11.0723 11.1277 11.0761 11.1316C11.0914 11.1506 11.1104 11.1659 11.1295 11.185C11.141 11.1964 11.1562 11.2117 11.1677 11.2232C11.1982 11.2422 11.2211 11.2651 11.244 11.2842Z" fill="#F8FCFD"/>
<path opacity="0.8" d="M12.0374 11.8908C11.9725 11.9404 11.9076 11.9939 11.8427 12.0435C11.8122 12.0702 11.7778 12.0931 11.7473 12.1198C11.7282 12.1351 11.7053 12.1542 11.6862 12.1694C11.6786 12.1771 11.6672 12.1847 11.6595 12.1923C11.5641 12.2725 11.4649 12.3526 11.3733 12.4366C11.3466 12.4595 11.3199 12.4824 11.2932 12.5053C11.2435 12.5472 11.1977 12.593 11.1481 12.635C11.1138 12.6656 11.0794 12.6999 11.0451 12.7304C10.9993 12.7724 10.9573 12.8182 10.9115 12.8602C10.7665 13.0052 10.6062 13.1655 10.4306 13.3258C10.1253 13.6082 9.78185 13.8983 9.38876 14.1578C8.82011 14.5318 8.15224 14.8447 7.37369 14.9707C7.34315 14.9402 7.31262 14.9058 7.28209 14.8753C7.26683 14.86 7.25538 14.8447 7.24011 14.8295C7.22484 14.8104 7.20576 14.7951 7.1905 14.776C7.16378 14.7455 7.13707 14.715 7.11035 14.6883C7.79731 14.5432 8.40794 14.2799 8.94987 13.9631C9.40784 13.696 9.82001 13.383 10.1864 13.0739C10.5413 12.7724 10.8505 12.4671 11.1252 12.1923C11.1939 12.1236 11.2664 12.0549 11.3351 11.9862C11.3428 11.9786 11.3504 11.971 11.358 11.9633C11.4153 11.9099 11.4725 11.8565 11.5298 11.803C11.587 11.7496 11.6443 11.7 11.7015 11.6504C11.7244 11.6695 11.7511 11.6886 11.774 11.7038C11.7778 11.7076 11.7817 11.7076 11.7817 11.7115C11.8046 11.7267 11.8236 11.742 11.8465 11.7573C11.8542 11.7611 11.858 11.7649 11.8656 11.7687C11.9229 11.8145 11.9801 11.8527 12.0374 11.8908Z" fill="#F8FCFD"/>
<path opacity="0.8" d="M11.7019 11.6542C11.5035 11.826 11.3088 12.0092 11.1218 12.1962C10.5646 12.7534 9.85097 13.4403 8.9503 13.967C8.40836 14.2838 7.79773 14.5471 7.11078 14.6921C7.10696 14.6883 7.10696 14.6883 7.10314 14.6845C7.08406 14.6616 7.06498 14.6387 7.0459 14.6196C7.68324 14.4593 8.25952 14.2112 8.77856 13.9174C9.83571 13.3182 10.6639 12.5244 11.305 11.8794C11.4043 11.7802 11.5035 11.6848 11.6065 11.5894C11.6103 11.5932 11.618 11.597 11.6256 11.6008C11.6523 11.6161 11.679 11.6352 11.7019 11.6542Z" fill="#DCDFE0"/>
<path opacity="0.7" d="M12.0377 11.891C11.9728 11.9407 11.908 11.9941 11.8431 12.0437C11.8125 12.0704 11.7782 12.0933 11.7477 12.12C11.7286 12.1353 11.7057 12.1544 11.6866 12.1696C11.679 12.1773 11.6675 12.1849 11.6599 12.1925C11.6065 12.1544 11.553 12.1162 11.5034 12.078C11.4881 12.0666 11.4691 12.0551 11.4538 12.0399C11.4233 12.017 11.3889 11.9903 11.3584 11.9674C11.3508 11.9636 11.3469 11.9559 11.3393 11.9521C11.3317 11.9483 11.324 11.9407 11.3164 11.9368C11.305 11.9254 11.2935 11.9178 11.2782 11.9063C11.2324 11.872 11.1905 11.8338 11.1447 11.7956C11.1141 11.7727 11.0836 11.746 11.0531 11.7155C11.0225 11.6888 10.9958 11.6621 10.9653 11.6353C10.9538 11.6277 10.9462 11.6163 10.9348 11.6086L10.9309 11.6048C10.9081 11.5819 10.8852 11.559 10.8623 11.5361C10.8546 11.5285 10.847 11.5208 10.8394 11.5132C10.8126 11.4827 10.7821 11.4522 10.7554 11.4216C10.7478 11.414 10.7401 11.4025 10.7325 11.3949C10.7058 11.3644 10.6791 11.3338 10.6524 11.3033C10.6485 11.2995 10.6485 11.2995 10.6447 11.2957C10.6409 11.2919 10.6371 11.2842 10.6295 11.2804C10.5646 11.2003 10.4997 11.1125 10.4424 11.0247C10.4386 11.0171 10.431 11.0094 10.4272 11.0018C10.4043 10.9675 10.3814 10.9293 10.3623 10.8911C10.3547 10.8797 10.347 10.8682 10.3432 10.853C10.3241 10.8186 10.3051 10.7843 10.2898 10.7499C10.2822 10.7347 10.2783 10.7232 10.2707 10.7079C10.2516 10.6698 10.2364 10.6354 10.2211 10.5935C10.2173 10.582 10.2096 10.5706 10.2058 10.5553C10.1867 10.5057 10.1677 10.4522 10.1524 10.3988C10.1486 10.3874 10.1448 10.3759 10.1409 10.3607C10.1371 10.3454 10.1333 10.3301 10.1295 10.3149C10.1257 10.2958 10.1181 10.2805 10.1142 10.2614C10.1104 10.25 10.1066 10.2347 10.1066 10.2233C10.1066 10.2194 10.1028 10.2156 10.1028 10.208C10.099 10.1965 10.099 10.1851 10.0952 10.1775C10.0913 10.1584 10.0875 10.1355 10.0837 10.1164C10.0799 10.105 10.0799 10.0935 10.0761 10.0782C10.0684 10.0286 10.0608 9.98283 10.0532 9.93703C10.0532 9.93321 10.0532 9.92558 10.0532 9.92176C10.0494 9.88742 10.0455 9.85307 10.0417 9.82254C10.0417 9.8149 10.0417 9.80727 10.0417 9.79964C10.0417 9.78819 10.0417 9.77674 10.0379 9.76529C10.0379 9.74621 10.0341 9.73094 10.0341 9.71568C10.0341 9.68896 10.0303 9.66225 10.0303 9.63553C10.0303 9.55539 10.0303 9.47143 10.0341 9.39128C10.0341 9.33403 10.0379 9.27679 10.0455 9.21954C10.0494 9.17374 10.0532 9.12413 10.0608 9.07833C10.0608 9.06307 10.0646 9.0478 10.0646 9.03254C10.0684 9.00964 10.0684 8.99055 10.0723 8.96766C10.0761 8.93712 10.0799 8.90659 10.0837 8.87606C10.0837 8.8608 10.0875 8.84553 10.0913 8.83027C10.0952 8.80737 10.099 8.78065 10.1028 8.75775C10.1104 8.71577 10.1181 8.67379 10.1257 8.63181C10.1295 8.6051 10.1371 8.57838 10.1409 8.55548C10.1486 8.51732 10.1562 8.47915 10.1638 8.44099C10.1677 8.41427 10.1753 8.39138 10.1791 8.36466C10.1867 8.33413 10.1944 8.3036 10.202 8.27307C10.2096 8.24254 10.2173 8.20819 10.2249 8.17766C10.2325 8.14331 10.2402 8.10896 10.2478 8.07461C10.2974 7.86853 10.3547 7.66626 10.4081 7.46399C10.4119 7.44872 10.4157 7.43345 10.4195 7.41819C10.4234 7.41056 10.4234 7.40292 10.4272 7.39529C10.4424 7.34186 10.4539 7.28843 10.4692 7.235C10.5073 7.09379 10.5417 6.95258 10.576 6.80756C10.5913 6.73886 10.6066 6.67017 10.6218 6.59766C10.6791 6.61674 10.7325 6.63582 10.7897 6.65109C10.8279 6.66254 10.8661 6.67398 10.9081 6.68543C10.9004 6.73505 10.889 6.78848 10.8775 6.83809C10.8775 6.84954 10.8737 6.85717 10.8699 6.86862C10.8661 6.8877 10.8623 6.90679 10.8584 6.92205C10.8508 6.9564 10.8432 6.99075 10.8355 7.0251C10.8279 7.05181 10.8241 7.07853 10.8165 7.10906C10.805 7.1663 10.7897 7.22355 10.7745 7.2808C10.763 7.33041 10.7516 7.37621 10.7363 7.422C10.7287 7.44872 10.7249 7.47543 10.7172 7.49833C10.7096 7.52505 10.702 7.55176 10.6943 7.57848C10.6867 7.60138 10.6829 7.62427 10.6752 7.64717C10.6676 7.67389 10.66 7.70442 10.6524 7.73114C10.6371 7.7922 10.618 7.85326 10.6027 7.91432C10.5837 7.98684 10.5646 8.05935 10.5455 8.13186C10.5455 8.13568 10.5455 8.13568 10.5455 8.13949C10.5379 8.17002 10.5302 8.19674 10.5226 8.22727C10.5188 8.23872 10.515 8.25399 10.515 8.26544C10.5111 8.2807 10.5073 8.29215 10.5035 8.30741C10.4959 8.33413 10.4921 8.36085 10.4844 8.38756C10.4806 8.41046 10.473 8.43336 10.4692 8.45244C10.4653 8.46389 10.4653 8.47915 10.4615 8.4906C10.4577 8.50587 10.4539 8.51732 10.4539 8.53258C10.4539 8.54022 10.4501 8.54403 10.4501 8.55167C10.4463 8.57457 10.4424 8.59746 10.4386 8.62036C10.4348 8.63944 10.431 8.65471 10.4272 8.67379C10.4272 8.67761 10.4272 8.68143 10.4234 8.68524C10.4234 8.70051 10.4195 8.71196 10.4157 8.72722C10.4119 8.7463 10.4081 8.76539 10.4043 8.78447V8.78829C10.4005 8.82263 10.3928 8.85698 10.389 8.89133C10.389 8.89514 10.389 8.89896 10.389 8.89896C10.3852 8.91804 10.3852 8.93331 10.3814 8.95239V8.95621C10.3814 8.96766 10.3776 8.97529 10.3776 8.98674C10.3776 8.99055 10.3776 8.99056 10.3776 8.99437C10.3776 8.99819 10.3776 9.00582 10.3776 9.00964C10.3738 9.04399 10.3699 9.07833 10.3661 9.11268C10.3623 9.1623 10.3585 9.21191 10.3585 9.25771C10.3585 9.28442 10.3547 9.31495 10.3547 9.34167C10.3547 9.38365 10.3547 9.42563 10.3547 9.46761C10.3547 9.49051 10.3547 9.51341 10.3585 9.5363C10.3585 9.55157 10.3585 9.56684 10.3623 9.5821C10.3623 9.59355 10.3623 9.60118 10.3623 9.61263C10.3623 9.62027 10.3623 9.6279 10.3623 9.63172C10.3661 9.66606 10.3661 9.70041 10.3738 9.73094C10.3776 9.77292 10.3852 9.81109 10.3928 9.85307C10.3928 9.86452 10.3966 9.87597 10.4005 9.88742C10.4043 9.9065 10.4081 9.92176 10.4119 9.94084C10.4119 9.94848 10.4157 9.95993 10.4195 9.96756C10.4234 9.98283 10.4272 9.99809 10.431 10.0134C10.4348 10.0286 10.4386 10.0439 10.4424 10.0592C10.4463 10.0706 10.4501 10.0859 10.4539 10.0973C10.4577 10.1088 10.4615 10.1202 10.4615 10.1279C10.4692 10.1507 10.4768 10.1736 10.4844 10.1927C10.4844 10.1965 10.4844 10.2004 10.4882 10.2042C10.4921 10.2194 10.4997 10.2347 10.5035 10.25C10.5035 10.2538 10.5073 10.2576 10.5073 10.2614C10.5111 10.2729 10.515 10.2843 10.5188 10.292C10.5302 10.3263 10.5455 10.3568 10.5608 10.3874C10.5646 10.3912 10.5646 10.3988 10.5684 10.4064C10.5722 10.4103 10.576 10.4179 10.576 10.4217C10.5913 10.4484 10.6027 10.4751 10.618 10.5019C10.618 10.5057 10.6218 10.5057 10.6218 10.5095C10.6256 10.5209 10.6333 10.5324 10.6409 10.54C10.66 10.5706 10.6791 10.6049 10.6981 10.6354C10.702 10.6431 10.7058 10.6507 10.7096 10.6545C10.7592 10.7308 10.8126 10.8034 10.8699 10.8759C10.8737 10.8797 10.8775 10.8835 10.8813 10.8911C10.9004 10.914 10.9157 10.9331 10.9348 10.9522C10.9386 10.956 10.9424 10.9598 10.9462 10.9636L10.9538 10.9751C10.9615 10.9827 10.9691 10.9904 10.9729 10.998C10.9806 11.0056 10.9844 11.0133 10.992 11.0209C11.0111 11.04 11.0264 11.0591 11.0454 11.0781C11.0493 11.082 11.0531 11.0858 11.0569 11.0896C11.0607 11.0896 11.0607 11.0934 11.0645 11.0972L11.0683 11.101C11.0874 11.1201 11.1065 11.1392 11.1256 11.1583C11.137 11.1697 11.1447 11.1774 11.1561 11.185C11.1828 11.2079 11.2057 11.2308 11.2324 11.2537C11.2592 11.2766 11.2821 11.2995 11.3088 11.3224C11.3317 11.3415 11.3546 11.3606 11.3737 11.3796C11.4004 11.4025 11.4271 11.4254 11.4538 11.4445C11.4576 11.4483 11.4652 11.4522 11.4729 11.4598C11.5149 11.4941 11.553 11.5247 11.595 11.5552C11.5988 11.559 11.6065 11.5628 11.6141 11.5666C11.6637 11.6048 11.7095 11.6392 11.7591 11.6735C11.7591 11.6735 11.7629 11.6735 11.7629 11.6773C11.7667 11.6773 11.7667 11.6811 11.7706 11.685C11.7935 11.7002 11.8125 11.7155 11.8354 11.7307C11.8431 11.7346 11.8469 11.7384 11.8545 11.7422C11.9232 11.8147 11.9805 11.8529 12.0377 11.891Z" fill="#F8FCFD"/>
<path opacity="0.8" d="M12.0378 11.8911C11.9729 11.9408 11.908 11.9942 11.8432 12.0438C11.7974 12.0133 11.7554 11.9789 11.7096 11.9446C11.6562 11.9026 11.5989 11.8606 11.5455 11.8186C11.5378 11.8148 11.5302 11.8072 11.5226 11.8034C11.4653 11.7576 11.4081 11.7118 11.3547 11.6622C11.3241 11.6393 11.2936 11.6125 11.2631 11.582C11.2325 11.5553 11.2058 11.5286 11.1753 11.5019C11.1638 11.4904 11.1524 11.479 11.1409 11.4675C11.118 11.4446 11.0951 11.4217 11.0722 11.3988C11.0646 11.3912 11.057 11.3836 11.0493 11.3759C11.0226 11.3454 10.9921 11.3149 10.9654 11.2843C10.9577 11.2767 10.9501 11.2652 10.9425 11.2576C10.9119 11.2233 10.8852 11.1927 10.8547 11.1584C10.8509 11.1546 10.8471 11.1469 10.8394 11.1431C10.7746 11.063 10.7097 10.9752 10.6524 10.8874C10.6486 10.8798 10.641 10.8722 10.6372 10.8645C10.6143 10.8302 10.5914 10.792 10.5723 10.7538C10.5647 10.7424 10.557 10.7309 10.5532 10.7157C10.5341 10.6813 10.515 10.647 10.4998 10.6126C10.4921 10.5974 10.4883 10.5859 10.4807 10.5707C10.4616 10.5325 10.4463 10.4981 10.4311 10.4562C10.4273 10.4447 10.4196 10.4333 10.4158 10.418C10.3967 10.3684 10.3776 10.315 10.3624 10.2615C10.3586 10.2501 10.3548 10.2386 10.3509 10.2234C10.3471 10.2081 10.3433 10.1928 10.3395 10.1776C10.3357 10.1585 10.328 10.1432 10.3242 10.1241C10.3204 10.1051 10.3166 10.0898 10.3128 10.0707C10.309 10.0593 10.309 10.0478 10.3051 10.0402C10.3013 10.0211 10.2975 9.99819 10.2937 9.97911C10.2899 9.96766 10.2899 9.95621 10.2861 9.94095C10.2784 9.89133 10.2708 9.84554 10.2632 9.79974C10.2593 9.76158 10.2555 9.72341 10.2517 9.68143C10.2517 9.6738 10.2517 9.66616 10.2517 9.65853C10.2517 9.64708 10.2517 9.63563 10.2479 9.62418C10.2479 9.6051 10.2441 9.58984 10.2441 9.57457C10.2403 9.46771 10.2403 9.36085 10.2441 9.25017C10.2441 9.19293 10.2479 9.13568 10.2555 9.07843C10.2593 9.01737 10.267 8.95249 10.2746 8.89143C10.2784 8.86853 10.2784 8.84945 10.2822 8.82655C10.2899 8.78075 10.2937 8.73877 10.3013 8.69298C10.3051 8.67008 10.309 8.64336 10.3128 8.62046C10.3204 8.57848 10.328 8.5365 10.3357 8.49452C10.3395 8.46781 10.3471 8.44109 10.3509 8.41819C10.3586 8.38003 10.3662 8.34186 10.3738 8.3037C10.3776 8.27699 10.3853 8.25409 10.3891 8.22737C10.4044 8.16631 10.4196 8.10143 10.4349 8.04037C10.4425 8.00602 10.4502 7.97167 10.4578 7.93732C10.5112 7.71597 10.5723 7.49843 10.6295 7.2809C10.6448 7.21983 10.6639 7.15877 10.6791 7.09389C10.7211 6.94505 10.7555 6.79621 10.7936 6.64355C10.8318 6.655 10.87 6.66645 10.9119 6.6779C10.8662 6.92979 10.8089 7.17404 10.744 7.41447C10.7288 7.4679 10.7173 7.52133 10.702 7.57476C10.6524 7.76177 10.6028 7.94877 10.5532 8.13959C10.5456 8.17013 10.5379 8.19684 10.5303 8.22737C10.5189 8.2808 10.5036 8.33423 10.4921 8.38766C10.4883 8.41056 10.4807 8.43346 10.4769 8.45254C10.4692 8.48689 10.4616 8.51742 10.454 8.55177C10.4502 8.57467 10.4463 8.59756 10.4425 8.62046C10.4349 8.65481 10.4273 8.69298 10.4234 8.72732C10.4196 8.7464 10.4158 8.7693 10.412 8.78839C10.4044 8.82655 10.4005 8.86472 10.3929 8.90288C10.3891 8.92196 10.3891 8.93723 10.3853 8.95631C10.3776 9.00974 10.3738 9.06317 10.37 9.1166C10.3662 9.16621 10.3624 9.21583 10.3624 9.26162C10.3586 9.35322 10.3586 9.44863 10.3624 9.54022C10.3624 9.55549 10.3624 9.57075 10.3662 9.58602C10.3662 9.59747 10.3662 9.6051 10.3662 9.61655C10.3662 9.62418 10.3662 9.63182 10.3662 9.63563C10.37 9.66998 10.37 9.70433 10.3776 9.73486C10.3815 9.77684 10.3891 9.81501 10.3967 9.85699C10.3967 9.86844 10.4005 9.87988 10.4044 9.89133C10.4082 9.91042 10.412 9.92568 10.4158 9.94476C10.4158 9.9524 10.4196 9.96385 10.4234 9.97148C10.4273 9.98675 10.4311 10.002 10.4349 10.0173C10.4387 10.0325 10.4425 10.0478 10.4463 10.0631C10.4502 10.0745 10.454 10.0898 10.4578 10.1012C10.4616 10.1127 10.4654 10.1241 10.4654 10.1318C10.4807 10.1776 10.496 10.2234 10.5112 10.2653C10.515 10.2768 10.5189 10.2882 10.5227 10.2959C10.5341 10.3302 10.5494 10.3608 10.5647 10.3913C10.5685 10.4027 10.5761 10.4142 10.5799 10.4256C10.5952 10.4562 10.6105 10.4867 10.6257 10.5172C10.6295 10.5287 10.6372 10.5401 10.6448 10.5478C10.6639 10.5783 10.683 10.6126 10.702 10.6432C10.7059 10.6508 10.7097 10.6584 10.7135 10.6623C10.7631 10.7386 10.8165 10.8111 10.8738 10.8836C10.8776 10.8874 10.8814 10.8912 10.8852 10.8989C10.9081 10.9294 10.9348 10.9561 10.9577 10.9866C10.9654 10.9943 10.973 11.0019 10.9768 11.0095C10.9997 11.0363 11.0264 11.063 11.0493 11.0859C11.057 11.0935 11.0646 11.1011 11.0684 11.1088C11.0875 11.1279 11.1066 11.1469 11.1257 11.166C11.1371 11.1775 11.1448 11.1851 11.1562 11.1927C11.1829 11.2156 11.2058 11.2385 11.2325 11.2614C11.2592 11.2843 11.2821 11.3072 11.3089 11.3301C11.3585 11.3721 11.4043 11.4141 11.4539 11.4523C11.4577 11.4561 11.4653 11.4599 11.473 11.4675C11.5188 11.5057 11.5646 11.54 11.6142 11.5744C11.6638 11.6125 11.7096 11.6469 11.7592 11.6812C11.7859 11.7003 11.8088 11.7194 11.8355 11.7385C11.9119 11.8072 11.9729 11.8492 12.0378 11.8911Z" fill="#FAFEFF"/>
</svg>
