<svg width="28" height="28" viewBox="0 0 28 28" fill="none" xmlns="http://www.w3.org/2000/svg">
<path fill-rule="evenodd" clip-rule="evenodd" d="M14.7495 9.71533C14.7495 9.30112 14.4137 8.96533 13.9995 8.96533C13.5852 8.96533 13.2495 9.30112 13.2495 9.71533V13.2391H9.72168C9.30747 13.2391 8.97168 13.5749 8.97168 13.9891C8.97168 14.4033 9.30747 14.7391 9.72168 14.7391H13.2495V18.2627C13.2495 18.677 13.5852 19.0127 13.9995 19.0127C14.4137 19.0127 14.7495 18.677 14.7495 18.2627V14.7391H18.2772C18.6914 14.7391 19.0272 14.4033 19.0272 13.9891C19.0272 13.5749 18.6914 13.2391 18.2772 13.2391H14.7495V9.71533Z" fill="#A1D0B7"/>
<path fill-rule="evenodd" clip-rule="evenodd" d="M19.4663 2.3335H8.53301C4.7219 2.3335 2.33301 5.03093 2.33301 8.84951V19.1508C2.33301 22.9694 4.71079 25.6668 8.53301 25.6668H19.4663C23.2886 25.6668 25.6663 22.9694 25.6663 19.1508V8.84951C25.6663 5.03093 23.2886 2.3335 19.4663 2.3335Z" stroke="#AAAAAA" stroke-width="1.5" stroke-linecap="round" stroke-linejoin="round"/>
</svg>
