<svg width="24" height="24" viewBox="0 0 24 24" fill="none" xmlns="http://www.w3.org/2000/svg">
<path d="M21.5 17.5688V12.6848L3 12.6738V17.5588C3 19.5938 4.65 21.2438 6.685 21.2438L17.825 21.2438C19.855 21.2438 21.5 19.5988 21.5 17.5688Z" fill="#3F69AD"/>
<path d="M22.6315 13.0145H1.5" stroke="white" stroke-width="1.5" stroke-linecap="round" stroke-linejoin="round"/>
<path d="M20.7501 8.7779V6.82514C20.7501 4.996 19.2541 3.5 17.425 3.5H15.7812" stroke="white" stroke-width="1.5" stroke-linecap="round" stroke-linejoin="round"/>
<path d="M3.38184 8.7779V6.82095C3.38184 4.98867 4.86631 3.50314 6.6986 3.50105L8.37898 3.5" stroke="white" stroke-width="1.5" stroke-linecap="round" stroke-linejoin="round"/>
<path d="M20.7501 13.0142V17.5451C20.7501 19.3732 19.2541 20.8703 17.425 20.8703H15.7812" stroke="white" stroke-width="1.5" stroke-linecap="round" stroke-linejoin="round"/>
<path d="M3.38184 13.0142V17.5493C3.38184 19.3816 4.86631 20.8671 6.6986 20.8692L8.37898 20.8703" stroke="white" stroke-width="1.5" stroke-linecap="round" stroke-linejoin="round"/>
</svg>
