<svg width="20" height="18" viewBox="0 0 20 18" fill="none" xmlns="http://www.w3.org/2000/svg">
<path fill-rule="evenodd" clip-rule="evenodd" d="M15.857 17.417C17.732 17.417 19.25 15.898 19.25 14.024V11.324C18.01 11.324 17.01 10.324 17.01 9.085C17.01 7.845 18.01 6.846 19.25 6.846L19.248 4.143C19.248 2.269 17.73 0.75 15.856 0.75H4.144C2.27 0.75 0.751 2.269 0.751 4.143L0.75 6.933C1.989 6.933 2.989 7.845 2.989 9.085C2.989 10.324 1.989 11.324 0.75 11.324V14.024C0.75 15.898 2.268 17.417 4.142 17.417H15.857Z" fill="#FFCE8A"/>
<path fill-rule="evenodd" clip-rule="evenodd" d="M9.99932 10.8545L11.7393 11.7695C11.9023 11.8545 12.0933 11.7165 12.0623 11.5355L11.7293 9.59653L13.1383 8.22553C13.2703 8.09653 13.1973 7.87353 13.0153 7.84653L11.0693 7.56353L10.1983 5.79953C10.1173 5.63453 9.88232 5.63453 9.80032 5.79953L8.92932 7.56353L6.98432 7.84653C6.80232 7.87353 6.72932 8.09653 6.86132 8.22553L8.26932 9.59653L7.93632 11.5355C7.90532 11.7165 8.09632 11.8545 8.25932 11.7695L9.99932 10.8545Z" fill="white"/>
</svg>
